<svg xmlns="http://www.w3.org/2000/svg" viewBox="0 0 1365.67 679.68"><defs><style>.cls-1{isolation:isolate;}.cls-2{opacity:0.07;mix-blend-mode:screen;}.cls-3{fill:#003c5a;}</style></defs><title>bg-map</title><g class="cls-1"><g id="Layer_2" data-name="Layer 2"><g id="Layer_1-2" data-name="Layer 1"><g class="cls-2"><path class="cls-3" d="M455.39,422.68c-1.63-1.3-5.46.31-7.16-.75-4.54-2.86-8.34-11.22-14.55-11.22-4.69,0-16.34.64-18.84-.3.08.06.44-7.31-1.78-7.31a13.62,13.62,0,0,0-1.73,1.83c0-2.26-7.77-5.2-9.75-5.2-3.78,0-7.26,5.5-8.86,8.63.16-3.33,3.36-4.25,4.17-7.5.46-1.84-4.21-6.17-6.28-5.8-.23.05-4.12-20.47-7.27-20.17-2.74.19-4.06-7.16-7.24-6.47-.82.28-9.11-1.75-10.44-2.18-2.43-.74-6-.77-8.19-1.54-2.35-.81-2.6-5.22-5.21-1.52,2.54-10.44-7.54-6.71-10.62-10.64,1.19,1.41-2.43-12-5.53-6-.59-1.19-1.35-2-2-3.11.69,0,4.78-.35,4.6-1.27-.39-1.69-25.94,4.7-29.34-.45,3.23-1.38-13.23-10.48-7.53-3.32a8.37,8.37,0,0,1-5.25.45,22.1,22.1,0,0,0-1.64,2.89c0-2.22-2.31-3.28.88-3.86,6.65-1.32-3.94-8.08-3.41-2.28.17,1.8-9.14,3.73-10,5.25-3.29-3.76-7,4.63-5.93,7.65-1.25.61-8.39,7.14-5.89,7.74-3-.78-3.28-7.66-8.88-7.67-2.28,0-7.13,3.14-10.4,3.14-5.88,0-13.94-12.56-9.52-17.36,3.6-4,4.72-15.4-1.13-15.9-2.22-.29-4.14-4.23-9.26-2-2.25,1-8.13-.2-10.37-.89,3.07-4.27,3.73-10.65,7.24-14.68,4-4.85,6.45-12.52,1.47-13.82-7-1.93-18.81,7.81-18.53,14.55,0,.89-13.82.41-14.68,2.45-.37.89-7.1-9.92-8-11.11-3.55-4.68-1.13-10.5-.91-16.23.29-6.12,4.54-20,9-22.73,2.18-2.23,8.23-7.21,10.76-8.28.09.23,11.33.7,12.7-.23,2,3.95,8.68,3.42,7.09,1.34,2-.17,2.08,2.78,2.94,3,4.06,1.13-.31-3.42-.62-3.8,1.77-1.22,6.31-3.16,8.44-5.61,0,.49-.85,2.36-.83,2.54s6.57-1.19,7.64-.54c4.14,1,2.1,5.54,7.24,2.34,7.31-5.46,5.16,12.16,4.38,11.15.61.83,1.88-.68,1.84-.78-.18-.32-2.54,7.9.71,5.31.21.15-1.11,1.29-1,1.57.26.64.82.08,1.17,0,.48,1.62,6.59,13.08,6.71,4.5.07-7.15.54-14.74.47-22.12-.13-11.1,17.2-20.84,26.34-23.75,1.47-.5,5.65-6.35,3.61-7.37,4.93-4.18-.49-3.7.19-5.59.33-.88,4.13-11.3,6.24-11.5-.06.12-3.31,9.22-2.19,8.26-1.19,0-2.27,2.92-1.6,3.75,2,2.25,6.09-10.73,6.16-11.6,0,0,2.05,3,1.28,3,3.67,0,5.9-8.32,6.93-10,1.34,1.57,9.43-.75,8.6-1.91-.35-.5-4,.47-4.63.53,2.82-.76,7.14-.55,8.12-3.26-.21-.09,4.14,2.47,3.45.48.32.71-1.89,1-1.81,1.57.2,2,8.51-4.86,4.6-4.87.34,0-1.72,2-2,2.22-.07-.88-1.06-2.55-1-2.84.55-4.08,9.74-7.53,13.09-10.54.08,1.25-1.55,1-1.42,2.13-.06-.55,13-4.19,13.94-6.66-.24,2.73,5.41-1.16,6.9-2.33-.39.73-3,1.89-2.94,2.14.09,1.27,3.67-.06,4-.27,0,1.16-7.68,4-9.38,4-3.24,0-1.84,8.91,1.77,5.47,2.62-1.33,4-4.52,6-5.68.26.28,1.22,1.83.63,1.83,2.59,0,9.9-3,12.27-4.21,1.25-.64,10.33-5.9,5-5.9.13-.33,3.24-3.4.57-3.4-2.94,0-5,5.36-6.11,6.79l-.69.19c-2-1.05-5.33,0-8-2.37-5.39-4.86,2.43-6.75,1.26-8.88.16.29-7.85,0-8.42-.33,2.05,0,9,.47,10.56-2.76,5.32-11.2-30.12,7.89-29.83,7.88,7.8-4.07,14.66-10.82,21.8-14.53,6.94-3.56,29.17,4.39,33.75-5.45,3.57-1.34,8.17-1.6,12.26-4,7.16-4.21.81-15.68-7.36-10.31,1.63-2,7.06-.66,8.24-2.71,0,.07-2-3-2.41-3.37-.84,1-6.91.17-7,.07-2.12-1.45.25-4.6-3.21-5.77.65-.58,4.12-2.7,3.6-3.9-.45-.25-.83.1-1.4.2.57-1.54-2.2-16.14-2.36-16.22.85.47-15.55,9.7-16.67,11.13-1.66-1.95-6.9-13.51.18-13.51H377c.3.09-6.15-1-7.07-1,.55-.29,2.24-.76,2.33-1.58.52-5.16-27.39-5.37-21.67.77-6.27,2.26-1.91,6.29-6.26,8.36-9.88,4.71.33,14.21-12.93,20.37-6.93,3.13-9.08,2-10,9-.54,4.5-2.69,7.26-5.17,10.84.23-2.92-3.89-.57-5.67-.44,1.18-1.67-.31-3.5-2.07-3.83,1.39-.62-1.34-4.85,2-7.11,7.15-4.62-.46-11.16-7.59-7.65.63-.86-5.7-5.53-7.43-6.91-4.27-3.57-8.2-1.92-13.28-1.92.38-.52,3.78-7.39,3.24-7.93-2.47-2.48-8.08.21-.7-6,1.58-1.3,9-9.25,11.24-8.3,1.69.62,6.89-4.59,9.08-4.05,1,.28,6.35-1.39,5.14-3.38-1.42-2.34-6.47-.24-8-2.78,5.5,1.79,9.18,3.7,13.26-.76,1.43,3.9,14.06-2.18,14.58-4.37a2,2,0,0,0-.89-.75c2,0,4.54-2,6.52-2.6-4.27,4-8.38,8.15-12.27,11,.76,0,4.85-1.23,5-.44a4.89,4.89,0,0,0-.89,2.45c4.4,3.33,10.57-9.49,11.45-2.49,7.51,2.06,10,.92,4.48-2.51,2-1.41-4.63-8.75-4.84-8.75-.82,0-.54,3.21-1.91,3.57a3.65,3.65,0,0,0-.26-4.69c4.55-.66,3.65,4,7,4,1.84,0-1.1-3-1.33-3.19.62-.63,2.7,1.59,2.46-1.28,1.79,3,13.53-4.19,11.59-5.55-.52-.38,5-4.89,3.3-7.87-.21-.36,18,1,14.3-4.17,1.44,0,1.11,2.55,3.17,1.86-.09.12-1.39,1.49-1.25,1.81s4.7,1.31,4.57,1.4a2.14,2.14,0,0,1-.22.84c-1.11.49-4.37-.76-4.18,1.68.12,1.62,3.35-.09,4-.09-2.65,2.69,1.69.89,2.52.54,0,.64-.37,1.53-.08,2.18-.8,0-3.11-.32-2.75,1.49.21,1.06,6.94,1.77,3.84-1.84a2.27,2.27,0,0,0,.43-.83c.69,1.32.71.58,2,1-1.45,6.37-9.63,6.1-9.78,11.42-3.78,2.29-17.38-2.19-18.72,4.25-1,4.78,14.34-.37,13.89-.37,1.7,0,2.15,4.36,2.73,5.55s2.17,1.06,1.91,3.3c.08-.8,14.52,5.1,16.35,5.1,3.71,0-4.61-8.41-4.77-9,1.7-.06,8.84,3.52,9.29,5.18,1.5,5.73,3.85-5.19,3.1-4.88l.24-.11c3,5.09.89-2.39.84-3.27a.61.61,0,0,1,.21-.24c.59.28.72,1,1.55,1,1,0-5.62-7.66-6.3-7.39,2.34-7.61,10.13,4.69,12.87,3.6,4-1.57,7.2-5,12-7.48-1.31-.93-17.39-8.67-17.39-8.85-.18-1.81,7.65-1.59,7.72-2.91,0-.47-2.89-.8-3.58-1.1a1.28,1.28,0,0,0,.1-.57c.73.06,2.41.87,3-.14,1.49-2.75-3.51-2-4.42-1.55.16-.46,2.7-1.54,2.27-2.44-1.35-2.87-11.72-4.9-13.7-2.34.36-5.79-3.67-3.35-5.5-6.15,1.26-6.06-2-.86-8-4.71-2.76-1.74-2,3.22-1.92,3-1.66,3.69,6.6.8,7.16,1.24.38.38-12.11,3-12.11,2.92,0-1.06,4.27-4,4.15-6.08-.08-2.53-20.77,2.38-21.59,6.84-.24,1.26,3.09.66,3,1.72-11.81,2.16,7.18-10.44,7.45-9.41-1.1-3.83-22.55,3.76-23.94,8.16-1.73,5.23.87.55,5.64,3.36-22.18,2.4,10.88,4.9,10.84,4.44.16,2-6.21.54-7,.56-4.77.15-2.84,4-2.68,3.93-.6.84-8.39,4.22-9.32,4.5-.31,0,1.35-1.35,1.19-1.72-.66-1.65-6.14,3.12-2.73,2.84-5,4.15-6.81-2.59-3-2.25,5.23.72-3.16-12.08-6.41-.19-.47-.81.32-4.14.74-4.36s3.55,2.11,3.8-.19c.4-3.4-6.72-1.49-7-1.83,2.25-1.63,9.3-6.31,2.58-9.24,4.63-2.92,19.21-2.83,21.79-7.8.48-.91-18.28-3.89-15.78.37-3.76-1.33-11.17,8.45-12.26,9.46.77-.73-9.34,3.67-3.93,3.35-.73.32-3.95.5-4.33,1.37-1.09,2.44,5.7,3.41,6.27,3.73-.73.28-6.06,1.3-6,2.44a2.56,2.56,0,0,0,2.09.55.4.4,0,0,0,0,.54c-3.16,1.59-9.89,5.39-11.25,5,.27-.75,4.06-3.57,4.08-3.55-.07-.67-3.55,0-4.09-.89,0,0,10.14-3.09,10.68-4.11,1.27-2.56-17.27-1.33-16.46,2.08.42,1.58,3.46-.23,4.24.6-1.64.5-6.31,2.85-4.84,4.28-6.39-.45-13.46.41-19-1.62,4.1-1.33.17-1.68-.79-2.76.24,0-11.59-.8-12.51,1.68-.47,1.37,2,1.59,2.66,1.81-.05.07-3.58,4.71-3.5,4.64-.14,0-1.36-.29-1.41-.46a2.66,2.66,0,0,0-2.73-3.56c.28-.32,2.9-1.25,2.88-1.41,0-.36-18.14,3.32-20.92,1.24,0,0,15.15-4.88,1.68-4.89-3.07,0-9-.76-11.62-2.82-4.39-3.53-7.76,1.57-11.82.92.74-.44,3.56-2,3.39-2.79-.65-3.16-8.65,4.58-9.83,2.51-1-.59,3.38-5.09-.64-5.1.34,0-5.86,5.56-7,3.48.33-.15,2-1.15,1.93-1.48s-30.7,3.13-28,5.71c-5.48.82-5.59-1.35-7-3.29-1.87-2.69-16.4-1.53-20.95-2.3-3.36-.57-13.84-.11-15.64-1.51,3.34-2.09-7-2-8.94-2,0,.82,1.41-1.23,1.44-1-.09-.76-54.76,8.81-54.38,12.71.07.84,6.54,2,2.32,4.33-1.89,1.15,2.75,2,4.16.85,0,4.36-8.3,4.75-10.37,4.14.38-.28,2.63-1.62,2.56-2.17,0-.06-21.37,2.93-21.42,4.91,0,1.08,3.22,1.11,3.74,1.07-.45.07-4.54,1.78-4.43,3,.31,3.22,21.34.43,21-1.32-8.78,4-15.35,7.37-24.38,8.72-2.18.31-19.36,7.39-13.95,10-11.49,9.31,5.84,1.06,8.23.91-1.44.72-11.24,8.35-11.57,9.34-1.17,3.66,9.56-1.72,8.6-1.64.16,1.12.6,3.36,1.7,1.41,0,3.91,3.48-.67,5.74-1.72A9.61,9.61,0,0,0,48,101.35c0,1.24,3.89-.12,4.61-.35-2.93,1.75-26.27,10.29-27.63,13.13C24.22,115.59.19,118,0,121.55c-.07,2,26.45-6.31,26.44-6.31,1.65,0,10-.59,12.17-4.27,2.3,1.49,17.14-4.8,21.24-6.24-17.11,14,9.42,1,10.09-1.22.16-.51-.64-.83-.93-1,.29-.15,1.5.13.7-.71s-8.81,2.63-9.65,2.85c1-.61,8.28-3.45,8.38-3.91A22.21,22.21,0,0,0,66.69,99c7.48-2.36,12.6-6.59,19-8-1.12.89-9.23,5.17-7.8,6.28-.93.11-3.55.43-3.87,1.41-.08.26,16.59-1.49,18-3.4,0,5.13,10.35-7.73,10.35-4.22,0,.83-4.65,2.31-3.78,3.9.38.76,4-2,4.79-2.39,0,.48-.79,1.27-.57,1.68s2.4.12,3.07.46c-1.18.42-1.14,1.25-1.35,2.25,5.79-2.74,11.81,1.83,15.75-.14-.86,2.41.51,2.07,2.9,3.26.44.62-1.55,4.38,1.81,3.26-.31,1-3.77,6.28-3,7.15.29.32,1.23-.54,1.24-.54-.76,1-2.48,5.83.1,3.86-.88,1.09-2,6.17-1.07,7.51.78,1.09,2.39-1.89,2.52-2.09-1.07,4.56,6.27-5.84,4.44-5.84.29.09-.66,7.5-.82,8.57,0-.85,1,.34,1.54.49-2.16,2.15-1.93,14.34-2.4,14.52-1.69,2.14,0,2.37,1.85,2.08-.09,0,.41,1.17.18,1.44-1.44,1.54-5-4.79-7.24-.55-1.14,2.07,2.09,3.39,2.36,4.41,2.16,6.95,3.93,5,1.41,12.94-2.28,8.91-11.21,15.57-15.75,22.84-2.55.58-4.72,12.91-5.43,14.27-2.44,4.93.35,6.24,0,10-.1,1,0,17.23,1.08,17.23,4.47,0,6.85,3.38,10.18,5.67,1.71,1.22.11,13,.34,14.49.51,3.28,2.41,4.43,4.3,7.55,0,6.17-.64,2.45-4.12,5-.26-.23,1.58-2.08-.08-2.08-4.47,0,6.43,11.42,6.86,8.9-.13.83,6.19,10.31,2.11,10.92,4.36,0,5.17,6.64,6.67,8.59s7.05-7.39,0-7.4c-1.07,0-2-13.58-2.73-15-2.41-4.4-6.66-12.41-6.12-17.33.88-8.31,2.47-1.2,5.13-4.64.42,2.14-.35,1.58,1.71,1.37-.17,1.28-1.12,13-1,13.16s5.52,3.09,7.24,4.22c-1.64-1.08,4.33,7.37,3.69,6.26,1,1.57-3.32,3.69-.79,5.15,1.76,1.07,3.59,2.18,4.2,4.28.69,2.35,4,6.74,5.55,9,4.58,6.77-.27,10.19.73,15.11.95,4.74,7.71,9.54,12.14,10.11s11.38,7.44,16.19,9.14c7,2.58,7.88,1,15.37.37,5.67.46,9.31,9.9,12.8,9.77s13.31,4.58,18.12,4.58c-1.73,0,7.38,11.86,7.08,11.74.11,2-2.07,7.94,2.52,7.94a17.87,17.87,0,0,0,1.1-2.54c4.34,0,5,11.31,8.83,11.31.17,0,3-5.17,5.49-1.33,1,1.94-2,1.49-2.12,1.7-.3.45.83,2.22,1.1,2.22.84,0,13-.81,5.95-4.89,1.89-1.06,6.11-6,7.84-2.66.79,1.52,5.63,10.47,5.2,11.38-1.43,3,1.12,6.08-.45,10.25-1.77,4.5-.57.22.91,4.07,1.51,3.53-11.28,8.26-7.62,12.22-7.38,3.33-3.39,5.57-7.4,9.82-3,3.21-1.3,14.07,2.58,9.11-.92,7.38-7.81,8.5-3.62,15.35,2.45,4.16-5.95,1.41,2.63,5.83,3.29,1.7,2.91,5.46,5.65,7.57,4.46,3.42,4.7,12.47,7.87,16.59,7.07,9,8.43,18.58,19.05,24.8,9.24,5.27,17.53,8.66,18.66,20.12,1.49,15.94.16,28.9.86,44.8.27,4.54,2.08,19.26,4.58,22.72.67.88-.7,18.6-1,18.79-.3,0-2.22,0-2.4.37.1-.19,7.94,22.83,8.73,23.24-.46.12-1.32-.83-1.65-.42-2,2.38,4.51,12.32,4.74,7.08,0,.27-3-8.19-.58-7.66,2.14.41,5.25,13.76,3.3,15.13-1.28,0-1.75-3.46-3.29-3.46,1.36,0-.63,15.56.39,15.56.49,0,.82-1.44,1.06-1.86.84,2,5.55,1.18,5.55-1.23.76,1.06,2.44,4.38,1.68,5.64a19.6,19.6,0,0,0-2.8-1c-5.58,0,6,24.31,8,24.31a2.65,2.65,0,0,0,1.31-1.78c0,.57-.32,2.18,0,2.59,1-.1,4.24-1.47,4.13,1.51-7.62-.79,1.25,3.07,1.68,1.91.62,2.75,11.47,8.55,12.66,6.53.16,1.63,2.94,3.52,4.11,1.68.28,1.33,11.21,4.7,11.43,4.25a6.16,6.16,0,0,0-.52-1.57c.55.61,3.76,4.61,4.62,2.46.24-.72-1.94-1.57-2.32-2,0-.08,0-.17,0-.26.69,0,3.61-1,3.52-.65,10.88-1.19-11.25-10.34-13.34-12.39-2.67-2.63-11-10.18-4.79-12.48-3,1.09,4.63-12,4.68-11.63-.21-1.75-17.45-13.11-7-13.1,4.32,0,2.81-5.73,1.18-7.88-1.28-1.63,2.53-2,2.6-2.8.08-1-3.62-1.06-3.2-2.06,1.46-3,3.23,1.39,3.78,1.78,2.18,1.55,2.08-3.49,1.19-4.45-1.48-1.61-2.63,1.32-4.13.41-1-.58-6-5.46-4.37-6.94.86-.78,11.71,6.35,11.72-.31,0-2.12-3.63-7.44-3.3-9.41-.45,2.41,17.07-1.85,18.93-5.73,0-1.43,4.64-6.43.86-7.67-.16,0-8.8-9.7-8.8-9.74,0,.35,13.26,3.85,14.8,3.74,6.65-.44,10.22-15,9-17.31-.35-.63,3.54-7.93,5.26-6.95.64.78-3.55,6.44-1.61,6.44s9.83-20.39,9.31-21.2c-5.61-8.81,3.35-16.82,10.64-16.82-1.69,0,2.44-3.26,2.85-3.61,3.27-2.71,5.18-1.74,9.71-1.73,3.46,0,11.42-15.65,10.52-19.8s1.84-11.63,2.74-16.1c.06-3.58-2.64-10.82-.63-14.12,5.88-9.63,27.6-29.88,13.21-41.61ZM393.11,126.11c2-1,3.17-1.64,4.85-1.56-1,1.63-4.71,1.5-4.85,1.56C393.89,125.75,393,126.15,393.11,126.11ZM377.22,78.9c-2.56,2.18,1.46-2.06,0,0C377.2,78.91,377.27,78.82,377.22,78.9Zm3.11-23.35c2-.51.88-.55,0,0Zm-18-14.49c1.54.23,0,0,0,0C362.6,41.1,362.34,41.06,362.35,41.06ZM320,55.13Zm-1.5,13.27c3.58-.41,4.76.74,7.67,2.22-2.93.09-6.54-2.35-7.67-2.22C318.85,68.37,318.19,68.44,318.51,68.4Zm-15.7-8.64c3.22,1.41-1.09.44,0,0Zm-22.28-2.4c0-.61.08-.61,0,0Zm-53,186c1-1.21.95.12,2.29.66-.42,0-2.46-.49-2.29-.66S227.48,243.37,227.5,243.35ZM84.57,66c-3.67-.14,1.79-.95,2.89-.52a6.3,6.3,0,0,1-2.89.52Zm6.06,24.13c-1.17.22-2.3.87-3.53.56,1.17-.47,5.4-1,3.53-.56C90,90.23,91.14,90,90.63,90.12Zm34.11,22.28c.76-1.35,2.31-2.94,0,0C124.79,112.32,125.13,111.91,124.74,112.4Zm5.87,6.1a13.23,13.23,0,0,1-1.41,2.2,15.58,15.58,0,0,1,1.41-2.2C130.29,119.06,130.63,118.48,130.61,118.5ZM235.94,339.57c-.57.4-3-.86-4-.41.63-.36.11-3-.54-3,1.35-2.16,5,3.09,4.55,3.44S236.11,339.44,235.94,339.57ZM296.89,349c-4.19,5.69-2.33-4.62-2-6.08.14,1.79,3.54,3.94,2,6.08C296.33,349.75,297.27,348.48,296.89,349Zm26.62,276c.7-.88-1.65,2.13,0,0C323.59,624.88,323.43,625.06,323.51,625Zm1.15,5.29a4.3,4.3,0,0,1-.89-2.93c-.32.73.89,2.15.89,2.93C324.49,630.11,324.66,630.21,324.66,630.25Zm.59.63c-.34-.36,1.42,1.72,0,0Z"/><path class="cls-3" d="M313.14,139l-.06-.35A1.7,1.7,0,0,1,313.14,139Z"/><path class="cls-3" d="M334.46,659c-.21.77.13-.38,0,0C334.44,659.08,334.48,658.93,334.46,659Z"/><path class="cls-3" d="M342.63,342.5c-1.87-.38-3-.18-4.58,2.91C341.79,347.17,341.88,345.29,342.63,342.5Z"/><path class="cls-3" d="M330.21,340.06c-.18-.86-3.12,0-3.54.82-.66,1.3,4.5,2.11,3.54-.82C330.15,339.79,330.21,340.09,330.21,340.06Z"/><path class="cls-3" d="M371,162.15c3.16-2.45-6-4.34-5.6-4.34-4.8,0-.55,4.18.33,4.84C369.31,165.16,368.85,162.15,371,162.15Z"/><path class="cls-3" d="M377.89,148.74c3.37,0-7-8.37-8.93-5C367.78,146,376.22,148.74,377.89,148.74Z"/><path class="cls-3" d="M381.21,92.09c-.52.23-2.7,1.67-2.46,2.37C379.76,97.53,383.74,91,381.21,92.09Z"/><path class="cls-3" d="M357.7,79.81c.35.06,1.92.73,2.23.21,2.37-3.76-6.93-1-2.23-.21Z"/><path class="cls-3" d="M355.2,79.13c-.91-.39-2.4-.77-2.78.49-1,3.33,5.9,1,2.78-.49C354.93,79,356,79.48,355.2,79.13Z"/><path class="cls-3" d="M356.8,77.67c4.91-1.55-3.17,1.09,0,0Z"/><path class="cls-3" d="M365.41,82.06c-4.67,0,2.87,0,0,0Z"/><path class="cls-3" d="M346.29,84.23c-1.9-2.06-7.22,2.41-4,4.58.57.38,5.36-3.07,4-4.58C345.89,83.8,346.39,84.34,346.29,84.23Z"/><path class="cls-3" d="M338.42,81c-2.61-.81-4.62,1.69-6.73,2.08-8.7,1.41,16.23,1,6.73-2.08C337.74,80.77,338.62,81.05,338.42,81Z"/><path class="cls-3" d="M313.62,128.64c-.29-2.37-5.55-1-5.26.36.23,1.1,5.59,2.93,5.26-.36C313.57,128.27,313.63,128.72,313.62,128.64Z"/><path class="cls-3" d="M372.93,58.26c-9.68,8.62,8.2,3.79,6.52-.54-.57-1.46-5.77-.17-6.52.54C372.77,58.39,373.35,57.85,372.93,58.26Z"/><path class="cls-3" d="M366.07,57.62c-3-.65,5.06,3.56,1.23-.15.62.12,2.79.32,2.13-1.12C369.08,55.55,366.36,57.25,366.07,57.62Z"/><path class="cls-3" d="M374,51.05c-.86,0-7.49,4.28-6.73,5C368.77,57.39,375.86,51.05,374,51.05Z"/><path class="cls-3" d="M377.45,52.63c-.84-1.15-2.43,1-2.61,1.6.73.29,3.64-.21,2.61-1.6C377.34,52.5,377.53,52.76,377.45,52.63Z"/><path class="cls-3" d="M32.72,82.12c-.15-.33,7.27-.74,6.36-2.56-1.34-2.65-7.4.26-6.36,2.56C32.75,82.17,32.63,81.91,32.72,82.12Z"/><path class="cls-3" d="M24.48,96.26c1.94,1.79,8.08-1.79,6.88-3.18-.91-1.07-10,.28-6.88,3.18C25,96.73,24.23,96,24.48,96.26Z"/><path class="cls-3" d="M53.47,111.33c-.74-.52-5.53-.42-4.43,1.13.19.3,5.51-.34,4.43-1.13C52.84,110.88,53.64,111.46,53.47,111.33Z"/><path class="cls-3" d="M117.34,124.71c-1,.89-2,9.42.53,9.42-.26,0,5.69-12.59,6.79-11.08-1.16-1.37-6.61-.82-7.32,1.66C117.2,124.84,117.35,124.68,117.34,124.71Z"/><path class="cls-3" d="M398.92,657.7c-4.68-1-2.92-1.12-6.45,1.37.75-3.16-4-4.44-5.24-1.88-.47.88,1.5,1.53,2,1.89-.26.18-.67.67-.94.67-.7,0-1.14-1.27-2-1.27-1,0,2.19,8.25,5.38,1.87-1.53,6.42,8.78-2.4,7.26-2.65Z"/><path class="cls-3" d="M279.55,295.54s9.64-.43,9.4-1.78c-.4-2.21-6.66-1.71-7.29-2.79.47,0,1.35-1,1-1.6-2.16-3.49-17.48-9.06-21.39-10.47-7.44-2.7-14.56,3.16-19.92,6.86,3.89.75,9.92-5.7,14.89-3.46-.15.66-1.91.53-1.67,1.26A116.32,116.32,0,0,0,266.15,287c1,0,9,6.1,9,6-.09-.5-3.54,3.15-3.19,2.88,2.33,0,5.43-.81,7.61-.29Z"/><path class="cls-3" d="M251.18,284.72c-.65,0-2.38,2.28-1.82,3.18C250.7,290.12,254.22,284.72,251.18,284.72Z"/><path class="cls-3" d="M275.88,272.41c.57-.71.25-4.86-1.65-3.9-1.26.61-2.42,5.25.51,4.46-.51.56-.35,3,.71,3,3-.51-.29-2.74.43-3.59Z"/><path class="cls-3" d="M291.6,290.56c-.42,0,2.42-.6,2.39-1.29C293.91,286.55,289.6,290.56,291.6,290.56Z"/><path class="cls-3" d="M276.84,303.55c-1.61-.39-9-3.92-8.38.89.81,5.19,12-.12,8.38-.89Z"/><path class="cls-3" d="M301.44,304.14c1-.76,7.35-1.28,8.82.08,3,2.65,4-6.46-.91-5.13-1.09.26-3.21-4.27-7.41-3.58-3.26.61-7.84,0-10.83.16.16.57,2.73,6.27,1.23,6.27.69,0,1.69-.56,1.74-1.28a2.52,2.52,0,0,1,1.08,1.32c-6.81,2.15-13.72-2.09-3.86,2,5.72,2.1,6.55,2.73,10.14.11Z"/><path class="cls-3" d="M317.7,305.81c2.14,2.93,8.13-3.16,7.12-3.16-1.18,0-10.28-1.06-7.12,3.16C317.85,306,317.43,305.46,317.7,305.81Z"/><path class="cls-3" d="M335.89,304.06c-1.36.38-1.51,2.28-.1,2.28.38-.26,2.49-3.27.1-2.28C335.44,304.18,336.29,303.89,335.89,304.06Z"/><path class="cls-3" d="M340.76,309.59c1.12-2.3-.93,2,0,0C340.91,309.29,340.61,309.92,340.76,309.59Z"/><path class="cls-3" d="M343.61,312.88c-1.94-2.28-2.92,2.7-2.34,3.69.35,0,2.51-3.48,2.34-3.69Z"/><path class="cls-3" d="M341.33,320c-1,1.82,3.59-1.58,1.89-2.73C340.81,315.75,342.46,320,341.33,320Z"/><path class="cls-3" d="M344.52,323.38c1-1.46-1.86-3.59-2.51-2.33-.36.7,1.55,3.77,2.51,2.33C344.74,323,344.38,323.58,344.52,323.38Z"/><path class="cls-3" d="M343.47,327c.88-1.48,1.27-2.22-.36-1.94-.29.94-2.18,5.45-1.1,5.45,0,0,1.27-3.1,1.46-3.51C343.51,327,343.45,327.09,343.47,327Z"/><path class="cls-3" d="M339.93,336.26c.59-1,1.47-1.11.29-2.08C338.56,335.35,339.93,336,339.93,336.26Z"/><path class="cls-3" d="M339.49,234.54c.5-.49,3.93-3.45,3.2-4.67-1.11-2-7.62,3.92-6.58,5.49.78,1.18,2.83-.3,3.38-.82Z"/><path class="cls-3" d="M376.7,154.5c-.95-1.19-3.48,2.42-3,3.06a1.17,1.17,0,0,0,.94.48c.7,0,2.73-2.82,2.09-3.54C376.58,154.35,376.76,154.57,376.7,154.5Z"/><path class="cls-3" d="M410.23,158c1.94-2,2.22-4-.48-2.84a2.9,2.9,0,0,0,1.57-2.32c-.64-1.26-2.23.68-2.68,1.12.35-.65,4-3.47,2.86-4.22s-3.53,3.08-3.86,2.21c0-.46,5.81-7.55,1.77-7.56a2.54,2.54,0,0,0-1,1.9c-1.77-.13-1.77.63-3.66.63,1.92,0-2.61-1.87-2.25-1.65.29-.64,2.73-1.29,2-2.21-.93-1.14-4.21.74-5,1.11.56-2.51,7.45-4.43,5.85-7,.66-.27,2.39,0,2.39-1,0-1.53-20.85,13-20.85,14.75a1.39,1.39,0,0,0,1.39.59c-4.34,0-4.32,4.71,1.32,4.17,1.71-.12,7.72-1.11,8.79-.67,1.29.76-.05,1.89,2.4.95-.4.41-3.41,2-3.44,2.2-.54,3.77,8.62-3.38,8.54-3.38,0,.91-2.06,4.4-1.95,4.54.61.73,2.16-1,2.59-1.25a10.5,10.5,0,0,0-.87,2.51c1,2,4-2,4.57-2.55C410.39,157.84,410,158.18,410.23,158Z"/><path class="cls-3" d="M396.59,158c.07-.08-2.75.4-1.28,1.72C396.64,160.74,396.26,158.5,396.59,158Z"/><path class="cls-3" d="M394.2,87.4Z"/><path class="cls-3" d="M345.32,23.63c3.11,1.95,5.54,1.59,8.94,1.93-1.07.78-4.64,3.51-4.22,5.74.14.72,9.09,1.13,10.52-.77-.11,1.69-.76,1.14-1.59,1.75.52.18.59.33.21.46,10.67.8,22,1,31.49-3.58-5.94-6-20-1.24-27.58-2.17,2.69-4.6,6.86-1.15,11.23-3.16-.59,2.17,13.15.45,14.85.54a4.78,4.78,0,0,0-.81,1.87c4.9-.74,10.32-.24,13.67-4.42h-2.67C404,19.77,408,20.69,412.41,19c3.59-1.34,7.07-5.67,10.57-5.66,9.09,0,26.25-3.14,34.08-7.44,0-.18-1.51,0-1.09-.53a31.2,31.2,0,0,0,13.31-1.34c-10.93-5.88-28.19-2.65-40.87-2.65-15.24,0-31.45,1-46.71,4.34C385.91,9,388,8.58,393.87,9.67c-.61.26-5.69,1.8-5.83,1.48a3.38,3.38,0,0,1,1-1.31c-5.41.59-8.48-3.21-14.5-3.34-3.62-.08-18.19,5-9.91,7.64a9,9,0,0,1-1.68,1.09c2.8,3.05,19.67,2.19,19.38,4.32-4.3,1.16-17.22.69-19.54,4.78C358.62,22.9,347.68,19.14,345.32,23.63ZM401.46,9.09c-.24-.29,1.61,3.16,1.85,2.75s-5.76-2.06-6.24-2.24Z"/><path class="cls-3" d="M365.63,22.18c1.2-.76,2.65-.71,3.82-2-4.31-.46-3.11-.44-6.6,2.27A5,5,0,0,1,365.63,22.18Z"/><path class="cls-3" d="M351.88,20.7c2.95.39,5.18.58,7.63-.82-1.32,0-2.72-.58-4.09-.59.31-.21,3.06-1.12,3.09-2C358.62,14.46,343,13.75,351.88,20.7Z"/><path class="cls-3" d="M354.29,12.85c1-1,1.82-.17,2.53-1.81-4.16-1.2-2.21-.9-5.59.34C353,11.15,353,12.85,354.29,12.85Z"/><path class="cls-3" d="M333.69,16.66c2.09,1.61,9.49,4.33,12.09,1.39,1.33-5.23-12.35-6.89-13.82-2C332.67,15.59,334.52,14.75,333.69,16.66Z"/><path class="cls-3" d="M325.49,22.2c-.74-3.08-.68-5.22-3.33-.51A5.25,5.25,0,0,1,325.49,22.2Z"/><path class="cls-3" d="M320.73,26.9c2.93,1.17,4.46.33,5.43,3.11,3.48.56,13.14.08,14.25-4.67,1.39-4.4-9.59-2.84-9.07.08-1.2-1.11-5.47-2.56-4.74,1-1.87,0-5-7.27-7.55-1.06A2,2,0,0,0,320.73,26.9Z"/><path class="cls-3" d="M338.05,29.27c-4.27,2.35,11.65,4.45,9.82-1-1.62-4.57-9.92,1-9.82,1C337.86,29.36,338.42,29.06,338.05,29.27Z"/><path class="cls-3" d="M316.7,35.12c.23.3-2.08,2.25,1.56,2.25C316,38.7,301,40.92,312,40.93c-5.17,0,10.65,6.16,5.41,1.67a7,7,0,0,0,.64-.35c2.32,4.26,11.71-2.62,10.7-4.57-.42-.84-2.32.82-2.5,1.3-.78-.11.13-1.39-1.36-1.39,2.36-3.61,4.12.78,5.18-4.77C325.94,33.82,319.62,32.09,316.7,35.12Zm-3.43,9.51Z"/><path class="cls-3" d="M231.57,43.08c6,0,1.81.56,3.19,3.27.9,1.81,20.56-5.56,22.94-6.63-.77.46-6.55,2.78-6.24,3.94.17.6,2.06.46,2.55.44-.56.67-3.56,1.4-4.46,1.5-1.82,2.84,15.36,2,16.95,3.22-4.62,0-12.29,1.83-16.61.8-4.08-1.06,1.51,3.65,6.63,3.65,0,.23-3.51,4.67-.51,4s6.5-.52,9.54-.73c4.45-.25,8.24-1.73,12.43-1.88,1.92-.07,8.18-.45,9.86,1.29,2.92,2.92,9.58-4,7.42-3.65a3,3,0,0,0,1.54-1.14c.83,1.44,5.45,2.4,5.24-1.17-.06-.85-12.12-5.12-4.18-5.12-3.78,0,10.08-11.53,10-9.29.05-1.15-8.63-1.88-9.34-.28-.18.37.93,1.45,1.05,1.9-6.47.52-5.17,2-12.82,6.22.28-2.23,3.89-6.24-2.15-6.25,1,0-2.36,3.29-5,2.85,0,0,1.48-.81,1.57-.54,1.36-3-5.92-1.77-6.27-1.63.24-.27.87-1.06.57-1.5s-2.39-.06-3-.06c3.16-2-14.07-4.1-16.34-4.1C246.87,32.2,238.15,43.09,231.57,43.08Zm22.79,2c-1.19-.07,1.56.13,0,0Zm37.94,7h0S292.31,52.13,292.3,52.13Zm-33.19-13c1.5-.18-2.88.45,0,0Z"/><path class="cls-3" d="M294.26,55.3c-.08.1-2.69.78-2.57,1.44a1.61,1.61,0,0,0,.13.65C292.65,58.25,295.06,56.51,294.26,55.3Z"/><path class="cls-3" d="M300.19,54.05c-.42,0-4.3,1.16-3.69,2.46C297.46,58.53,301.5,54.06,300.19,54.05Z"/><path class="cls-3" d="M305.84,47.35c-.34,0-1.87.89-1.59,1.51C304.82,50.15,309.32,47.35,305.84,47.35Z"/><path class="cls-3" d="M313.73,30c.6.31,4.46-.32,4.13-1.71s-6.63.15-4.13,1.71Z"/><path class="cls-3" d="M263.6,26.42c-.32-1.5,5,1.47,4.11,1.46,2.15,0,5.33-4.24,8.28-1.92-.77.12-4.39.56-3.66,2,.66,1.29,8-2.43,7.85-2.66s-3.08.59-3.59.67a.71.71,0,0,0-.16-.4c1.27-.66,3.64-2.42,5-2-1.58.95-.32,2.31.47,3-1.32,0-6.85,1.09-7.21,2.09-1.28,3.21,12.38-.88,12.5-1-.23.66-.44,1.32-.61,2,.4,1,3.61-.45,4.08-.69,0,3.66-9.32-.49-10.11,2.11-.63,2,21.52-.5,23.39-.5,2.75,0,7.58-3.09,9.36-2.93,6.78.78-5.74-2.65-5.25-2.33,1.5-.59,2.05-2,2.78-2.81-1.09-.05-7.65.42-8,1.53-.17.44.8,1.24,1.07,1.57-.69.08-3.73.69-1.65,1.5-4.32.62-8.05-3.41-10.4-2,.26-1.7-1.39-1.5-3.22-1.59.59-.19,5.71-2.86,5.27-3.66-1.49-2.71-30.68,4.4-30.31,6.55C263.67,26.74,263.59,26.37,263.6,26.42Zm24-2.74Zm-1.77.54c1.59.06-2.41,1-2.76,1.07l2.76-1.07C286.14,24.24,284.19,24.17,285.88,24.22Z"/><path class="cls-3" d="M292.56,22.87c1.34,0,2,1.6,4.44-.12A3.69,3.69,0,0,0,292.56,22.87Z"/><path class="cls-3" d="M302.7,21c3.45.77,9.27-1,11.69-2.72,10.38-7.37-8.18.55-8.89-.87.26.54,3,.25,2.79.25C307.2,18,298.15,20,302.7,21Z"/><path class="cls-3" d="M540.59,56.83c5-2.33,11.3-4.14,15.46-6.93-4.17,0-9.23-.15-13.34-.46,3.68-1,4.51-.19,3.8-3.39-.48-2.4,9.46,5.13,9.28,2.57.23,2.93,8.24-3.35,2.24-5.51-4.5-1.55-5.84-3.45-8.36-5.87.38-.42,4.47-.47,5.29,0-7.75,5.17,7.53,5.59,6.18,1-.34-1.09-3.73-.84-4.46-1.66,4.4-1.36,6.81,2.45,10.05-2.13a3.88,3.88,0,0,1-1.78-.65c.68,0,8.32-.05,7.72-2.19-.19-.69-3.34-.64-3.89-1.11,7.32-3.13-.2-4.62.07-6.1a4.08,4.08,0,0,1-.16-.6c-1-4.25,8.45,2.59,6.1,2.59-1,0,4.88-6,2.17-6-1.16,0-4.06.88-4.91-.53.34,0,4,1.26,4-.13,0-5-7.66,0-8.21-.08,2.25-3.66,7-5,10.65-5.37-.85-.62-.61-1.13-2-1.13,0,.07,10.73-2.72,12.13-3.1-.56.43,11.78-4.48,11.72-4.54-2.1-2.1-16.67-1.41-18.31-1.41-1.07,0-.94,1.56-3,1.56,0-.1.24-2.82-1.59-1.83-.85.54.83,1.42.4,2a18.65,18.65,0,0,1-5.22.83c4.31-3.66-7.71-1-8.15-1.88,1.43-.09,11.8-1.07,11.8-1.93,0-4.85-32.83-.81-33.58-1,.29-.15,4.17-.73,3.95-1.59-.11-1.06-39.3.94-41.94.94-1.74,0,7.55,4.33,7.37,3.67-.91.21-17.05-3.2-16.39-1.26a3.61,3.61,0,0,0,2.85,1.52c-1.24.17-12,0-11.2.34,3.61-2.12-11.94-1.56-15-1-.88.16-13.24,2.38-13.23,2.36a3.68,3.68,0,0,0,1.05,1.49c-.59.13-16.57-1.21-15.88,2.22.35,1.75,5.7-.7,6.15.54,1.38,4.62-29.8,2.77-30,7,0,.52,6.44,2.2,7.3,2.6-2,0-6.43-1.2-6.89,1.06-.32,1.76,2.79,1.37,3.55,1.08-3.24,3.6,9,4.21,6.7,2.05,2.29.91,1.4,1,3.59-.26-1.38,3,2.52,1.76,3.86.27.48,1.1,15.91.65,16,2.45.18,3.09-.61-.23,1.7,3.45-1.73,1.68-3.73,3.17-2.41,5,.51.68,2,0,2.63-.11a8.87,8.87,0,0,0-2.08,1.88c.26,1.62,2.81-1.09,2.86-1.11-.19,1.78-5.67,2.29-4.34,4.11.38.55,2.39-1,2.33-1-.48.54-4.41,3.8-3.53,4.67,2.25,2.29,6.13.18,7.86-1.54-.59,2.79,1,4.8,4.56,4.05-.89,2.89-5.47.78-7.63,0,.28-.33,2.27-.74,1.55-1.57-.47-.51-6.87,1-4.24,3.57-5.23-1.3-4.88,6.66-1.18,5.73,5.55,2.42,7-1.75,3.59-4.85.86-.33,4,0,5,0,.71,0-1.66,6.3-2,6.76-3.63,0-15.3,2.38-13.48,7.52.29.77,2.21.42,2.86.46-1.91,2.5-2.65,8.88-.91,7.48-.53.88-2.12,7-.09,4.28-.07,3.27,1.77,14.51,5.05,16.51,1,.61,12.45-1,12.1,2.91-.27,5.08,9.23-6,9.87-6.72,3.18-3.69,13.7-11.81,12.44-16.33a84.62,84.62,0,0,0,10.38-3.43c.51-1.27,22.11-4.07,24.4-9.77.49-1.28-2.18-1.53-1.52-2.53C525,60.18,534.21,59.26,540.59,56.83ZM428.93,20.68c.4-.28,1.85-.12,0,0C429,20.66,429.25,20.66,428.93,20.68Z"/><path class="cls-3" d="M573.85,30.91c5.67,1.48,1.53-6,0,0Z"/><path class="cls-3" d="M575.92,15.83c-.25.11,3.12-.73,1.36-1.05-1.34-.22-2.46,1.46-1.36,1.05C576,15.79,575.86,15.86,575.92,15.83Z"/><path class="cls-3" d="M575.87,18.75c3.3,0,1.13-1.64-.17-2.23C575.68,16.89,575.6,18.75,575.87,18.75Z"/><path class="cls-3" d="M578.12,19.58c-.35,2.11,2.45.2,2.16-.52C579.67,17.56,578.5,19.62,578.12,19.58Z"/><path class="cls-3" d="M578.84,15.89Z"/><path class="cls-3" d="M579.79,16.36Z"/><path class="cls-3" d="M582.37,14.51c-.67-.88-1.32-.88-2,0C581.05,15.4,581.7,15.4,582.37,14.51Z"/><path class="cls-3" d="M573,75.68c5.51,2,10.52-8.28,2.66-8.28-.08.06,3-1,2.15-1.49-4.07-2.41-15.59,4.17-17.34,2.37-1.11-.06-1.85-1.14-3-1.08-.15.69-.4,1.68.09,2.31a2.93,2.93,0,0,0-.81.21c-.59-.44-2.16-1.51-2.38,1-.23-.47-.54-.92-.75-1.42.83-8.61-11.45,1.06-11.32,1.38.77,1.74,6.49-1.12,7.88-.09-3.86,3.27-10.85,2.8-1.23,2.81.1.74-.4,2.63,1,1.66-.63,1.32-4.34,1.72-3.25,3.21-.21-.29,11.69,1.56,13,1.63,2.79.17,10.92-5.26,13.3-4.27Z"/><path class="cls-3" d="M602.26,84.54c-.71.79-2.73.24-3.51,1.37a12.22,12.22,0,0,0,1.66,3.53c.56,0,3-6.25,1.85-4.9Z"/><path class="cls-3" d="M662.37,13.45c-.08.36,2,2.69,2.35,3.07-.42-.14-3.1-2.16-3.1-1.1,0,6.61,12.82-.11,13.91,1.38,0,0,0,.34,0,.42-1.88,2.67-8.72.55-2.66,4.14,1.58.95,8.68,5.43,8.69,1.35,0-1,4.47-5.06,5.19-5.23,5.73-1.22,3.38,1.73,4.5,3.7.28.47,4.45-.09,4.82-.74-.25-.29,6.94,3,7.28-1.17.09-1.05-13.09-2.57-13-5.24,3,.56,17.29,2,18.21-2.27.61-2.24-18.11-1.48-19.26-1.48-12.94,0-1.46,1.53-1.92,2.92s-14.41-4.83-9.85.49c1.25-.38-8.85-1.23-8-.79.68,0,1.66.29,2-.71-.08.28-8.54-1.72-9.15,1.26C662.27,13.91,662.4,13.3,662.37,13.45Zm25,1c.31-.26,2-.93,2.33-.71-.24.22-2.33,1.48-2.33.71Z"/><path class="cls-3" d="M707.54,15.42Z"/><path class="cls-3" d="M711.17,16.59c2.18-.34,3.44-.2,4.9-1.69C714.06,14.51,709.74,16.59,711.17,16.59Z"/><path class="cls-3" d="M721.68,11.35c.75,0,4.32.27,4.28-.91,0-.94-5.38.12-6,.22-.29,1.57.52.74,1.75.69Z"/><path class="cls-3" d="M709.36,11.54c3,.76-1.71-.55,0,0Z"/><path class="cls-3" d="M688.16,31.22Z"/><path class="cls-3" d="M705.33,23.13c-.89.64-1.38.9-1.09,2,.65-.38,1.91-2.57,1.09-2Z"/><path class="cls-3" d="M599,47.1c-1.47.21,6.54-2.05,3.29-2.05C602,45.05,598.89,47.28,599,47.1Z"/><path class="cls-3" d="M618.42,95.12c1.05,0,.78.28.1,1.29.28,1,4.64-3.6,3-4.76C619.74,90.31,617.5,95.11,618.42,95.12Z"/><path class="cls-3" d="M595.19,109.81c-.54,1,7.36-6.67,5.92-7.75-3.08-2.21-5.47,6.91-5.92,7.75C595.07,110,595.27,109.65,595.19,109.81Z"/><path class="cls-3" d="M603.32,105.5c-.85.62-2,0-1.46,2.08-1.71-1.72-2.12-.18-4.17,0,0,.26,1.78,5.7-.12,5.7,1.32,0,2-3,3.26-3.62a34.44,34.44,0,0,1-1.39,4.67c.77-.54,2.22-2.48,3-2.37-.15,1.52-4.58,3.33-4.08,4.34,1,1.58,2.88-1.65,3.26-1.7-.12.79-1.62,3-1.09,4s3.77-2.89,3.91-2.89c1.32,1-3.7,7.31,4.63,3.89,1,2.59-1.67,1.87,2,3.7-1.07,4.64-8.34,3.09-8.34,4.63a1.71,1.71,0,0,0,1.87.29c-.88,4.1-1.92,1.14,1.23,2.07-.61,1-4.76,4.21-4.55,4.82.46,1.38,7,1.6,8.82,1.29-2.77,2.32-9.4,2.5-11.78,6.26.26-.41,29.38-2.26,28.78-5.65-.1-.44-2.9-.92-3-.93,1.76-3,8.3-9.86-1.39-6.9,2.4-2.51-5-12.27-6.61-13.32-3.49-2.18-4-2.43-1.59-4.89,7.11-7.18-4.14-1.93-6-4.67.31.41,8.07-6.64,6.48-7.68-.76-.55-3.59-.32-4.15.35-.45.52.69,1.52,1,1.92-3.31,1.93-5.6,2.39-8.54,4.61C603.22,105.56,603.43,105.41,603.32,105.5Z"/><path class="cls-3" d="M598.14,131.2c.62-1,1.49-6.11.33-6.82,9-9-9-7.86-9.53-3.56-.11,1,2.12,1.08,2.12.4-1.66,2-7.22.64-7.14,2.35,0,.78-.33,4.59,1.72,4.48-13.44,7.88,8.28,10.6,12.5,3.15C598.2,131.09,598.06,131.32,598.14,131.2Zm-11.73-3.1c-1.52.09,2.94-.35,0,0Z"/><path class="cls-3" d="M603.65,123.89c.8.38,3.84-.37,2.77-1.72s-3.49,1.43-2.77,1.72C603.72,123.93,603.41,123.8,603.65,123.89Z"/><path class="cls-3" d="M571.07,106.55c0,2.14,0-2.16,0,0Z"/><path class="cls-3" d="M655.78,187.07c-.84,1.34-2.07,2.09-2.83.89-3.25,19.1,12.36,7,4-1,1,.34,1.88-8.25.51-8.25-6.53,0-1.33,7.86-1.64,8.38C655.66,187.25,655.89,186.88,655.78,187.07Z"/><path class="cls-3" d="M629.06,196.81c.73.06,6.05-1,3.33-2.24s-4.85,2.1-3.33,2.24Z"/><path class="cls-3" d="M635.88,194.82c1,.35-.22-1.82-1.78-1.79C633.6,194.77,634.56,194.32,635.88,194.82Z"/><path class="cls-3" d="M623.14,200c.79,0,2.83-1.34,1.82-2.35C624.48,197.06,621.49,200,623.14,200Z"/><path class="cls-3" d="M704.64,201.7c-4.12-.66,2.83.5,0,0Z"/><path class="cls-3" d="M713.93,206.2c5.41,1.62-9.52-9.35-10.67-1.68.2-1.31,7.54,6.53,7.54,4.42.87.29.6,2.64,1.63,2.4.65-.17.73-.87.65-1.37a8.33,8.33,0,0,0,2.35,1.53c-.26-1-1.44-5.28-1.5-5.3C714.5,206.37,713.79,206.17,713.93,206.2Z"/><path class="cls-3" d="M557.86,250.12c-.08,0,1.67-1.31,1.48-1.76-.7-2.34-4.78,5.46-4.74,6.25,1-1.33,1.86-3.85,3.26-4.49Z"/><path class="cls-3" d="M549.15,253.67c-2.17,1.48-1.26,4,0,0Z"/><path class="cls-3" d="M545.35,253.69c.14.49,1.76-2.26.54-2.26C543.62,251.42,542.09,255.34,545.35,253.69Z"/><path class="cls-3" d="M539.19,249.44c-1.63,0-1,3.57.6,3.57C540,252.64,540.65,249.44,539.19,249.44Z"/><path class="cls-3" d="M541.48,255c.47,0,1.55-1.4,1.17-1.95C541.66,251.57,539.89,255,541.48,255Z"/><path class="cls-3" d="M540.1,256.13c.91-1.74-2.35-1-2.82-.68.37.73,2.07,1.95,2.82.68Z"/><path class="cls-3" d="M544.07,231.57c.68.08,1.83.2,1.55-1.29-.41-2.05-4.23.88-1.55,1.29Z"/><path class="cls-3" d="M541.36,227.84c.81-.18,1.17-3.24.61-3.74-1-.95-4.62,4.58-.61,3.74C542.35,227.62,541,227.92,541.36,227.84Z"/><path class="cls-3" d="M512.58,205.21c0-2.24-1.38-.9-2.6-1.46C508.33,203,512.58,207.78,512.58,205.21Z"/><path class="cls-3" d="M505.44,200.23c-.44-1.34-.8-1.76-1.82-.18.25.27,2.21,1.34,1.82.18Z"/><path class="cls-3" d="M502.73,201.12c.43-1.41-5-.81-5.09-.81.4,1,4.26,3.77,5.09.81Z"/><path class="cls-3" d="M504.19,309.23c-.83-.21-1.17-.26-2.06-.5,2.18,5.41,2.23.53,2.06.5Z"/><path class="cls-3" d="M508.29,311.85c-2.67.8-2.28,1,.26,1C509.47,312.83,509,311.85,508.29,311.85Z"/><path class="cls-3" d="M514.41,314.27c-1.56-1.41-1.7,2-.08,2.05a1.27,1.27,0,0,0,.08-2.05C514.36,314.21,514.5,314.33,514.41,314.27Z"/><path class="cls-3" d="M513.41,312.83c0-.55,1-1.12.13-2.29C513.68,310.45,511.08,312.83,513.41,312.83Z"/><path class="cls-3" d="M511.54,320.53a3.53,3.53,0,0,0-2.24-2.23C509.35,320.36,512.12,323.83,511.54,320.53Z"/><path class="cls-3" d="M513.29,316.56c0-1.77-3.56,3.15-1.09,3.61,1.1.37,1.09-3.31,1.09-3.61Z"/><path class="cls-3" d="M507.37,320.46c-4.08-2.84,2.21,1.62,0,0Z"/><path class="cls-3" d="M858.16,332.86c-1.24-.63-3.6-.41-5-.27,2.67,4,4.72.16,5,.27C857.54,332.54,858.3,332.92,858.16,332.86Z"/><path class="cls-3" d="M1043.92,312.91a5,5,0,0,0,1.6-3.39c2.89,6.68,5.27,14.78,9.25,22.15,1.32,2.66,0,26.65.1,26.65.67,0,1.14-2.68,1.28-3.13,2.06,2.78,2,1.77,2.48,5.36a8.78,8.78,0,0,0,1.08-2c3.23,13,10.42,23.17,19.93,32.06,5.06,4.78,5.29,2.88,2.67-4.08-2.73-7.6-2.36-16.54-9.86-22-10.78-7.66-12.55-13.7-12-26.48a63.65,63.65,0,0,1,1-8.67c.59-4.59,4.68,4,4.28,4,6.31,0,7.81,10.33,10.86,10.33a1.23,1.23,0,0,0,.67-1.6c.66,1.62.74,2,2.51,1.62,0,.49-.58,2.16.37,2.16a2.82,2.82,0,0,0,1-1.44c.8.8,1.93,2.25,3.08,1.17.69,14.68,8,2.29,7.45.95-.8-2.31,7.47-3.79,9.28-5.9,5.52-6.41,1-17.89-3.27-23.81-8.11-10.65-18.79-13-11.21-25.95.1.07,10.86-3.6,12.86-3.6-1.43,0,.44,6.39.76,7-2-4.29,12.55-7.17,13.82-9.75,0,.69.72,3.06,1.44,3.06,2.43,0,25.16-17.8,24.53-20.43-1.13-4.35,0-5.56.93-11.27-.1.79,5.45-13,3.08-13-1.66.46-.64,1.17-1.42,1.76,1.17,0-6.79-3.44-5.57-1.53,10-1.56-2.18-11.71-4.4-15-2.6-3.8-8-5.41-9.93-8.68-.6-.87,6.57-10.31,7.35-9.64,3.17,2.39,3.78-3.3.76-3s-9.75-5.58-10.24.47c-.33,2.44-12.83-9-12-9,4,0,9.2-8.84,10.82-8.18,3.81,1.47,3.32,5.77,2.82,9.65.35-2.18,15-8,17,.05.25,1,4.26,11.15,7.08,5.15.63,2.5,3.28,4.18,3.74,6.46s1.38,10.08,2.69,12.07c.55,1.05,4-2.09,4.11-2.24,7.27.69,9.27-7.33,2.46-14.89-1.57-1.73-13-11.2-10.87-11.86,8.06-2.63.3-9.36,4.18-11.93.84,1.63,3.11-3.27,3.25-4.2,10.29,8.79,16.93-9.63,16.06-17.77-.48-4.75,1.95-8.6-.63-12.78-2.76-4.74-5.07-8.31-6.19-13.46,12.53,2,14.13,25.19,23.83,29.66.63-.7-.65-2.21-.61-3,1-.16,6,1.81,5.75,2.17s-11.31-13-12.06-15.45c1.68-.64,8,2.85,8.1,2.53.6-1.84-14.64-12.5-16.35-14.73-3.19-4.12-21.67-19.26-10.15-8.79-.7,1-2.15-.71-2.37.06-.64,2.08,3.25,3.79,3.09,6.4-2.08-2-16.37-16.06-19.11-10.25-1.79,3.88-4.84,0-5.46,1.16,1.83-3.62-2.68-5.46-2.74-5.26-.31,1.14,3.72,2.55,3,3.63s-4.31-3.52-4.47-3.52c-1.58,0,0,1.71.39,2-1,.75-4.75-.32-6-.61,7.91-9.7,4.58-21.27,18.89-21.26,3.84,0,8.55,1,11.46,1,.83,0,7.62-5.63,12.25-1.56a7,7,0,0,0-2.73,1.18c0,3.35,14.77-.79,14.77-.8.24-2.42-8.61-2.67-4.77-9,2.54-4.26,5.05-.07,8.68-1.71,4.75-1.87,6.28,8.18,13,.25.65-.78-3.8-3.43-4.37-4.12,4-.83,7,4.3,8.89,7.32-3.89-.78-3.72,5.92-3.72,8.4s-4.71,7.52-4.95,6.1c2.28,13.85,22,22.61,30.48,33.1-.9.44-3.68,3.59-3.32,4.16,2.22,3.61,4.81-10.45,2.59-14.26a7.63,7.63,0,0,1,5-.2c-8.18-4.88-2.53-4.53-.47-6.9,1.09-1.1-7.5-8.63-5.41-8.63,1.09,0,2.53,2.35,3.43.94.17-.29-17.24-14.5-18.18-17.31.39,1.13,5.65-1.83,6.51-2.77,5.93,5.41,2.59-2.3,8.56-.92,3,.19,6,3.22,8.65,3.22,2,0,5.53-13.36,15.66-11.52,8.32,1.34-16.46-10.3-16.67-10.62,9,1.76,4.17-2.91,1.14-6.24.64-1.27,1.59,1.07,1.91-.62,1.14,4.13,32.56,8.87,32.91,7.69.19-.62-5-4.06-5.6-4.48,11-7.24-19.34-7.29-19.08-7.95a13.46,13.46,0,0,0,3.61,2.54c-11.68-2.93-25.83-7.14-37.4-11.29-11.44-3.67-23.58-1.63-34.93-4.3,1,1.55,8.55,5,8.54,5.47-1.28,2.14-9.29-1.44-10.36-2,5.15,0-4.3-3.43-3.78-3.18,1.29.7-9.79,2.16-11.46,2.08-3.64-.21-8,.56-11.45-.09-6.73-1.32-11.27-6.06-18.84-6.06-18,0-31.14-4-47-5,0-.79,2.47-.31,2.71-.66-.17.26-17.63-2.76-17.89-1.59-.08.42,1.62,1.1,1.93,1.24-.59.16-4.57-.1-4.73.6-.3,1.5,3.31.86,4,.86,0,1.73,1.4,1.34,2.64,3-1,.06-4.52-1.71-5-.83-.19.42.7,1.1.88,1.3-2.46-1.53-8.21-1.64-10.84-.2-6,3.25-10.88-7.59-8.21,2.92-3.47-1-37-19.67-39.16-12.22-.35,1.13,3.49,2.67,4.09,3.54-5.19-1.56-11.06,0-16.31-2,2.05-2-18.16-1.38-16.87-.31-2.43-1.05-6.74-.83-8.4-2.21.88-.22,4.65-.18,4.65-1.68,0-1.19-6.11-2-6.18-.2a1.94,1.94,0,0,0,1.27.73c-1.13.74-5.34.19-5.28,1.74,0,1.36,2.75.66,3.5.63-.57,2.22-12.13.55-12.13,3.4,0-8,26.4-5.61,7.94-15-.43.28.35,1.16.44,1.25-7.24-1.37-13.58-2.37-20.21-.76,3.37-3-4.37-2.09-6.12-2.93,7.34-2.95-18.9-.31-10.93,2.4-2.82-.55-8.18,1.13-10.64,2.27-.2-.61,1-.26.73-1.25-.08-.33-8,0-8.87-.07-2.55,1.67-22,4-22.09,7.21,0,.65,6.92,1.08,7.91,1.49-3.07,1.92-17.77-.1-18.17,3.42-.22,2.47,12.17,5,12.16,5.87-1,1.12-13.35-1.94-15.56-3,.56-.29,3-.13,3.23-.58,1.29-2.74-7.05,1.69-7.52,2.31,2,.26,3.79-.06,5.46.78-1,.44-6.1-1-6.52.7-.49,2.19,7.62,2.3,8.41,2.9-3.75-2-8.14,1.3-10.46-2.8-.14-.23-3.2-7.77-4.5-4.25-.46,1.15,2.67,1.76,2.88,2.43,0,1.25-5.61,1.16-4.69,3.61a40.6,40.6,0,0,0,5.12,2.18c1.64.36.57,4.31,1.92,6,2.63,3.14,5.41,1,9.41,1.53-4,.31-8.59,4.69-2.47,4.69-2.76,0-3.49,11.67-13.26,6.53,2,0,12.64-4.43,7.37-7.18.32-.43,1.36-.86,1.29-1.43-.15-1.2-11.3-11.33-12.7-12.75,4.38-4.47-4.07-6.2-7.06-6.67,6-1.55-7.65.3-4.2.3,1.51,0-5.13,8.34-5.12,8.26s4.81,3.8,5.09,3.91c-2.28,2.46-.52.58-.21,3.61,2.86-.8,8.45.2,7.36,4.23-4.45-.87-26-12.16-29-6.25-.69-1-8.36-5.86-8.08-2,0,.33,9.4,4.43,10.68,4.72.06,1.63-4.79,2.77-4.62,2.34,1-2.35-1.25-1.75-2.81-3.87a13.33,13.33,0,0,0,1.15,1.83c-3.11-1.24-11.92,2.57-15.49,3.16-.62-3,1.53-1,1.53-2.87,0-2.42-8.46,1.75-6.55,2.35-3.1,1.26-21.33,9.66-22.73,4.25.64-1,4.21-1.57,5.06-1.65C779.91,58,769.12,55,769.77,57.23c.93,3.11,2.05.89,1.42,5.05.46-3.76,4.27,6.36,3.79,5.28-2.48-1.71-13.64-2.6-14.52,2.69-.14.79,3.74,2.31,3.2,3.49-1.31,2.05-14.95-3.76-13.46-.43,1.27,2.86,4.79,1.89,6.29,3.57C753,78.61,746.69,75.55,745,73c-2.44-2.21.71-3.62-2.17-5.31-2.53-1.52-3.85-1.18-6.35-3.14,6.18-1.92,30.25,10.32,27.56-3-.76-3.4-25.91-10.21-27.56-7.31,0-1.5-1.5-1.32-2.42-1.15,3.05-2.82-9.1-1.43-10.79-1.68.36-.14,4.87-1.48,4.74-2.17-.77-4-9.75-.62-10.12-.71-.21.34,1.89-2.12,1.84-1.95,1-3.45-6.74,2-6.37,1.9-.17-.21.58-2.27-.33-2.27-1.73,0-2.69,3.54-4.5,3.63.4-1,3.32-3.13,2.53-4-1.7-2-5.34,2.14-5.89,2.89.23-1.51-1.21-1.06-2.25-.68,1.24-2.79-5.83,0-5.78-.27,0,.22,2.44,1,2.85,1.91-4.58-.52-4.91.08-8.06,2.38.58-7.06-4.81.71-5.87,2.74-2.25-4.87-2.82-.21-3.89,1.4-.56-1.63-1.38-1.93-2.27-.3,0-.45.39-1.65,0-2,.55.58-4.5.16-3.74.16-.78,0-3.68,4.87-6.7,5.17a3,3,0,0,0,0,1.4c.71.88,6.07-2.21,7.4-2.46.19,6.74-13.07,12.14-14.2,14.85-1.24,3.08-3.13,5-7,5-.85,0-1.68.66-2.85.66-.58,0-.1,3-.57,3.92-2.6-1.38-6.43,2.22-9.75,2.21,0,0-.6,9.38-.32,10.39,1,3.07,2.23,2.76,3.45,4.51-5.8,6.5,13.89,6.34,16.29-1.21.72,2.28,9.77,14.84,6.72,14.84-5.73,0-3,4.28-2.65,6.27a2.84,2.84,0,0,0-2.1,1c-.29,2.58,9.2.07,4.33-1.85,3.51-2.46,5.83-1.25,9.51-4,.6-.17,4.86.18,5.36-1-.69,1.63,4.74-5.11,2.82-5.11-.67,0-1.24,1-1.55,1.43-1-9.57,6.64-6.19,7.92-12.33,3.35-5.14-8.33-3.23-6.65-9.19-.16-2.7,15.91-14.61,12.91-15.35,4.75-3.51,14.17-.5,13.59-.15-1,0-11.56,5.36-12.47,8.39-.92,3.26-1,12.75,4.09,12.54,2.94-1.47,21.33,1,26.95,1.67-5.09,1.2-27.72,1.8-28.31,7.9,0-.4,1.35,2.48,1.14,2.43,1.74-1.63,4.14-.92,4.48-3.71,1.12.69,3.18,2.65,4.24,1.49-1.94,12.34-2-.42-8,2.65-5.73,2.82-.9,8.66-3.63,12-1.72,2.15-25.63,5.76-25.54,6.15,2.08-6.18-9.79.68-11.85-.35,2.55-1.88.54-.52.91-2.52-10.35.37.1-15.3-2.2-15.3-10.41,0-9,15.74-6.87,14.67.24,1.34.35,1.59.67,3s-9.11,2.52-10.92,2.92c-4.4,1.19-6.1,4.45-9,8.33-2.24,3.16-11.87,7.63-14.66,9.94-3.83,3.45-3.91-.79-7.77-.8a1.62,1.62,0,0,0-.45.37c-2,1.35,4.7,5.5-1.56,5.49-1.82,0-9.39-1.75-10.42.76s7.26,6.32,9.32,5.37c0,4.58,9.49,12.49,2.12,19-1.2,3.06-22.31-1.56-22.55-.17.45-2.22-7.58,1.51-8.36,2.5s1.51,10.07.53,12.8c-3,8.06.92,12.28-2.33,19.08,9.43-3.78,10.93,6.1,17.61,2.42,3.17-1.89,12.16.77,13.23-3.28.6-2.51,8.51-4.79,9.06-8.34.08-.61-2-1.89-2.35-2.77-1.21-3.52,5.94-4.43,4.91-7.76-.11-.36,8.17-4.53,9.15-4.91,1.58-.62.71-6.26,3.39-8.13,2-1.33,6.79,1.33,9.14,1.33,8.45,0,16-11.83,15.95,1.48,0,1.91,2.32.54,2.62-.35-.32,0,10.8,8.74,10.64,8.09.87,4.92,12.14,4.39,12.13,12.22-1.45,6.31-13.52,1.5-14.44,3.36-2.63,2.8,3.91,5.86,6.13,5.86,7.84,0,.66,1,6-5,.78,2.75,4.4-1.16,4.33-1.88-.52-3.62,1.67-1.94-.06-6.72-1.89-5.44,4.36-2.47,5.72-.77,2.21,2.71,2.34-3.93-.81-4.68-1.74-.49-7-2.77-7.7-3.91,0,0-15.41-11.13-15.41-15.57,0-8.76,7.22-.49,7.53-1.08.35,1.75,2.35,2.69,2.35.56,4.53,3,4.59,9,11.59,9.54,5.48.33,6.6,5.72,7.62,7.69.11.2,2.05,8.91,2.86,7.37-.27.53-1.33-.92-1.33.47,0,4.53,19.48,11.54,19.65,11.32.66-.86-.86-2.58-1.18-3.37.56.3,3.06,2.47,3.52.69-.13.51-11.87-12.12-9.67-12.12,1.86,0,15.93-4.94,16.61.19.12.84-3.57,5.14-3.11,6.36,1.83,4.22,4.08-2,4.12-2.06-.07,2-3.28,7.46-3.68,7,1.14,1.18,1.61-1,1.9-1.17.92.73,1.73,3.33,4,2.19a7,7,0,0,1,0,1,12.75,12.75,0,0,0-1.69-.87c-1.74,0,2.42,3.63,3,3.86-1,0-2.28,3.48-2.7,4,2.52-1.88,2.46-2.15,4.86-2.93,0,.38-2.08,1.55-2.43,1.88,1.22.39,1.36-.49,2.64-.27-.11.82-2.69,3.74-1,4.19,2,.49,2.5-3.91,3.4-4.62,0,1.91,1.73,1,2.33.57,0,2.33,2.63,5.05,5.13,3.2,5-3.94-.32-3,6.87-2.24,2.22.36,16.44,2.14,16.44-1.84-.41,5.64,3,28.45-9.59,28.44-3.41,0-8.19-3.81-12.16-1.32-6.17,4-10.16,1.29-17.78-.12-4.1-.76-14.42-3.56-16.41-6.88-1.22-2.14-9.08.89-9.59,2.76-1.53,5.12,0,12.95-8.09,7.71-7.67-.75-11.22-5.27-16.26-9.34-1.28-1-13.83-5.15-14.56-5.32-7-1.83.61-2.7-.06-7.89,0-.46.14-10,.5-9.49-2-3-21.87,0-25.25,2.85-5.77-2.9-22.87-.69-27.41,5.21-1.39,2-10.23,2.18-13.18,1.5-2.73-.66-4.81-5.79-7-1.36-1.85,3.65-3.26,7.45-7.26,9.27-11.25,5-6.94,13.09-11.94,20.6-3.83,5.87-12.66,6.23-15.07,12.31-.7,1.77-21.32,32.26-17.36,33.56,2.8.89,6,12.33,2.68,18.25-2.06,3.61-5.74,11.56-3.14,14.63.24.25-.17,11.81,1,10.15,4.2,3.5,8.11,6.93,12.47,11.21,2.66,4.35,4.53,16.56,12.13,17.51,4.53.54,9.55,11.63,14.44,11.63,5.84,0,11-4.87,17.62-4.87,10.23,3.11,14.74-1.05,23.5-4.12,4.29-1.65,8.18-1.75,12.66-1.74,2.11,0,9,14.06,11,10.67,2.64-4.59,12.54,1.91,13.4,1.52,2.12,6.37-.43,14-1.26,18.85-1,5.81-2.77,2.79-.95,9,1.59,5.79,8.1,10.55,11.24,15.58,3.33,5.29,7.14,16.39,6.57,21.67-1,8.56,7,13.68-1.63,21.63-5.33,4.83-1.85,16.72-4.41,22.49-1.84,4.72,14.81,24.33,11.88,27.33-2,2,2,21.58,4,24.27,4.12,5.47,5.93,11.52,9.44,17.22,3.4,5.47.38,5.75-.34,9.42.11-.55,4.71,7.49,2.86,7.49,2,0,6.37,4,8.71,1.31.78-.89,9-3,10.33-2.38,8.59,3.71,21.3-2.95,27.39-10.42,3.75-4.74,16-15.26,16-21.39,0-2.85,1.59-12.53,4.46-13.41,14.65-4.48,8.92-16.19,6.74-27.93.88.75,32.76-22.78,28-27.55-2.32-2.22-.5-12.08-1.06-15.33.22-4.39-3.72-7.07-3.27-10.34.31-2.37-.57-12.34-1.56-13.62-6.54-8.47,11.07-27.86,17.12-33.9,14-14.77,33.44-34.09,37.07-52.69,1.79-10.28-6.72-7.13-13.66-5.12-4.67,1.5-10.19,1.85-14.12,3.79-5.21,2.61-7-4.29-11.93-4.29,2.91-4.83,4.53-5-1-9.28-4.31-3.85-15.33-10.72-15.24-17.17.16-6.08-8.49-8.39-8.28-12.66.19-3-.59-9.31-2.19-12.14-3.36-6-6.43-7.2-5.71-12.23,1-7.73-18-21.12-16.17-30,1.09,2.34,5.13,10.79,8.08,10.79,1.14,0,1.84-6,2.1-7.42.07.88-1.07,5.83-1,6.06,2.91,4.8,10.37,11.75,13.44,18.4,1.46,3.11,8.48,4.89,7.87,10-.53,4,1.12,6.86,3.16,9.82,2.46,4.2,9.45,15.27,12.85,18.11,5.31,4.43.85,18.31,7,21.86,3,1.58,11.17-4.55,15.12-4.76,5.36-.18,14.92-6.88,20.45-9.19,3.94-2.51,4.68-7.77,12.51-7.76,2.32,0,6.86-8.69,8.41-9.27,6.9-2.51.29-6.72,4.93-9.22.39-.18,8.2-4.76,8.08-9.23,0,1.2-5.89-6-6.06-6.21-2.19-2.54-7.72.17-9.41-4-.43-1.07-2.42-9.09-2.89-9.09-.87,0-16.76,17.8-18.27,10.21-.07-.29-2.18-6.31-1.66-5.71-4.1-4.87,1-4.58-4-.23.78-.16-9.18-12.74-9.58-13.79-.08-.23-5.12-9.23-2.75-8.28-.44,0,6.13-3.94,6-3.68,4.09,4.61,17.91,27.18,26.4,17.42.08.29.11,2.18.61,2.18,2.2,0,1.74-2.81,2.61-3.44,1.93,1.29,4.52,7.42,5.44,7.62,8.46,1.85,16.82,1.16,25.26,2.12,4.89.59,15.59-2.71,18.17,2.39,2.9,6,7.6,11,15,9.5.65-.31-6.89,3.81-6.5,2.89-1.11,2.73,15.52,16.24,15.53.4-.07,0,7.81,35.63,11.66,39,6,5.3,8.7,21.49,12.22,28.89,3.76,8,4,2.22,7.48.74.36-2.48,5.48-1.19,5.62-2.11.18-1.25-1.68-1.1-2.32-1.1,0-3.12,3.88-4.24,3.78-6-.39-6.28,1.46-11.78.34-18.45-1.18-7.2,2.61-6,3.29-9.47-.21,1.06,8.93-4.65,4.55-4.66,7.15-8.94,19.72-15.87,22.66-26,0,.82-.07,3.5,1.42,3.5,1,0,.94-2.22,1.08-2.8,1,2.34,4,.79,5.18.79s.43-2.17.5-2.68c.07.22.44,2.51.91,2.51,2,0,4.84-3.21,5-3.8.81,2.8,8.54,17.27,12,14.22-.18.51-.89,5.55-.53,5.75,6.17,3.34,2.94,15.74,10.83,15.75-2.45,0,4.66-5.5,4.25-5.06C1044.1,312.71,1043.18,313.66,1043.92,312.91Zm98.33-63.62c1.07-1.3-2.06,2.39,0,0C1142.32,249.2,1142,249.59,1142.25,249.29ZM1086,42.8c.85-.38,2.41-.66,3.24-1.15-.33,2.34-2.85,1-3.24,1.15C1087,42.36,1085.92,42.82,1086,42.8ZM884,60.73c-2,0-4.29-4.84-7-6C880.76,55.14,883.63,60.73,884,60.73Z"/><path class="cls-3" d="M1206.21,91.59c.19.55,0,0,0,0Z"/><path class="cls-3" d="M1104.83,298.53c4.75-3.84-5.33-3.61-7.18-3.28-1.37,1.61-3.69,6.36-.66,8.29,6.62,4.18,5.25-2.88,7.84-5C1105,298.42,1104.54,298.77,1104.83,298.53Z"/><path class="cls-3" d="M1219.69,99.73c-2.23-1-3.68,1.31-1.22,3.3.33-.68,4-2,1.22-3.3Z"/><path class="cls-3" d="M839.84,473.47c-.47-.8-1.89-15.81-4.22-15.81-2.81,0-1.68,4.08-2.22,5.29-2.39,5-.64.79-3.16.79-.94,0,0,2.18-.14,2.75-.94-1.45-3.27,4.65-1.78,5.21-.85-.11-1,.63-1.21,1.23-.74-1.63-6.72,4-6.14,5-1.2.33-10.32.68-9.89,0,.79-1.23-1.09,10.09-1,10.35.78,4.66,2.54,7.87.48,12.43-3.08,7-7.21,18.37-.65,24.85,12.78,11.73,18.12-19.17,20.28-24.79.78-2,9.36-24.23,6.42-24.23.27,0,7.32,3.68,3.27-3.1Z"/><path class="cls-3" d="M980.34,356c-.45-.92-6.25-12-8.13-9-.57.94.07,2.73-.76,3.93-1.27,2.28,1.59,11.22,2.59,14.37,2,6,10.08-2.19,6.3-9.26C980.24,355.76,980.67,356.58,980.34,356Z"/><path class="cls-3" d="M1028.08,336.26c-.44.69-.53,2.42.65,2.42,2.14,0,2.32-10.81.84-10.81s-1.17,7.87-1.49,8.39Z"/><path class="cls-3" d="M1029.47,342.74c-1.25-4.77,1,3.95,0,0C1029.34,342.19,1029.66,343.43,1029.47,342.74Z"/><path class="cls-3" d="M1030.1,349.68s-1.59,1.88.32,1.88C1031.24,351.56,1031.46,349.68,1030.1,349.68Z"/><path class="cls-3" d="M1034.21,355.69c-.73-2.94-2.72,2.23-1,2.23a1.87,1.87,0,0,0,1-2.23C1034.09,355.18,1034.35,356.2,1034.21,355.69Z"/><path class="cls-3" d="M1035.51,360.2c1-2.19-4.38,3.09,0,3.09C1037.54,363.29,1035.67,360.47,1035.51,360.2Z"/><path class="cls-3" d="M1046.94,383.21c-.7-.46-1.76-2.2-2.16-.2,0,1.5,3.06,2.28,3.94,2.82a4.13,4.13,0,0,0-1.78-2.62Z"/><path class="cls-3" d="M1053.48,390.62c-.82-.85-.83-1.64-2.28-1.28.19.5,2,5.48,3.13,5.48,1.7,0-.62-4-.85-4.2C1053.4,390.53,1053.81,390.94,1053.48,390.62Z"/><path class="cls-3" d="M1052,388.1c-.21-1.29,1.08-2.3-.77-2.49C1051.28,386.51,1051.85,387.23,1052,388.1Z"/><path class="cls-3" d="M1057.82,398.91c-.12-1-.45-1.73-1.48-1.6,0,.71-.42,4,.51,4C1057.45,401.31,1057.84,399.12,1057.82,398.91Z"/><path class="cls-3" d="M1057.77,397Z"/><path class="cls-3" d="M1060.11,402.86c-5-3.77-1.51,4.71,0,4,1.29-.64,1.3-3.38,0-4Z"/><path class="cls-3" d="M1064.82,409.84c-1.23-.61-2-2.18-2.88-2.82.61,2.19-.39.47,1.83,2a26.84,26.84,0,0,0,2,5.68c.65-1.25.85-4-.93-4.88Z"/><path class="cls-3" d="M1086.47,426.68c6.42-2.59.38-11.12,4.86-14.48,1.58,0,4.51.63,4-2.11a42.39,42.39,0,0,0-5.72-4.7c-1.1-1.79-3.92,1.92-1.65,2.72a4.58,4.58,0,0,1,2.81,3.05c-1.89,0-2-3.47-4.72-2.26.68-1.84-6.19-10.66-6.43-10.74,3.26-.82-.36-5.34-1.28-4.7.58-2.38-11.39-8.75-11.25-7.31-4.5-4.13-9.39-13-14.68-15.46-9.82-5.78-12,2.33-3,8,8.08,4.7,25.18,52.68,37.11,48Z"/><path class="cls-3" d="M1083.64,399.18c-1.06.31-1.18,2.34,0,2.34-.86,0,4-3.17,3.82-3C1083.83,394.74,1085,397,1083.64,399.18Z"/><path class="cls-3" d="M1098.13,414.18c3.4,1.06,5.25-5.07-1.58-2.25.06.07,1.63,2.27,1.58,2.25Z"/><path class="cls-3" d="M1107.58,437.75c2.62,2.46,12.12,5.25,14.49,1.61.21.61,4.88,3.49,5.78,3.2s-.23-2.51-.23-2.87c-.81-.63,6.07,3.53,2.4,3.53,9.35,0-6.79-10.76-9.23-8.41,1.15-1.21,5.44.36,6.34-1.48,0,.05-11.4-2.79-13-2.82-2.59,0-5.47.62-10.15,1.24-2.29.33-9.56-4.61-13.4-4.62-1.7,0-2.6,3-4.19,3s4.44,2.68,5.77,2.87c-3.27,4.18,14.58,4,15.43,4.79Z"/><path class="cls-3" d="M1142.35,443.27a1.65,1.65,0,0,0,2.42-1c0-.61-9-3.55-8.83-3.55-5,0-.08,9.07,1.81,2.29.47,3.74,2.13,2,4.6,2.27Z"/><path class="cls-3" d="M1145.48,442.31c.58,1.06,4.4,0,4.28-.85-.21-1.15-6.39-4.07-7.35-3.34-1.7,1,2.83,3.8,3.07,4.19C1145.58,442.5,1145.36,442.12,1145.48,442.31Z"/><path class="cls-3" d="M1161.82,442.6c3.31-1.43-7.66-3.85-11.08-1.66,2.18,2.12,7.43,3.06,11.08,1.66C1162.56,442.27,1161.59,442.68,1161.82,442.6Z"/><path class="cls-3" d="M1147.35,447.17c2.87,0,5.22,4.32,8,2.4,2.05-1.51-2.62-4.39-3.88-4.56C1151,441.47,1144.69,447.17,1147.35,447.17Z"/><path class="cls-3" d="M1167.1,450c3.85.62,14.79-6.95,18-9.59-7.26-2.55-19.4,9.27-18,9.59C1167.48,450.08,1166.94,450,1167.1,450Z"/><path class="cls-3" d="M1172.78,396.17c.71-.61,5.82-5.77,4.85-7.07,1.68,2.24-20.29,2.16-20.56,2.51-6,2.33-3.57,9.46-7,15.79-2.47,4.59-1.1,6.5.72,8.76s-.34,5.68-.58,8.29c-.32,3.69,5.5,1,5.5,1,0-6.16-2-10.81,2.49-14.51-.51-.55,2.49,14,4.64,11.43,3.12-3.77,4.42-9.66-2.18-14.35.24-.23,1.72-1.05.58-1.05,4.07-2.3,6.85-3.79,8.27-6.84-6.47.39-10.65,5.33-14.88.57-7-8.38,17.38-3.86,18.1-4.5Z"/><path class="cls-3" d="M1167.27,405.64c.94,0,2.67.27,3.18-.79C1172.24,401.23,1162.92,405.64,1167.27,405.64Z"/><path class="cls-3" d="M1176.7,407.29c2.3.67-.92-2.14-3.69-2.07,0,3.36,1.65,1.51,3.69,2.07C1177,407.37,1176.5,407.24,1176.7,407.29Z"/><path class="cls-3" d="M1164.43,425.35c2.51,3.27,4.16-1.45,2-2.55.44-.59,2-1.58,1.55-2.59-1.29-2.51-4.58,3.82-4.66,5,.29.11.62.07,1.1.18C1164.46,425.39,1164.32,425.33,1164.43,425.35Z"/><path class="cls-3" d="M1162.6,423.23c.58-.66-3.79,2.27-.71,2.27C1162.94,425.5,1162.3,423.58,1162.6,423.23Z"/><path class="cls-3" d="M1187.74,406.09c.85-.19,3.34.56,3.37.5C1192.39,401,1184,406.09,1187.74,406.09Z"/><path class="cls-3" d="M1186.67,401.37a5.43,5.43,0,0,0,2.57.06c-1.49-.21-.29-1.67-.29-1.62,2.21,7.39.66-4.56.64-4.37,1.33.16,3.25.08,4.26.31-.35-.95-1.87-1.16-2.25-2,.27-.29,2.79-4.59,1-4.59-1.09,0-1.31,1.8-2,1.8-.1,0-.27-4.41-.23-4.73-7.12,3-.12,7.58-2.18,12.57C1183.71,398.12,1185.92,399.37,1186.67,401.37Z"/><path class="cls-3" d="M1192.74,384.13c-.71-2.12-2.82,3.15-2,2.1-.44,2.49,2.69.22,2-2.1C1192.7,384,1192.79,384.32,1192.74,384.13Z"/><path class="cls-3" d="M1186.52,415.5c0-2.64-4.72-4.36-6-1.65C1179.68,413.63,1186.52,421.55,1186.52,415.5Z"/><path class="cls-3" d="M1191.26,414.1c-.22-.67,8.87,3.18,10.29,3.18C1206.39,417.28,1188.06,404.59,1191.26,414.1Z"/><path class="cls-3" d="M1201.08,405.82c-1.08-.54-2.7.21-3.46.88,2.49,2.31,4-.6,3.46-.88C1201,405.76,1201.16,405.87,1201.08,405.82Z"/><path class="cls-3" d="M1201.73,400.14c2.4-1.41,5.26-3-.16-3-2.34,0-1.44,4.11.16,3Z"/><path class="cls-3" d="M1275.78,427.78a55.2,55.2,0,0,1-7.45-3.92c3.84-4.84-18.19-13.82-21.56-14.63-4.16-1-7.68-3.31-11.83-4.1-1.34-.25-8.22,3.13-8.25,3.45-2.73,15.76-8.52-5.39-9.08-6-5-5.58-8.74-1.84-13.41.55-.53.29-1.35-1.89-1.61-2.25-1.32,4.68,7.11,8.18,12.78,7.83.27.05-7.73,2.69-7.72,2.66-.28.45,3.45,3.69,3.46,3.69-2.88,4.25,2.75,1.43,4.61-1.39.11,5,8.75,7.49,12.83,8.64,3.54,1,5.86,2.64,6.8,6.64,1.56,6.61-4.34,4.76-4.34,10.55,0-1.14,11.62-.33,13.15,2.73,2.9,5.82,16.73.26,14.47-2.92a14.77,14.77,0,0,0-2.61,0c8.94-6,12.73,1.07,17.89,7.16,1.7,2.13,16,8.26,16.25,3.24-.07,1.19-6.51-6.58-6.61-6.82.64,1.45-12.61-11.22-9.15-11.21,2.56,0,7.35-1.1,1.38-3.84C1274.81,427.34,1276.53,428.13,1275.78,427.78Z"/><path class="cls-3" d="M1222.46,405.27c.27.13,8.28,3.12,7.14.94C1228.75,404.61,1223.78,405.22,1222.46,405.27Z"/><path class="cls-3" d="M1216.54,427.91c-1.34,0,0,9.91,3.12.5C1222.05,421.43,1214.56,427.91,1216.54,427.91Z"/><path class="cls-3" d="M1206.32,434c.36-.1-4.16-1.25-4.34,2.49-.1.35-1.39,4.83-.87,4.83,1.37,0,3.44-6.73,5.21-7.32Z"/><path class="cls-3" d="M1195.68,438.63c2,0,.8-2-.63-2.15A2.17,2.17,0,0,0,1195.68,438.63Z"/><path class="cls-3" d="M1172.22,441.2c.24-.21,4.13-1.08,3.87-2.09C1175.53,436.94,1169.43,438.81,1172.22,441.2Z"/><path class="cls-3" d="M1164.57,441.11c.46-1.18,6.67-.09,6.89-.63C1171.6,440.18,1162.35,435.7,1164.57,441.11Z"/><path class="cls-3" d="M1281.06,427.29c4.75,4.53,10.08,2.26,14-1.33,1.78-1.62,5.79-12.34-.35-8.16-1,.67,1.37,3.48.89,4.16-2.72,3.74-4.79,1.15-7.32,1.15-.54,0-9.18,2.34-7.26,4.18C1281.64,427.85,1280.89,427.12,1281.06,427.29Z"/><path class="cls-3" d="M1278,427.22c1.67.29,1.6-2.26.42-2.26-.68,0-1.75,2-.42,2.26C1278.1,427.22,1277.47,427.12,1278,427.22Z"/><path class="cls-3" d="M1273.21,407.68c-1.18,3.6,3.79-.16,3.82-.13C1274.77,405.34,1273.12,407.7,1273.21,407.68Z"/><path class="cls-3" d="M1289.73,411.33c3.36,2.49-4.94-4.45,0,0C1289.8,411.38,1289.51,411.13,1289.73,411.33Z"/><path class="cls-3" d="M1293.51,412.43c1.93,1.25,8.33,9.75,7.87,9.75,6,0-8.32-12.33-8.32-12.33-1,.9-.85,1.72.45,2.58C1293.65,412.51,1293,412.09,1293.51,412.43Z"/><path class="cls-3" d="M1308.58,427.18c-.46.91,6.81,8.38,5.55,3.56,0-2.26-4.28-6.33-5.36-8.19,0,1.31.24,3.4-.19,4.63C1308.42,427.51,1308.61,427.1,1308.58,427.18Z"/><path class="cls-3" d="M1317.08,433.08c.76.77,2.18,2.94,3.46,2.79,2.43-.43-3.35-5.28-4.06-5.72-.7,1.17-.4,1.94.6,2.93Z"/><path class="cls-3" d="M1316.17,437.62c1,.68,1.7-.3,1.78-1.34-1.47-.94-3.32.3-1.78,1.34C1316.42,437.77,1315.72,437.31,1316.17,437.62Z"/><path class="cls-3" d="M1320.85,437.43c-.21-.21-2.5,0-3.07,0,.36,1.05.31,2.17,1.39,1.09.46.38.81,5.53,2.21,3.57.85-1.18,2-2.13-.53-4.63C1320.7,437.27,1321.08,437.65,1320.85,437.43Z"/><path class="cls-3" d="M1325.49,436.87c.7,1.67,3.7,3,5.24,3.54-1.17-2.75-3.1-4.18-5.89-5.71-1.81,1.78.13,1,.65,2.17C1325.62,437.19,1325.3,436.43,1325.49,436.87Z"/><path class="cls-3" d="M1330.31,444.68c.25,2,5.16,4.67,4.82,2.16C1334.83,444.89,1331.12,444.87,1330.31,444.68Z"/><path class="cls-3" d="M1334.32,442.19c-.26,2.26,2.75,4.65,4.21,5-1.28-3.66-2.11-6.67-4.86-7.62a4.06,4.06,0,0,1,.65,2.58C1334.29,442.49,1334.14,441.18,1334.32,442.19Z"/><path class="cls-3" d="M1337.38,448.87c-2.3,1.9.68,3.7,4.21,4.77C1340.66,450.75,1338.77,450.9,1337.38,448.87Z"/><path class="cls-3" d="M1359.91,481.87c.13-1.65-.81-10.16-3.29-10.16-1.94,0-.6,5.2,1.65,5.57-.8,1.56-.5,4.59,1.64,4.59C1360,481,1359.88,481.87,1359.91,481.87Z"/><path class="cls-3" d="M1328.09,442.94q-1.83,1.13,0,2.25Q1330,444.07,1328.09,442.94Z"/><path class="cls-3" d="M1288,440q-2.33,1,0,1.93Q1290.26,440.93,1288,440Z"/><path class="cls-3" d="M1301.08,444a2,2,0,0,0-3.12,0A2,2,0,0,0,1301.08,444Z"/><path class="cls-3" d="M1290.13,448.83c.35,0,1.77,1.52,1.77-.24C1291.91,446,1287.79,448.83,1290.13,448.83Z"/><path class="cls-3" d="M1289.24,446.42c3.84.63-2.46-3.67-2.46-1.49a9.61,9.61,0,0,1,2.46,1.49C1289.35,446.44,1288.71,446.59,1289.24,446.42Z"/><path class="cls-3" d="M1288.18,443c0,1.52,0-1.51,0,0Z"/><path class="cls-3" d="M1292.14,441.54q-1-1.68-2,0Q1291.13,443.22,1292.14,441.54Z"/><path class="cls-3" d="M1340.89,499c-1.84-2.89-.92-8.16-1.51-9.23-3-4.72-1.07,11.58-1,10.5.81,2.34,8,14.42,10.88,14.42C1354.21,514.67,1341.36,500.41,1340.89,499Z"/><path class="cls-3" d="M1128.87,416.53c.56,3.4,5.8,1.67,6.6-.34,0,.3-.06,2.39.79,2.39.83-3.35,1.13-5.85,3-9,1.07-1.88-.47-3.28,1.76-5.95,1.59-1.87,2.39-1.65,2.58-4-.24.36-.47-8.72,2.35-6.47,4.38,3.44,2.47-4-1.62-6.12,2.73-1.82-.49-5-2.25-6.5.27,0,1.8.36,2-.1s-1.26-1.12-1.5-1.53c2.39.89,1.56-1.69.27-2.51.65-.17,5.13-.23,5.13-1.66,0-.63-2.14-2.37-2.62-2.73,9.86,0,.62-5.83-3.07-5.44,1-1.65-1.47-7.37-2.76-7.22s1,3.43-.89,3.43a1.56,1.56,0,0,1-.55-1.6c-1,2.56-7,9-5,10-4.49,2.81-5.58,2.67-9.33,7.08a11,11,0,0,1-6.57,3.95c-4,1-1.66,4.3-4.18,6.92-2-2.38-3.65-.53-5.54-3.48-4.84,3.72-3.5,15.62-1.47,19,.43.65,1.58-.62,2-1,1.33,1.9-.17,6.94,1.24,9.38.46.64,1.81-1.2,2.16-.33-.9,1.52,3.46-.43,4.19-1.15,0,.66.17,2,.88.88-.07.34-.42,3.75.34,3.75s1.4-1.42,1.93-1.92c0,2.41,3.45-.28,3.79-1.38,1.58,3.44,5.66.24,6.3,3.6Z"/><path class="cls-3" d="M1142.28,361.73c.4,0,1,2.61,2.18.73C1146,360.07,1141.18,361.62,1142.28,361.73Z"/><path class="cls-3" d="M1146.06,360.67c-.08,2-.08,2.1,0,0Z"/><path class="cls-3" d="M1141.48,350.94c-.6.64-2.58,2.56-2.1,3.52-.49-.93,15.33-9.31,9.64-15.11,1.33,1.33-6.15,10.08-7.54,11.59C1141.12,351.32,1141.85,350.53,1141.48,350.94Z"/><path class="cls-3" d="M1149.77,339.67c.08-.06,3.75-3.51,3.5-4.47C1152.11,331.1,1147.67,337,1149.77,339.67Z"/><path class="cls-3" d="M1156.68,330.28c-.38-1.45-4.42-2.12-5.67-2.26,1.87,4,8.15,11.22,5.67,2.26C1156.56,329.85,1156.71,330.38,1156.68,330.28Z"/><path class="cls-3" d="M1160.87,336.46c-2.44-2.59-.53,8.2-.71,8.2.72,0,1.83-1.32,2.28-1.81-.49,1.13-.23,1.45.73,1.45,1.21,0,.38-2.85,1.95-3.3-1.6,1.2-3.86,10.31-.64,8.93,0,5.87,8.34-9.76,5-9.77-.46.7-1.35,2-1.88,2.8,1-2.43-5.52-5.19-6.78-6.5C1160.71,336.28,1161,336.54,1160.87,336.46Z"/><path class="cls-3" d="M1171.52,345.14c-.84.49-4,1.27-3.33,3.64C1168.55,350,1175.93,345.89,1171.52,345.14Z"/><path class="cls-3" d="M1180.14,365.53c1.13,1.56.6-13.62.47-13.3,0-3.48-1.69-2.14-.79-5.43-.8-1-2,.47-2.59.82-.18-.54,1.21-3.64-.59-3.64s-.45,6.6-.45,7.71c-1-.52-1.6-1.11-1.19.09a7.21,7.21,0,0,1-1-1.06c-.76,0-3.13,4.35-4,5.09-2.63-9.74-11,6.88-7.82,6.88,1.43,0,1.36-4.74,2.51-4.59a.77.77,0,0,0,.52.15c0,.11-.4,2.52.49,2.52.55,0,.71-1.9.78-2.24.15.25,1.51,2.42,2.08,1.81a8,8,0,0,0,.19-2.85c.58.41,1.67,2.69,2.43,2.38-1.41,4.47,4.35,10,5.14,7.36,0,.45.36,2.5,1.33,2.5,2.33,0,.46-8.15.71-9.43,1.94,1.24.45,3.43,1.84,5.23C1180.23,365.67,1180,365.38,1180.14,365.53Z"/><path class="cls-3" d="M1173.61,346.24c3.47,0-.84-6.95-3.55-7.25.26.8-.17,2.9,0,3.21.32.58,1.78-.12,2-.48C1171.94,342.67,1172.11,346.24,1173.61,346.24Z"/><path class="cls-3" d="M1169.61,334.85c.59.6,8.17,8.56,8.17,6.64,0-4.63-3.57-9-7.88-9-1,0,.06,2.73-.29,2.39C1169.73,335,1169.05,334.31,1169.61,334.85Z"/><path class="cls-3" d="M1156.06,302.91c-8.78,0-6.51,2.89-6.3,11.95-4.86,0-1.63,5.46,1.69,9.48l.87-1.39c2.6,1.06-1.53,7.72,4.75,3.24.82.85,5.53,5.33,6,3.73.35-1.31-1.71-2.05-1.71-3.28a25.76,25.76,0,0,1,6.53,6.57c-3.37-3.81-3.21,4.42-3.14,4.29.6-.11.76-2.16,1.64-2.16.37,0,1.28,3,2.59,1.94.53-.44-.82-3.72-1.07-4,2.31,2.6-1.78-5.25-1.8-5.3.78,0,1.35.16,1.62-.85-1.52-.43-3.37-3-3.91-.79-4.73-3.51-8.7-1.52-8-9.39C1156.38,318,1161.14,302.91,1156.06,302.91Z"/><path class="cls-3" d="M1159.66,328.24c-1.41-.83-2.7,2.06-1.28,2.06.56,0,2.88-1.07,1.28-2.06Z"/><path class="cls-3" d="M1170,327.52a1.6,1.6,0,0,0-1.72-2c-.7,2.28,1.28,5,1.72,2C1170.09,326.87,1169.89,328.29,1170,327.52Z"/><path class="cls-3" d="M1162.17,335Z"/><path class="cls-3" d="M1159.74,332.45a2.49,2.49,0,0,0,0,3.5A2.46,2.46,0,0,0,1159.74,332.45Z"/><path class="cls-3" d="M1138.27,357.24c.5,1.36,1,1.36,1.54,0C1139.29,355.88,1138.77,355.88,1138.27,357.24Z"/><path class="cls-3" d="M1162.05,365c1.6-.58,1.6-1.17,0-1.75Q1159.64,364.09,1162.05,365Z"/><path class="cls-3" d="M1157,367.27q1,1.35,2.1,0Q1158.06,365.94,1157,367.27Z"/><path class="cls-3" d="M1160,367.05c0,1.6,0-1.6,0,0Z"/><path class="cls-3" d="M1156.14,369.51c0,2.29,0-2.3,0,0Z"/><path class="cls-3" d="M1153.63,370.67q-2.2,1,0,1.92Q1155.83,371.63,1153.63,370.67Z"/><path class="cls-3" d="M1149.72,373.7c.5,1.47,1,1.47,1.46,0C1150.7,372.22,1150.22,372.22,1149.72,373.7Z"/><path class="cls-3" d="M1155.8,365.2c-.51-1.16-1-1.16-1.52,0C1154.78,366.36,1155.29,366.36,1155.8,365.2Z"/><path class="cls-3" d="M1183.75,374.37a1.66,1.66,0,0,0,0,2.62A1.66,1.66,0,0,0,1183.75,374.37Z"/><path class="cls-3" d="M1181.69,368.6Z"/><path class="cls-3" d="M1177.28,372.41Z"/><path class="cls-3" d="M1176.89,375.29q1.69-.9,0-1.8Q1175.21,374.39,1176.89,375.29Z"/><path class="cls-3" d="M1179.5,380c-.57-1.51-1.13-1.51-1.7,0C1178.37,381.56,1178.93,381.56,1179.5,380Z"/><path class="cls-3" d="M1208.27,220.55Z"/><path class="cls-3" d="M1179,243.57c1.25-.6,1.25-1.2,0-1.81C1177.71,242.37,1177.71,243,1179,243.57Z"/><path class="cls-3" d="M1131.18,292.48Z"/><path class="cls-3" d="M1142.51,278.53c.41,1,2.4,7.5,3.88,7.51,2.44,0,3.23-14,3.24-15.51,0-5.07-9.34,2.32-7.12,8C1142.63,278.84,1142.36,278.18,1142.51,278.53Z"/><path class="cls-3" d="M1167.25,230.11c-1.33.58-1.33,1.16,0,1.74C1168.57,231.27,1168.57,230.69,1167.25,230.11Z"/><path class="cls-3" d="M1170.69,225.54Z"/><path class="cls-3" d="M1173.14,236.61Z"/><path class="cls-3" d="M1179.9,213.1c-.61-1.24-1.24-1.24-1.86,0Q1179,215,1179.9,213.1Z"/><path class="cls-3" d="M1214.3,174.1Z"/><path class="cls-3" d="M1225.9,155.7Z"/><path class="cls-3" d="M1225.38,153.07Z"/><path class="cls-3" d="M1224.06,139.26Z"/><path class="cls-3" d="M1186.58,166.63Z"/><path class="cls-3" d="M1187.86,167.66Z"/><path class="cls-3" d="M1197.28,204c-.55-1.87-1.09-1.87-1.65,0C1196.19,205.89,1196.73,205.89,1197.28,204Z"/><path class="cls-3" d="M1206.57,221.66c.24,0,2-5,2.39-5.67a41.81,41.81,0,0,1,.81,5.22c.7-.72,3.36-4.58,3.35-6.2,0-4.76-12.25-35-17.53-28-.31.49.79,2.43,1.46,2.43-3.12,3.52,2,4.77,2.58,8.17.8,4.54-5.31,11.73-5.08,12.48-2.93-1.09.17-2.76-.85-4.11-1.49-1.84-2.36,13.35-4.91,9.92-2.77-4.36-16.54,3.61-14.89,8.58l-5.68,3.55c-.09.44,3.17,4.18,4.33,2.48.1,1,0,3.24,1.11,3.24.75,0,.5-1.41.94-1.7-.88,2.91,1.22,7.87,4.58,7.88,4.13,0,.45-14.1.27-12.8,0-.19-4.68-1.7-3.93-2.09,2.94-1.17,10.23-4,14.17-4-.2.53-1.12,2.6.06,2.6.84,0,.64-2.15,1.49-2.49-.64,3.24,5.12,7.46,5.39,5.54.21-1.67.45-6.9.5-7.05,4.42,3.69,4.48.79,8.11-.93,0,1.9-.59,3.27,1.33,2.9Zm1.51-19.37c1.3,2.06-1.91.83,0,0C1208.21,202.51,1207.87,202.38,1208.08,202.29Z"/><path class="cls-3" d="M1190.09,226.12c2.56-6.75-12.64-2-10.07,2.18-.19-.11,5.46,3.63,5.46,3.63-.68,0,1-4.58,1.59-5.21.61,3.25,2.48.82,3-.6C1190.31,225.58,1190,226.47,1190.09,226.12Z"/><path class="cls-3" d="M1208.94,175.23c-.68-1.12-1.71-1.69-1.63-3.35-7.38,5.65-11.5-6.18-18.37-6.18.31,0,4.63,10.32,5.34,11.23-.67.27-4-.8-4.09-.27-.78,3.62,1.1,7,4,10,.75.71,4.15-1.63,3.71-2.06-1.62-1.53-4.26-1.21-5.31-3.21,2.85-2.35,8.88,2.59,13,2.59,1.9,0-1.24-5.83,2.63-4.66,6.76,1.48,1.23-3.09.69-4.07C1208.82,175,1209,175.29,1208.94,175.23Z"/><path class="cls-3" d="M1212.69,170.13c0-1.16-6.11,4.57-3.1,4.57,1.15,0,8.49-7.71,8.45-8.09-.13-.91-4.39-.75-4-.79a19.77,19.77,0,0,0-1.36,4.31Z"/><path class="cls-3" d="M1219.62,163.83c-.13.42-1.26,1.95-.15,2.07.83.18,2.92-2.14,2.18-3s-1.79.36-2,.94Z"/><path class="cls-3" d="M1224.59,158.28c.25,4.63,1-2.34,0,0Z"/><path class="cls-3" d="M1226.07,147.66c-1.51,1.1,4,.64.25-2C1226.47,145.64,1225.23,147,1226.07,147.66Z"/><path class="cls-3" d="M1286.72,523.8c-.4-2.64-2.11,2.11-2.64,2.09-2.11-.89-8-15.69-6.29-15.69-3.09,0-.06.17-3.06-1.76a17.76,17.76,0,0,0-.32,2.84,72.54,72.54,0,0,1-1-10.72c-.15-3.52-15.72-6.26-11.33-10.93,1.74-1.94.27-13.11.86-15.52.22-.88-5.52-7.31-7.09-2.8-.69-1.61-1.93-20.88-3.08-20.89-2.46,0-5.31,11.14-5.1,11-2.4,6.38-3,28-13.63,24.66-4.74-1.51-24.47-21.06-10-21.05.9,0,3.68-8.18.7-8.18-1.16,0-2.85,2.77-1.7,3.26,0,0-.87.29-.81.29,0-.26-1.27-3.22-.41-3.22-2.53,0-8,2.89-10.42-.08-1.48-1.77-4.35-3.65-7-3.65-1.95,0,3.56,3.93,2.68,5.11-.73.64-7.74,1.82-8.46,1.82-.89,0-8.63,9.24-8.18,10.59.25.67,1.7.41,2.22.45-1.77,3.54-4.91-1.31-6.73,2.57-.11-1.17-2.71-7.44-4.84-7.44,0,0-4,1.33-4.77,1.44-.1.54.1,3.22-.77,3.22s-.36-1.54-1.22-1.55c-.4,0-1.29,2-1.43,2.22-.34-.34-.36-1-1-1-1.08,0,.19,2.35.26,2.71-3.58-.31-3.46,5-4.65,6.92-1.78,0-.1-1.37-2,.2-.17-.24-1.09-1.9-1.13-1.9-2.61,0,.49,4.9.39,5.45-.13-.09-1-1-1.26-1s-.39,2.86-.64,3.38c-.74-1.3-.55-4.88-1.18-5.59-2.46,2.91-13.63,23.18-18.86,17.1-2.59-2.85-23.49,12.66-25.23,13.59,0-1.07-.23-2.89-.17-3.7-2.51,2.85-3.82,7.62-5,11-1.47,4.55,4.57,8.68,1.24,11.77-.13-.57-.44-2.7-1.22-2.88-3.06-.69,1,4.33-.92,4.33-.15-.76-1.23-5.7-2.28-5.7,2.31,0,2.16,24.33,2.5,27.18,1.17,10.11-12,20.08,2.39,22.46,5.29,1,10.54-5.11,15.85-5.85,4.9-.7,10.68,2.18,14.58-1.66,6.38-6.3,17.13-8,25.87-9.89,7.38-1.52,12.87,2.1,18.88,2.11-.09,0-.29,2.26,1.71,2.26-1.4,3.63-.42-.25,1.32,3.54,0,0-.35,5.64-1.27,5.66-2,0,.61,3.46,1.76,3.46s.7-2.25,1.55-2.25c2.82,0,9.95-9.42,11.42-8.68-.75,1.12-9.86,13-10.09,12.3,1.32,3.42,7.79-5.23,8.14-5.3,7,0-11.27,10-10.47,7.79-1.31,4,8.21,0,8.88,0,7.53,0-2.36,13.67,6.25,13.67.64,0,1-.93,1.27-1.31a30.54,30.54,0,0,0,5.7,2.94c3.2,1.17,4.39-4,7.94-1.39,5.4,4,1.81,2,7.22.52,2.52-.61,14.21-4.22,15.27-6.09,5.3-9.27,18.5-23.49,26.92-29.08,3.41-2.25,10.35-14.45,9.88-18.38-.76-6.11,4.5-11.5,4-16.68C1286.7,523.71,1286.77,524.43,1286.72,523.8Z"/><path class="cls-3" d="M1225.32,468.59c1.38-2.33-2.08-1.3-2.49-1.2-2.36,4.37,3,3.12,3,2.72.29-2.82-2,.91-.48-1.52C1225.6,468.12,1225.2,468.8,1225.32,468.59Z"/><path class="cls-3" d="M1196.14,458.38c2.65,0,9.91-4.61,4.53-4.61C1200.8,453.71,1192.4,458.38,1196.14,458.38Z"/><path class="cls-3" d="M1124.13,502.41Z"/><path class="cls-3" d="M1139.78,496.08Z"/><path class="cls-3" d="M1166.34,451.65q-1.17-1.5-2.34,0Q1165.17,453.12,1166.34,451.65Z"/><path class="cls-3" d="M1160.1,450.36Z"/><path class="cls-3" d="M1214.26,602c1.35-.21,3-1.79,2-3.39-.77-1.33-4.1,3.69-2,3.39Z"/><path class="cls-3" d="M1228.73,604.35c-1.79.24-5.3.49-6.71,1.34-2.91,1.67-5-3.36-5-3.36-6.12,0-4,15.68-2.6,17.29,1.9,2.12,9.88-7,11.64-8.07.07-.44-.43,1.27-.11,1.4.66-.76,5.76-9.05,2.81-8.6Z"/><path class="cls-3" d="M1232.33,599.38c-.53-1.49-3.1,3.75-2.64,4.52-.48-.82,2.52.39,2.13.39,1.1,0,.51-4.88.51-4.91S1232.36,599.49,1232.33,599.38Z"/><path class="cls-3" d="M1288.43,636c-.68,0-2.82,1.05-.8,1.05C1288.13,637.07,1291.07,636,1288.43,636Z"/><path class="cls-3" d="M1289.13,634.5c-1.24.47-1.24.94,0,1.4C1290.38,635.44,1290.38,635,1289.13,634.5Z"/><path class="cls-3" d="M1284.76,632.41c-1.32.46-1.32.92,0,1.4C1286.08,633.34,1286.08,632.87,1284.76,632.41Z"/><path class="cls-3" d="M1365.21,588.73c-6.3,0-11.38,3.17-8.41-6.07-1.83,1.45-2.13,2.36-4.41,1.84,4.53-3.39,1.39-10,.11-12.47-.7-2.45-3.1,3.93-2.79,4.81,2.44,6.65-.58,10.45-3.55,15.83-1,1.78-7.54,3.27-7,5.72.28,1.5,3.5,1.09,3.71,2.18.61,3-6.23,7.85-6.17,2.95-2.21,1.55-4.3,1.48-5.68,3.59a22.7,22.7,0,0,1,1.91-4.79c-7.55,2.36-12.35,9.87-19.56,13.47-4.55,2.34-24.57,7.7-26,13.58-2,4.89,7.73,6.72,11.67,2.46.13-.25,37.16-24.65,37.26-24.62,8.53,2.33,12.59-5.49,18.52-10C1355,597.14,1368.29,588.73,1365.21,588.73Z"/><path class="cls-3" d="M1197.3,46.81c1.38.65,12.91.89,11.93-1.55-1.94-5-13.89.66-11.93,1.55C1197.68,47,1197.12,46.73,1197.3,46.81Z"/><path class="cls-3" d="M1069.3,28.24c1.64,1.37,14.64,5.92,16.83,2.51C1086.74,29.7,1070.84,26.71,1069.3,28.24Z"/><path class="cls-3" d="M1065.17,34.11c-1.44-.73-3.68,1.24-4.32,1.88a1.09,1.09,0,0,0,0,.83c.15.33,12.53,1.49,13.08.62,1.37-2.2-8.61-3.27-8.73-3.33Z"/><path class="cls-3" d="M1061.21,34.75c1.28-2.08-2.38-2.1-3.5-1.84C1057.86,33.63,1060.19,36.38,1061.21,34.75Z"/><path class="cls-3" d="M1046.67,33.63c-1.64-.86-2.93-1.15-4,.47,1.2.48,7.47,1.49,4-.47C1046.53,33.56,1046.9,33.77,1046.67,33.63Z"/><path class="cls-3" d="M1035.81,27.82c.81,1.21,1.28,1.83,2.93,1-.52-.66-4.46-3.46-2.93-1C1036,28.11,1035.69,27.63,1035.81,27.82Z"/><path class="cls-3" d="M1040.31,27.43c-.92,3.36,12.83,5.09,14.31,4.07,3.39-2.28,7.44.6,10.92-.93,5-2.22-8.85-7.23-7.71-2.76-1.68-.08-9.14-5.51-6.7,0-3.58-.23-9.73-5.35-10.82-.37C1040.23,27.7,1040.33,27.35,1040.31,27.43Z"/><path class="cls-3" d="M1067.72,24.53c.44,0,2.76-.06,3.1-.67C1072.59,20.56,1065.77,24.53,1067.72,24.53Z"/><path class="cls-3" d="M1084.38,26.24Z"/><path class="cls-3" d="M886.35,11.78c1.26.36,2.72,2.72,4.77,1.29.14,2.65,1.89-.19,3.26-.79-.2.18-1.9,1.25-1.65,1.82.06.13,22.45,2.7,22.63,2.44,2.87-3.86-11.76-6.76-13.34-6.76-.13.16,1.05-1.54,1.07-1C903,5,888.41,8.11,886.72,8.6a11.26,11.26,0,0,0,1.51,1c-.64.12-3.34,1.85-1.88,2.23C886.69,11.88,886.12,11.72,886.35,11.78Z"/><path class="cls-3" d="M917.86,18.54c.19-.36,14.45,1.53,15.9-1.51,1-2.43-11.33-3.11-10.56-1.88-3.46-4.92-4,.64-5.34,3.39C917.71,18.85,918,18.34,917.86,18.54Z"/><path class="cls-3" d="M910.58,23.76Z"/><path class="cls-3" d="M914.36,22.13c0-.62-3.54-.63-3.54,0S914.36,22.75,914.36,22.13Z"/><path class="cls-3" d="M912.57,23.76Z"/><path class="cls-3" d="M913.9,23.76a1.3,1.3,0,0,0,2.08,0A1.3,1.3,0,0,0,913.9,23.76Z"/><path class="cls-3" d="M918.18,24.28q3.18-.63,0-1.27Q915,23.66,918.18,24.28Z"/><path class="cls-3" d="M937.39,17.61c3.09,0-3.1,0,0,0C938.26,17.62,936.52,17.61,937.39,17.61Z"/><path class="cls-3" d="M938.13,17.88c0,.77,4.34.18,4.65.23,0-.11.09-.19.28-.23-.19,0-.28-.11-.28-.23C942.52,17.65,938.13,17.13,938.13,17.88Z"/><path class="cls-3" d="M945.28,21.7Z"/><path class="cls-3" d="M890.47,22.28c0,2,0-2,0,0C890.47,22.6,890.48,22,890.47,22.28Z"/><path class="cls-3" d="M893.52,21.07c0-1.25,0,1.25,0,0Z"/><path class="cls-3" d="M900.43,18c0,2.18,0-2.18,0,0Z"/><path class="cls-3" d="M881.3,8.67a2.83,2.83,0,0,0,2.41-.77c0-1.09-4.83-1.1-4.83,0A2.82,2.82,0,0,0,881.3,8.67Z"/><path class="cls-3" d="M874.41,27.76q2-.71,0-1.41Q872.42,27.06,874.41,27.76Z"/><path class="cls-3" d="M877.13,27.05q3.17-.71,0-1.41C875,26.1,875,26.58,877.13,27.05Z"/><path class="cls-3" d="M877.13,30q3.17-.81,0-1.62Q874,29.21,877.13,30Z"/><path class="cls-3" d="M870.22,32.18a1.93,1.93,0,0,0,2.71,0A1.88,1.88,0,0,0,870.22,32.18Z"/><path class="cls-3" d="M863,36.57c1.51-.4,1.51-.82,0-1.23Q860.76,36,863,36.57Z"/><path class="cls-3" d="M866,37c2.15-.42,2.15-.85,0-1.27C863.86,36.14,863.86,36.57,866,37Z"/><path class="cls-3" d="M860.43,38.94q2.88-.48,0-.94Q857.55,38.47,860.43,38.94Z"/><path class="cls-3" d="M881.46,33.86Z"/><path class="cls-3" d="M883.26,33.87c0,.68,3.74.68,3.74,0S883.26,33.16,883.26,33.87Z"/><path class="cls-3" d="M889.71,34a2.06,2.06,0,0,0-2.28,0A2.13,2.13,0,0,0,889.71,34Z"/><path class="cls-3" d="M892.07,33.34Z"/><path class="cls-3" d="M870.59,21.77c1.62-.58,1.63-1.18,0-1.78C869,20.59,869,21.19,870.59,21.77Z"/><path class="cls-3" d="M851.85,9.32c2.68-.56,2.68-1.11,0-1.67Q847.82,8.47,851.85,9.32Z"/><path class="cls-3" d="M848,14.1a2.78,2.78,0,0,0,2.36-.73c0-1.07-4.72-1.07-4.72,0A2.74,2.74,0,0,0,848,14.1Z"/><path class="cls-3" d="M812.57,24.61c-2.94.4-12.3,2.6-14.19,4.49C799.44,28,793.64,36,794,34.92c-.4,1.17,2.9.79,3.39,1.21-4.89,2.1-2.42,5.22-6.44,5.22-2,0,3.66,2.94,4.39,3-1.55.39,2.26,3.73,2.42.92,2.35.33,10.33,6.22,14.42,3.19-.42.31-10.07-5.43-8.76-8.89.82-2.43,7.18-8.8,9.66-8.8,6.28-3.21,15.93-2,21.58-6.62-5.4-3.77-15.89-.29-22.1.44Z"/><path class="cls-3" d="M784.46,55.46c.84,3,7.61.11,6.71-1.39-1.39-2-7.7-2.58-6.71,1.39C784.52,55.68,784.41,55.24,784.46,55.46Z"/><path class="cls-3" d="M777.28,11.08c6.84.75,12,1.57,18.57-.42.62,3.5,8.55-1.27,11.85-1.26,15.69,0-6.31-2.67-6.27-2.43-.1-1.24-13.71-.84-13.8-.84-3,0-10.81,4.89-10.35,5S777,11,777.28,11.08Z"/><path class="cls-3" d="M800.87,6.16c2.21.15,3,.67,5,0a.6.6,0,0,1-.07-.3C805.74,3.64,800.81,6.16,800.87,6.16Z"/><path class="cls-3" d="M756.16,9.6c.44,1.57,6.64-.08,8.06-.61.28-.55-2.35,1.59-2.23,1.55,0,.56,14.33,2.31,14.47,1.26.15-2.09-3.46-.48-3.55-.59-.4,0,.35-.8-.19-.88A4.2,4.2,0,0,0,775,9.62c-.72-.7-19.25-2.55-18.83,0C756.2,9.77,756.15,9.55,756.16,9.6Z"/><path class="cls-3" d="M781.13,7.72Z"/><path class="cls-3" d="M693.05,106.53c0,.09,1.72-1.7.81-1.79-2.93-.29-6.3,3.58-4.23,6.15C690.78,112.28,692.92,106.65,693.05,106.53Z"/><path class="cls-3" d="M677.73,119.14c.31.25,2,1.1,2.13,0,.35-2.17-4.24-1.26-2.13,0C677.89,119.28,677.68,119.12,677.73,119.14Z"/></g></g></g></g></svg>