<svg xmlns="http://www.w3.org/2000/svg" xmlns:xlink="http://www.w3.org/1999/xlink" viewBox="0 0 576 288"><defs><style>.cls-1{isolation:isolate;}.cls-2{fill:url(#radial-gradient);}.cls-3{mix-blend-mode:screen;}.cls-4{mix-blend-mode:multiply;fill:url(#radial-gradient-2);}.cls-5{fill:url(#radial-gradient-3);}.cls-6{fill:url(#radial-gradient-4);}.cls-7{fill:url(#radial-gradient-5);}.cls-8{fill:url(#radial-gradient-6);}.cls-9{fill:url(#radial-gradient-7);}.cls-10{fill:url(#radial-gradient-8);}.cls-11{fill:url(#radial-gradient-9);}.cls-12{fill:url(#radial-gradient-10);}.cls-13{fill:url(#radial-gradient-11);}.cls-14{fill:url(#radial-gradient-12);}.cls-15{fill:url(#radial-gradient-13);}.cls-16{fill:url(#radial-gradient-14);}.cls-17{fill:url(#radial-gradient-15);}.cls-18{fill:url(#radial-gradient-16);}.cls-19{fill:url(#radial-gradient-17);}.cls-20{fill:url(#radial-gradient-18);}.cls-21{fill:url(#radial-gradient-19);}.cls-22{fill:url(#radial-gradient-20);}.cls-23{fill:url(#radial-gradient-21);}.cls-24{fill:url(#radial-gradient-22);}.cls-25{fill:url(#radial-gradient-23);}.cls-26{fill:url(#radial-gradient-24);}.cls-27{fill:url(#radial-gradient-25);}.cls-28{fill:url(#radial-gradient-26);}.cls-29{fill:url(#radial-gradient-27);}.cls-30{fill:url(#radial-gradient-28);}.cls-31{fill:url(#radial-gradient-29);}.cls-32{fill:url(#radial-gradient-30);}.cls-33{fill:url(#radial-gradient-31);}.cls-34{fill:url(#radial-gradient-32);}.cls-35{fill:url(#radial-gradient-33);}.cls-36{fill:url(#radial-gradient-34);}.cls-37{fill:url(#radial-gradient-35);}.cls-38{fill:url(#radial-gradient-36);}.cls-39{fill:url(#radial-gradient-37);}.cls-40{fill:url(#radial-gradient-38);}.cls-41{fill:url(#radial-gradient-39);}.cls-42{fill:url(#radial-gradient-40);}.cls-43{fill:url(#radial-gradient-41);}.cls-44{fill:url(#radial-gradient-42);}.cls-45{fill:url(#radial-gradient-43);}.cls-46{fill:url(#radial-gradient-44);}.cls-47{fill:url(#radial-gradient-45);}.cls-48{fill:url(#radial-gradient-46);}.cls-49{fill:url(#radial-gradient-47);}.cls-50{fill:url(#radial-gradient-48);}.cls-51{fill:url(#radial-gradient-49);}.cls-52{fill:url(#radial-gradient-50);}.cls-53{fill:url(#radial-gradient-51);}.cls-54{fill:url(#radial-gradient-52);}.cls-55{fill:url(#radial-gradient-53);}.cls-56{fill:url(#radial-gradient-54);}.cls-57{fill:url(#radial-gradient-55);}.cls-58{fill:url(#radial-gradient-56);}</style><radialGradient id="radial-gradient" cx="288" cy="144" r="277.04" gradientUnits="userSpaceOnUse"><stop offset="0.12" stop-color="#003277"/><stop offset="0.21" stop-color="#002c6c"/><stop offset="0.55" stop-color="#001445"/><stop offset="0.83" stop-color="#00052d"/><stop offset="1" stop-color="#000024"/></radialGradient><radialGradient id="radial-gradient-2" cx="416.1" cy="143.3" r="118.32" gradientUnits="userSpaceOnUse"><stop offset="0" stop-color="#347e74"/><stop offset="0.17" stop-color="#2b7370"/><stop offset="0.46" stop-color="#145764"/><stop offset="0.52" stop-color="#0f5161"/><stop offset="0.87" stop-color="#0f1461"/><stop offset="1" stop-color="#0f2461"/></radialGradient><radialGradient id="radial-gradient-3" cx="416.11" cy="140.4" r="114.38" xlink:href="#radial-gradient-2"/><radialGradient id="radial-gradient-4" cx="416.03" cy="140.74" r="114.65" xlink:href="#radial-gradient-2"/><radialGradient id="radial-gradient-5" cx="416.03" cy="140.5" r="114.43" xlink:href="#radial-gradient-2"/><radialGradient id="radial-gradient-6" cx="416.03" cy="140.52" r="114.45" xlink:href="#radial-gradient-2"/><radialGradient id="radial-gradient-7" cx="416.01" cy="140.46" r="114.39" xlink:href="#radial-gradient-2"/><radialGradient id="radial-gradient-8" cx="416.02" cy="140.47" r="114.4" xlink:href="#radial-gradient-2"/><radialGradient id="radial-gradient-9" cx="416.05" cy="140.48" r="114.42" xlink:href="#radial-gradient-2"/><radialGradient id="radial-gradient-10" cx="416.03" cy="140.52" r="114.44" xlink:href="#radial-gradient-2"/><radialGradient id="radial-gradient-11" cx="416.03" cy="140.5" r="114.42" xlink:href="#radial-gradient-2"/><radialGradient id="radial-gradient-12" cx="416.1" cy="140.49" r="114.46" xlink:href="#radial-gradient-2"/><radialGradient id="radial-gradient-13" cx="416.03" cy="140.48" r="114.41" xlink:href="#radial-gradient-2"/><radialGradient id="radial-gradient-14" cx="416.04" cy="140.49" r="114.42" xlink:href="#radial-gradient-2"/><radialGradient id="radial-gradient-15" cx="416.03" cy="140.48" r="114.41" xlink:href="#radial-gradient-2"/><radialGradient id="radial-gradient-16" cx="416.02" cy="140.48" r="114.41" xlink:href="#radial-gradient-2"/><radialGradient id="radial-gradient-17" cx="416.03" cy="140.48" r="114.41" xlink:href="#radial-gradient-2"/><radialGradient id="radial-gradient-18" cx="416.04" cy="140.14" r="114.11" xlink:href="#radial-gradient-2"/><radialGradient id="radial-gradient-19" cx="416.03" cy="140.45" r="114.37" xlink:href="#radial-gradient-2"/><radialGradient id="radial-gradient-20" cx="416.02" cy="140.53" r="114.46" xlink:href="#radial-gradient-2"/><radialGradient id="radial-gradient-21" cx="416.06" cy="140.4" r="114.34" xlink:href="#radial-gradient-2"/><radialGradient id="radial-gradient-22" cx="415.99" cy="140.5" r="114.41" xlink:href="#radial-gradient-2"/><radialGradient id="radial-gradient-23" cx="416.03" cy="140.49" r="114.42" xlink:href="#radial-gradient-2"/><radialGradient id="radial-gradient-24" cx="416.04" cy="140.5" r="114.43" xlink:href="#radial-gradient-2"/><radialGradient id="radial-gradient-25" cx="416.03" cy="140.41" r="114.35" xlink:href="#radial-gradient-2"/><radialGradient id="radial-gradient-26" cx="416.04" cy="140.48" r="114.41" xlink:href="#radial-gradient-2"/><radialGradient id="radial-gradient-27" cx="416.02" cy="140.5" r="114.43" xlink:href="#radial-gradient-2"/><radialGradient id="radial-gradient-28" cx="416.03" cy="140.58" r="114.36" xlink:href="#radial-gradient-2"/><radialGradient id="radial-gradient-29" cx="416.03" cy="140.48" r="114.41" xlink:href="#radial-gradient-2"/><radialGradient id="radial-gradient-30" cx="416.05" cy="140.48" r="114.4" xlink:href="#radial-gradient-2"/><radialGradient id="radial-gradient-31" cx="416.05" cy="140.48" r="114.39" xlink:href="#radial-gradient-2"/><radialGradient id="radial-gradient-32" cx="416.02" cy="140.48" r="114.42" xlink:href="#radial-gradient-2"/><radialGradient id="radial-gradient-33" cx="416.04" cy="140.45" r="114.39" xlink:href="#radial-gradient-2"/><radialGradient id="radial-gradient-34" cx="416.01" cy="140.49" r="114.44" xlink:href="#radial-gradient-2"/><radialGradient id="radial-gradient-35" cx="416.07" cy="140.5" r="114.38" xlink:href="#radial-gradient-2"/><radialGradient id="radial-gradient-36" cx="416.05" cy="140.49" r="114.4" xlink:href="#radial-gradient-2"/><radialGradient id="radial-gradient-37" cx="416.1" cy="140.5" r="114.34" xlink:href="#radial-gradient-2"/><radialGradient id="radial-gradient-38" cx="415.98" cy="140.47" r="114.46" xlink:href="#radial-gradient-2"/><radialGradient id="radial-gradient-39" cx="416.03" cy="140.48" r="114.41" xlink:href="#radial-gradient-2"/><radialGradient id="radial-gradient-40" cx="416.03" cy="140.49" r="114.42" xlink:href="#radial-gradient-2"/><radialGradient id="radial-gradient-41" cx="416.03" cy="140.48" r="114.41" xlink:href="#radial-gradient-2"/><radialGradient id="radial-gradient-42" cx="415.98" cy="140.55" r="114.46" xlink:href="#radial-gradient-2"/><radialGradient id="radial-gradient-43" cx="416.03" cy="140.49" r="114.42" xlink:href="#radial-gradient-2"/><radialGradient id="radial-gradient-44" cx="415.99" cy="140.48" r="114.38" xlink:href="#radial-gradient-2"/><radialGradient id="radial-gradient-45" cx="416.07" cy="140.48" r="114.5" xlink:href="#radial-gradient-2"/><radialGradient id="radial-gradient-46" cx="416.02" cy="140.52" r="114.46" xlink:href="#radial-gradient-2"/><radialGradient id="radial-gradient-47" cx="416.03" cy="140.49" r="114.42" xlink:href="#radial-gradient-2"/><radialGradient id="radial-gradient-48" cx="416.04" cy="140.48" r="114.41" xlink:href="#radial-gradient-2"/><radialGradient id="radial-gradient-49" cx="416.07" cy="140.47" r="114.44" xlink:href="#radial-gradient-2"/><radialGradient id="radial-gradient-50" cx="416.03" cy="140.49" r="114.42" xlink:href="#radial-gradient-2"/><radialGradient id="radial-gradient-51" cx="416.03" cy="140.49" r="114.42" xlink:href="#radial-gradient-2"/><radialGradient id="radial-gradient-52" cx="416.02" cy="140.49" r="114.39" xlink:href="#radial-gradient-2"/><radialGradient id="radial-gradient-53" cx="416.03" cy="140.49" r="114.42" xlink:href="#radial-gradient-2"/><radialGradient id="radial-gradient-54" cx="416.03" cy="140.48" r="114.41" xlink:href="#radial-gradient-2"/><radialGradient id="radial-gradient-55" cx="416.03" cy="140.48" r="114.41" xlink:href="#radial-gradient-2"/><radialGradient id="radial-gradient-56" cx="416.03" cy="140.48" r="114.41" xlink:href="#radial-gradient-2"/></defs><title>bg</title><g class="cls-1"><g id="Layer_1" data-name="Layer 1"><rect class="cls-2" width="576" height="288"/><g class="cls-3"><path class="cls-4" d="M531.72,145.25A115.62,115.62,0,1,1,416.1,29.63,115.62,115.62,0,0,1,531.72,145.25Z" transform="translate(0 0)"/><g class="cls-3"><path class="cls-5" d="M365.63,42.48a.49.49,0,0,0-.17,0,5.09,5.09,0,0,0-.68.32l-.72.6s-.08.07-.06.08.32.14,1.27-.52C365.79,42.64,365.73,42.5,365.63,42.48Z" transform="translate(0 0)"/><path class="cls-6" d="M364.1,41.88s-.05,0-.08,0-.52.23-.58.26-.13.12-.11.14a.63.63,0,0,0,.33-.11A2.61,2.61,0,0,0,364.1,41.88Z" transform="translate(0 0)"/><path class="cls-7" d="M366.88,40.64a2.08,2.08,0,0,0,.55-.18s.27-.11.67-.32c0,0,.46-.24.53-.3s0,0-.11,0a29.71,29.71,0,0,0-3.23,1.43l.86-.33A4.33,4.33,0,0,1,366.88,40.64Z" transform="translate(0 0)"/><path class="cls-8" d="M365.09,41.66h0s0,0,.67-.31l.67-.3.08-.06-.13,0a12.15,12.15,0,0,0-3.51,1.76,17,17,0,0,0,2.22-1A.16.16,0,0,1,365.09,41.66Z" transform="translate(0 0)"/><path class="cls-9" d="M367,41.48l.11-.08.17-.17.34-.3c.07-.06.07-.07.07-.08h-.06a4.38,4.38,0,0,0-1.06.66h0c.06,0,.06,0-.1.26C366.47,41.77,367,41.48,367,41.48Z" transform="translate(0 0)"/><path class="cls-10" d="M362.35,44.86l-.11,0a2.11,2.11,0,0,0-.31.12,5,5,0,0,0-1,.65h0a5.67,5.67,0,0,0,1.25-.58C362.33,45,362.44,44.88,362.35,44.86Z" transform="translate(0 0)"/><path class="cls-11" d="M363.18,46.75s-.09-.06-.33,0l-.14,0-1.19.24a7.42,7.42,0,0,0-2.3,1.17s0,0,0,0,.27,0,.4.06.13.22.09.28a9.55,9.55,0,0,1-1.41,1c-.12.06-.13.06-.2.06-.08-.31.3-.41.31-.68a3.18,3.18,0,0,0-1.29.83.12.12,0,0,0,0,.1c.06.23.18.43.23.67,0,.09.08.17.07.27s-.11.32-.08.5a.25.25,0,0,0,0,.09c.3.31,3-1.25,3.69-2,.16-.17.63-1.09.32-1.08a4.59,4.59,0,0,0-.95.25c.63-.42,1.33-.71,1.95-1.13A9,9,0,0,0,363.18,46.75Z" transform="translate(0 0)"/><path class="cls-12" d="M355.52,46.64c1.16-.52,2.15-1.34,3.28-1.9a8.36,8.36,0,0,0-1.2.79l3.89-2.22a.91.91,0,0,0,.31-.26.27.27,0,0,0-.15,0,70.85,70.85,0,0,0-7.51,4.3c.58-.08.95-.56,1.45-.8Z" transform="translate(0 0)"/><path class="cls-13" d="M355.54,54.85h-.06a.93.93,0,0,0-.26.16,15.41,15.41,0,0,1-1.43,1.25c-.92.56-1.19.73-1.24.87l0,0a1.37,1.37,0,0,0,.36,0c.35-.08.39-.07.45,0s.1.28.26.34a2.49,2.49,0,0,0,.55-.06,4.33,4.33,0,0,0,2.24-1c.18-.21-.26-1-.26-1A1.36,1.36,0,0,0,355.54,54.85Z" transform="translate(0 0)"/><path class="cls-14" d="M357.75,48.19a.69.69,0,0,0-.27,0,3.31,3.31,0,0,0-1.49.83h0c.08,0,.17,0,.25,0s0,.07-.06.24-.18.38,0,.33a7.41,7.41,0,0,0,1.23-.91C357.82,48.36,357.92,48.2,357.75,48.19Z" transform="translate(0 0)"/><path class="cls-15" d="M395.4,32.88a6.38,6.38,0,0,1-2.84,1.31,37.28,37.28,0,0,0-4.22,1.41c-1.11,1.48,1.67,2,1.71,2,6.91-.51,7-.43,7.48,0,0,0,3.25,3.6,2.21,5.54-.43.79-.43.82-.4.93.07.41.57.45.72.8.22.54,0,1.16.3,1.68.91-.21,1.64-1.16,2.72-.68a1.59,1.59,0,0,1,1,2.33c-.76.9-2.15.86-2.83,1.88a4.39,4.39,0,0,0-.46,3c.13.42,5.53,9.56,8.11,10.43-1.29-19-2.25-27.64-3.56-31.75,1.18,3.61,2.13,10.7,3.56,31.75,6.47,1.25,6.61,1.09,7,.63.69-.77,1.85-6.68,1.86-6.74.17-.87-.29-1.79.21-2.63.26-.44.29-.45,1.91-.94,5.09-1.54,5.09-1.54,5.23-2.51s.21-1.54,1.13-2c2.22-1.13,4.78-1.28,7-2.43A22.53,22.53,0,0,0,436,45.46s.43-.32-.08-1c-.76-1-1.91-1.54-2.64-2.55a10.8,10.8,0,0,1-.77-2.15c-.38-.81-.21-1,.25-1.48.63-.64.19-.9-1.11-1.67-4.23-2.49-4.26-2.55-4.62-3.11l.07-.18.22-.08C426.07,32,423.56,33,423,30.7l-.42-.21c0-.1.06-.25.09-.35l.17,0c-.56-.08-2.16-.18-2.17-.18a13.18,13.18,0,0,0-2.69.22c-.93.16-1.71-.44-2.6-.48-1.25,0-4,0-5.1,0-2,.11-2,.11-2.26.27h0a17.49,17.49,0,0,0-3.25.32h0s-.05,0-.06,0,0,0,0,0h.07a8.79,8.79,0,0,1,1.67.19,11.21,11.21,0,0,1-1.54,0,11.58,11.58,0,0,0-1.51.06,32.51,32.51,0,0,0-8.89,2.25C394.66,32.88,394.66,32.88,395.4,32.88Z" transform="translate(0 0)"/><path class="cls-16" d="M375.89,54.68c.26-.7.14-1-.35-.94,0,0-1.48.39-1.75,1-.16.37.46,1.35.7,1.51C375.09,56.68,375.88,54.7,375.89,54.68Z" transform="translate(0 0)"/><path class="cls-17" d="M386.36,33.84c-.32.14-.66.26-1,.38,1.06-.25,4.47-1.19,5-1.34a55.92,55.92,0,0,1-6,1.77,1.5,1.5,0,0,0-.76.33,2.14,2.14,0,0,1-.52,1.09c-1-.31-3.67,1.23-3.77,1.31.24.11.51.06.73.2l0,.12a6.24,6.24,0,0,0,1.6-.48c-1.95,1.06-2.18.81-2.32.64-1.48,0-1.57.6-1.6.87-.85.55-1.94.61-2.68,1.34l.07.11A7.87,7.87,0,0,0,377,39.9c1.14-.23,2.15-1,3.4-.76-.1.22-.1.22-.36.42.83.16,3.49-1.13,3.25-1.78l-.3-.08a10.07,10.07,0,0,1,2.36-1.49c2.37-.57,3.2-1.46,3.22-1.66l-.12,0a14.31,14.31,0,0,0,3.89-1.29,1.69,1.69,0,0,0-.56.06L397,31.65c-1.28.18-1.36.19-1.84.23,1.23-.33,2.5-.52,3.73-.83-1.19,0-3.18.25-3.2.25s-4.82.82-5.85,1.22a.4.4,0,0,0,.19.15,1.61,1.61,0,0,1-.87.06c-.35,0-4.46,1-4.88,1.46C384.53,34.29,384.58,34.31,386.36,33.84Z" transform="translate(0 0)"/><path class="cls-18" d="M367.15,42.12c-.1.13-.16.29-.26.41a3.54,3.54,0,0,1-.68.58l.17-.41a.76.76,0,0,0,.06-.2,1.25,1.25,0,0,0-.89.47h.14v0a10.12,10.12,0,0,1-1.7.8c.08,0,.17,0,.26,0-.08.14-.08.14-.07.17s.1,0,1.68-.49c-.5.28-1.83,1-1.93,1.35v0s1.8-.67,2-.79a9.35,9.35,0,0,0,1.16-1,.19.19,0,0,1,0,.16l0,0c.47-.44.47-.44,1.69-1.45.26-.22.28-.23.32-.3a.28.28,0,0,0-.18,0s-1.59.47-1.75.56Z" transform="translate(0 0)"/><path class="cls-19" d="M384.47,54.79c.74-.06,2.37,2,2.38,2,.39.51.8,1,1.16,1,1-.19,2.54-4.08,2.55-4.12a1.14,1.14,0,0,0,.07-.41l-7.44-1.69a10.28,10.28,0,0,1,2.19-1.11c.79-.34,1.18-.52,1.15-.72-.06-.54-2.67-3-3.94-3.22a5.83,5.83,0,0,1-1.71-.18c-.58-.29-.5-1.23-1.3-1.29a11.84,11.84,0,0,0-3.44,1c-1.16.44-1.17.44-1.35.43a5.92,5.92,0,0,1-.23-2.07,7,7,0,0,0-2.38.14c-2.24.53-8.91,6.12-7.66,7s5.53,0,6.11-.31c-.09-.35-.14-.59,1.72-.79,1.59-.18,1.82-.56,2-.82a12.56,12.56,0,0,1,1.41,1.1c.55.58.78,1.37,1.29,2,.64.77,2.11.68,2.13,2.09,0,0-.32,3.19-4.72,4.51-1.32.39-2.75.32-4,1a1.16,1.16,0,0,0-.41,1.37c.24.22,1,.31,3.33-.47,1.77-.6,1.77-.6,4.91.78-.25.27-.25.27-1.52.74.7.62,6.07,1.74,7.17,1.13,0-.17,0-.17-.32-.31a21,21,0,0,1-2.54-2.29,6.18,6.18,0,0,1,3.52,1.16c.2.14.35.24.45.21.6-.19,1.6-2.44,1.12-2.94-1-1.09-3-.95-3.58-2.64C382.08,55.55,384.45,54.79,384.47,54.79Z" transform="translate(0 0)"/><path class="cls-20" d="M360.16,44.19c.06.05.48-.15.82-.36l.21-.14h-.06A5.74,5.74,0,0,0,360.16,44.19Z" transform="translate(0 0)"/><path class="cls-21" d="M401.33,48.38l1.13-.22s.3-.13.37-.35a.31.31,0,0,0-.05-.3c-.1-.17-.31-.22-.43-.37a.41.41,0,0,1-.08-.24,0,0,0,0,0,0,0,.83.83,0,0,0-.54,0c-.51.11-2,.95-1.17,1.44A1.19,1.19,0,0,0,401.33,48.38Z" transform="translate(0 0)"/><path class="cls-22" d="M379,44.46l0,0A5.14,5.14,0,0,0,376.2,44c-1,.17-.71.86-.47,1.06C376.51,45.66,379,44.47,379,44.46Z" transform="translate(0 0)"/><path class="cls-23" d="M371.06,39.13a7,7,0,0,0-1,.43.58.58,0,0,0,.14,0,2.86,2.86,0,0,1,1-.13c-.05.18-.3.18-.34.36s.92-.26,1-.29a4.87,4.87,0,0,0,1.31-1.21c-.13,0-.24.07-.37.07.12-.22.4-.21.54-.38,0,0,0,0-.09,0a15.67,15.67,0,0,0-2.23.93c.2.06.37-.08.57-.07C371.64,38.9,371.53,39,371.06,39.13Z" transform="translate(0 0)"/><path class="cls-24" d="M366.75,43.88c-.22.15-.29.2,0,.41s1,0,1.62-.51c.35-.3,1.07-1,.74-1.07l-.14,0A15.32,15.32,0,0,0,366.75,43.88Z" transform="translate(0 0)"/><path class="cls-25" d="M376.51,38.53a0,0,0,0,1,0,0l-.08,0-.07,0c-.46.14-.91.32-1.36.45s-1.08.27-1.61.44a3.85,3.85,0,0,0-.69.24,14.31,14.31,0,0,0,2.52-.45,3.18,3.18,0,0,0,1.16-.58A.81.81,0,0,0,376.51,38.53Z" transform="translate(0 0)"/><path class="cls-26" d="M372.68,39.34l0,0c.17,0,1.75-.69,2.21-.9.2-.09.24-.13.24-.22s-.15-.05-.15-.15,0-.09,0-.13v0a.16.16,0,0,0-.07,0,.32.32,0,0,0-.21,0,.79.79,0,0,0-.24.14c-.35.24-.58.63-1,.79S372.78,39.09,372.68,39.34Z" transform="translate(0 0)"/><path class="cls-27" d="M376.36,37a6.35,6.35,0,0,0,1.14-.6.25.25,0,0,0-.12,0s-1.13.36-1.45.52-.25.31-.25.31S376,37.13,376.36,37Z" transform="translate(0 0)"/><path class="cls-28" d="M378.77,36.44c.48-.14.63-.18.79-.12,0,0,0,0,0,.06a4,4,0,0,1-.77.29,11.27,11.27,0,0,0-1.71.61c-.29.18-.32.53-.19.58s0,0,.86-.22c.33-.1.68,0,1-.14.8-.29,1.48-.81,2.25-1.15.48-.22,1-.28,1.48-.52a.18.18,0,0,0,.1-.07s0,0-.37-.1a0,0,0,0,1,0,0,1.83,1.83,0,0,1,.24-.13c.66-.31.66-.33.68-.4s-.15,0-.22-.05c.11-.14.36-.19.3-.43.15-.17.37-.22.5-.4h-.14a38.27,38.27,0,0,0-4,1.47,1.36,1.36,0,0,0,.45-.06,3.49,3.49,0,0,1-1.07.37,2.63,2.63,0,0,0-1.34.71A6.36,6.36,0,0,0,378.77,36.44Z" transform="translate(0 0)"/><path class="cls-29" d="M369.55,43.92c.07,0,8.17-.84,10.32-3,.58-.58-.85-.67-.87-.67a32,32,0,0,0-5.14,1.54c-.67.28-1.2-.35-1.06-.51a1,1,0,0,1,.43-.18c1.31-.37.66-.79.52-.8a6.23,6.23,0,0,0-1,.23c-.38,0-.75-.1-1.14-.06-.11,0-.49.07-.74.13a2.54,2.54,0,0,0-.83.91,1.34,1.34,0,0,0,.5-.12c.36-.12.86-.3,1-.23s-.44,1-.48,1c-.39.37-.95.51-1.31.92C369,43.93,369.32,43.92,369.55,43.92Z" transform="translate(0 0)"/><path class="cls-30" d="M531.72,144c-.18-3.23-.33-7.53-.67-10.75l-.39-2.68c-.77-2.55-.84-3-2.36-12l.07.11c-3.71-12.29-3.71-12.29-3.77-12.88l0,0a71.76,71.76,0,0,0-3.68-9l-4-7.75a15.7,15.7,0,0,0-4.22-3.91A14.57,14.57,0,0,1,517,89.14c-1.52-2.49-3.48-5.86-5.1-8.29-7-9.49-7.09-9.67-11.4-14.31l-4.6-4.66,0,0c-.17-.16-.34-.32-.52-.47a25.88,25.88,0,0,0,2.19,2.36c-.35-.2-.64-.47-1-.7a11.2,11.2,0,0,0,2.27,2.29l-.18.12c-3.21-2.62-5.95-5.77-9.19-8.35,1.62,1,2.9,2.5,4.66,3.32-.41-.76-5.34-5-8.59-7a16.51,16.51,0,0,1-2.83-1.87,3.83,3.83,0,0,1,.43.17,7.51,7.51,0,0,0-1.05-.71l-.16.13a10.57,10.57,0,0,1-2.16-1.28l.46.16c-.27-.62-3.12-1.93-3.33-2a2.48,2.48,0,0,0,.61.88c-1-.34-1.49-1.39-2.47-1.74.18.45.67.66.86,1.11-.36.78-.36.78-.3,1.25A39.87,39.87,0,0,0,478,54.34c1.71,2.63,1.64,3.55,1.63,3.64-.33,2.45-.33,2.45-1.68,3.41-.49.35-.48.52-.21,1.17,0,.08,3.62,8.48,6.93,7,1.07-.5.54-2.26.28-3.1.27.19,6.21,6.09,7.31,8,.53.89,1,1.72,1.94,1.72a6.71,6.71,0,0,0-.3-3.72c-1.32-2.46-1-2.73-.35-3.35,0-.59-.05-.81-1.77-2-1.19-.78-1.19-.78-2.81-3.4-.61-1,.41-2.24-.5-3.19a25.22,25.22,0,0,1-2.45-2.61c-.05-.1-.1-.22-.14-.31l.12-.19c.88.3,3.84,2.25,4.06,2.86l-.25,0c2.3,5.11,2.3,5.11,4.46,7.13,1.9,1.77,4.78,1.5,6.68,3.24a3.85,3.85,0,0,1-.91-.34l-.18.11a6.42,6.42,0,0,0,.41.65,22.47,22.47,0,0,0-3.32-1c1.26,1.73,3.06,3,4,5-1.23,0-1.32-1.85-2.65-1.74l-.13.21s1.5,2.76,1.66,3S501.1,78,501,78.61c-.76-.07-.76-.07-.91,0-.1.24-.14.49-.24.73l.13.17h0c-3.5-.25-3.5-.25-3.52.09l-.48.3a9,9,0,0,0-2.61-.88l1.69.3a3.45,3.45,0,0,0-2.41-.72c-.46,0-.57,0-1.87-1.46-1-1.1-2.08-2.69-2-4,0-.57-.83-3-1.46-3-.08,0-1.89,0-1.58.87a41.1,41.1,0,0,0,4.11,6.35c.67.77.7.87.72.92s-.11.11-.6.21l-1.17.19c-.11.15-.24.34-.35.48-1.85,0-1.85,0-2.35.44a18,18,0,0,0,.89,3.17l-.3.53a4.43,4.43,0,0,0-2.41.28,9.34,9.34,0,0,0,.67,1.72,5.68,5.68,0,0,1-1.31.64,3.54,3.54,0,0,1-.27,1.24,3.9,3.9,0,0,1-2.84-.87,12.86,12.86,0,0,0,.71,1.1c-.06.17-.13.4-.19.58a8.36,8.36,0,0,1-1.22.42,3,3,0,0,0-2.26-.59l-.24.54,1.16,1-.48.34c8.35,2.32,7,10.71,7,10.78-3.89-.28-7.64-1.44-11.5-1.83a6.9,6.9,0,0,0,.74,1c0,.11.43,10.47,1.76,10.86-.36,3.2-.36,3.2-.42,3.49,2.7-.21,3.26-.26,4.42,0,.45,1.82.45,1.82.47,1.86l6.33-2.1c1.75-.22,2.19-2.43,1.24-3.92,1-4.16,1.06-4.18,3.67-5.21,0-3.36,0-3.36.32-3.59,1.21-1,2.15.6,3.28.61,1-1.83,1.88-3,3.49-1.63.08.07,8.91,10.22,9.78,13.06.66,2.15.36,2.19-3.37,2.7a19,19,0,0,0,3,3.21c.32-1-.31-2-.12-3l.55.07c.47-.7.66-1.53,1.09-2.24a7,7,0,0,1-.54-2.63l.57-.15c.22.31.52.72.76,1-.19-.91-.19-.91-3.18-4.51l.14-.57c-1.41-.63-2.52-1.12-6.27-8.78a2,2,0,0,1,.86-.71l8.49,10c0,.05,0,.05,2.56,7.32l2.69,6.16a9.39,9.39,0,0,0,.08-1.19,21,21,0,0,0-.85-4.23c-.92-4.58-.92-4.58-.47-4.92a4.39,4.39,0,0,1,2.9,2.53A7.12,7.12,0,0,0,518,112l.6,0c.56-4.16-2.41-7.77-1.9-11.93a1.66,1.66,0,0,1,1.08.05l-.24.52a4.35,4.35,0,0,0,1.35,1.14,3.09,3.09,0,0,1,0,1.87,22.08,22.08,0,0,1,1.27,2.07c2-1.16-1-3.21-.39-4.91.89-.19,1,.11,1.3.8l-.29.54c.31.5.31.5.77,2.29l-.33.48c1.45,3.57,4.73,6.35,4.59,10.61l-.5.28c-1.73-1.16-1.64-5-4.45-4.27a2,2,0,0,1-.43,1,10.47,10.47,0,0,0-1.13-.32,2.31,2.31,0,0,0,.54,1c-.64.55-1.51.21-2.21.56a6.87,6.87,0,0,0-.07,1.28l.53.16c.28,2.13.8,6.1,3.43,8.31.12-.12.28-.29.41-.41s0-.4,0-.57c.85.71,1.13,1.91,2.13,2.51a4.93,4.93,0,0,0,.26-1.15,2.9,2.9,0,0,0,.95.64c.43,8.08.5,9.32-.38,11.5-1.16-.1-1.35-.35-1.72-1.48a1.57,1.57,0,0,0-1,.41c-3.86-.28-3.51-5.89-7.54-6-.75,1.34-.16,2.89-.67,4.27l-.55.22c-.84-.61-9.69-8.66-10.32-9.71-.2-.33.06-.93.27-1.25.48-.77.48-.77.11-5.53a15.45,15.45,0,0,0-1.74-1c-.77.59-.77.59-4-.16a6.28,6.28,0,0,0-.79,1c-4.2-1.64-7.6,3-11.78,1.52l-.63-.05c-1.18.24-1.58.32-2.87-1.22l-.24-.16a4.79,4.79,0,0,0-.53.48c-.78,1-.19,2.32-1,3.29-1,1.2-2.76,1.18-3.64,2.49-.27.39-.14,1.08-.17,1.55-.26,5.08-.26,5.08-1.63,5.74a15,15,0,0,0-3.6,2.65c-.76,1.22-6.37,10.95-6.37,11-.23,2.6,1.49,4.78,1.54,7.32,0,2.14-3,3.15-2.05,5.62,1.44,3.7,3.44,7.13,5.15,10.7.72,1.5,6.11,6.65,7.13,6.55,5.07-.48,10-2.39,15.16-1.83a1,1,0,0,1,.49.27c.94.78.27,2.2,1.19,3s2.06.4,3.07.71c.67,2,.67,2-.16,4,8.73,1.62,14.24,3.09,18.22,5-3.92-1.9-9.58-3.42-18.22-5-2.31,5.41-2.31,5.41-1.95,7,.56,2.43,1.32,5.77-1.8,13.1-1.44,3.38-4.19,5.86-6.08,8.92-1.76,2.84-2,6.3-3.59,9.2C476.19,229.77,476,230,475,231a7.26,7.26,0,0,0-1.79,2.73c3.25,1,7.07-1.59,8.32-2.45l5-3.54,6.37-5.08c1.43-1.5,2.29-3.45,3.82-4.87,1.76-1.63,4.11-2.41,5.85-4.07,4.14-4,8-11.84,8.39-12.82,1.61-3.92,7.1-9.92,8.73-11.65,2.55-2.84,6-10.29,6.84-13.21-.65-.21-.65-.21-1.79,0-.26-.36-.26-.36.28-5a38.52,38.52,0,0,0-.23-5.15c-.09-4.46.78-8.89.39-13.37L524,138.47c.28.44.28.44.58,2.47a2.28,2.28,0,0,0,.64-1.13c2.88,10.63-.18,21.28.16,31.91,1.17-.55,1.17-.55,1.69-.43,3.08-6.64,3.08-6.64,3.23-7.5l-.1.63c.07-.35.16-.82.21-1.17l.06-.39.34-2.45h0c.14-1.13.31-2.53.57-6.35,0,.2,0,.39,0,.57C531.52,151.32,531.74,147.19,531.72,144ZM531,156.33c-.22-.48-.22-.48-.06-4.48-.11,1.27-.11,1.27-.18,1.83-.31-8.66-.18-9.45,0-10.55.5.77.71,7.17.63,10.85A11,11,0,0,1,531,156.33Z" transform="translate(0 0)"/><path class="cls-31" d="M528.49,118.5c0,.14.09.33.12.48l.58,2.58a.65.65,0,0,0,0-.13c.21,1.53.51,3,.81,4.57a74.87,74.87,0,0,0-2.52-11.56c-.23-.73-.46-1.41-.66-2.06,1.35,4.63,1.4,4.82,2,7.26C528.67,119.26,528.58,118.88,528.49,118.5Z" transform="translate(0 0)"/><path class="cls-32" d="M526.43,111.18c.05.15.11.3.17.44-.17-.55-.4-1.09-.52-1.66l.19.54-1.38-4.06,0,0a3,3,0,0,0-.26-.61c.54,1.61,1.2,3.64,2.13,6.5C526.67,112,526.55,111.62,526.43,111.18Z" transform="translate(0 0)"/><path class="cls-33" d="M530.76,131c-.17-1.67-.48-3.32-.8-5,.2,1.27.42,2.77.7,4.59C530.69,130.71,530.73,130.83,530.76,131Z" transform="translate(0 0)"/><path class="cls-34" d="M464.86,76.64l0,.1a11.53,11.53,0,0,0-.75,2.48c-.11.65-.07,1,.14,1.22.37.45,2.09.26,3.35-.54.32-.2.61-.44.94-.61s.92-.05,1.23-.48c.17-.24.1-.8-.21-1.65a3.79,3.79,0,0,0-.54-1,.93.93,0,0,1-.13-1.16,1.53,1.53,0,0,0,.13-1,1.66,1.66,0,0,0-.73-.92,2.73,2.73,0,0,0-.47-.27c-.39-.19-.83-.28-1.23-.46a1.22,1.22,0,0,1-.44-.3s0,0-.08,0-2.71.68-1.07,1.59a.72.72,0,0,0,.39.11.84.84,0,0,1-.24.14,4.81,4.81,0,0,0-1.58,1,1.08,1.08,0,0,0-.29,1,1,1,0,0,0,.58.62A5.29,5.29,0,0,0,464.86,76.64Z" transform="translate(0 0)"/><path class="cls-35" d="M356.76,46.07h0c-.25.13-2.32,1.33-2.43,1.47C354.44,47.54,354.55,47.54,356.76,46.07Z" transform="translate(0 0)"/><path class="cls-36" d="M519.75,125.65l.06,0s0,0,0,0l-1-1.28a1,1,0,0,0-.42-.28,6.5,6.5,0,0,1-1-.18,2.88,2.88,0,0,0-.6-.21c-.26,0-.33.23-.18.49C517,124.69,519.16,125.84,519.75,125.65Z" transform="translate(0 0)"/><path class="cls-37" d="M498.79,110.12c.21.22.64.11.72.51s-.06.72,0,1.07a.49.49,0,0,0,.37.37c.24.05,1.44-.33,1.47-1.3a2.19,2.19,0,0,0,0-.36c-.05-.41-.21-.79-.27-1.19s0-.87-.09-1.3c-.1-.68-.34-.76-.59-.79a2.35,2.35,0,0,0-1.66,1A2.81,2.81,0,0,0,498.79,110.12Z" transform="translate(0 0)"/><path class="cls-38" d="M492.79,109.93a7.12,7.12,0,0,0,.49-.58c.05-.19-.3-.36-.9-.42s-1.69.07-1.28.54a2.66,2.66,0,0,0,1.43.6A.34.34,0,0,0,492.79,109.93Z" transform="translate(0 0)"/><path class="cls-39" d="M498.79,104.47a.37.37,0,0,0-.16.39.94.94,0,0,0,.17.33s.94,1.11,1,1.13c.22-.1,0-1.76-.16-2.62a5.7,5.7,0,0,0-.49-1.44h0a.24.24,0,0,0-.07.14s0,0,0,.08a7.19,7.19,0,0,0,.07,1.23A.89.89,0,0,1,498.79,104.47Z" transform="translate(0 0)"/><path class="cls-40" d="M523.62,128.61a2.24,2.24,0,0,0,.6,0,7.78,7.78,0,0,0,.2-1.34v-.08c0-.13,0-.14-.06-.15s-.3.11-.46.1a.68.68,0,0,1-.34-.11c-.14-.08-.24-.24-.39-.31a.16.16,0,0,0-.21,0,2,2,0,0,0,.38,1.59A.65.65,0,0,0,523.62,128.61Z" transform="translate(0 0)"/><path class="cls-41" d="M345.08,54.78l0,0,.14,0c.66-.46,1.24-1,1.89-1.49,1.19-.83,2.48-1.52,3.65-2.37.27-.2.27-.2.62-.85l0-.07a4.11,4.11,0,0,0-1.08.56c.31-.26.31-.26.35-.47l0,0-.15.05c-1.46.61-1.46.61-7.93,5.93a4.53,4.53,0,0,0-1.47,1.8l.06,0C342.68,57.12,343.76,55.8,345.08,54.78Z" transform="translate(0 0)"/><path class="cls-42" d="M354.15,48.64a4.28,4.28,0,0,0,1.18-.55c2-1.12,3-1.56,3-1.56a18.79,18.79,0,0,0,1.93-.75c.49-.25,2.34-1.54,2.36-1.55.36-.25.38-.3.42-.36a1.07,1.07,0,0,0-.56.15c-.57.32-1.06.76-1.62,1.08.7-.69,1.52-1.24,2.2-2H363a11.76,11.76,0,0,0-2.41,1.52c0,.24-.36.83-2.13,1.24l0,0,.13-.15.05,0c.24-.27,1.06-.42.72-.8-.05,0-4.78,2.3-4.82,2.95a22.36,22.36,0,0,0,2.29-1.24c-.23.38-.65.5-1,.76.05,0,.07,0,.62-.3a7,7,0,0,1,1-.44,28.73,28.73,0,0,1-3.16,1.66C354,48.43,354,48.62,354.15,48.64Z" transform="translate(0 0)"/><path class="cls-43" d="M341,60.36c.34.09.6-.22.93-.2l.05.06c-.15.41-.54.64-.74,1a18.73,18.73,0,0,0,5.37-2.86,4.55,4.55,0,0,1,1.14-.78l.07,0a2.28,2.28,0,0,0-.17.35,6.72,6.72,0,0,0,1.37.41c1.13-.38,1.13-.38,2.24-1.62,0-.05.05-.05.05-.07s-.11,0-1.17.55a2.76,2.76,0,0,1,2-1.18c.27,0,.32,0,.42-.07s.58-.53.49-1c-.6-.34-.85-1-.53-1.39A30.43,30.43,0,0,0,355.17,50a2.17,2.17,0,0,0-.36-.12s0-.08,0-.12,0,0,0,0c-1.14.95-1.91,2.29-3.23,3-.13-.55.43-.72.59-1.11l-.1-.08a10.4,10.4,0,0,1-1.51.71c.16-.24.42-.4.56-.67l-.06-.05c-.74.22-1.29.8-2,1.07.44-.61,1.16-.88,1.66-1.42-.44,0-6.26,3.8-6.12,4.5l.23.12c-.12.19-.12.2-.81.62-1.16.7-1.21.84-1.2,1a.39.39,0,0,0,.21,0c.64-.13,1.17-.56,1.81-.7.45-.1.91.1,1.36,0A7.64,7.64,0,0,1,343.78,58C340.74,58.89,340.44,60.23,341,60.36Z" transform="translate(0 0)"/><path class="cls-44" d="M367.58,65.87c.09-.25-.16-.24-.37-.21a2.73,2.73,0,0,0-1.11.44.92.92,0,0,0-.1,1.05C366.33,67.43,367.44,66.23,367.58,65.87Z" transform="translate(0 0)"/><path class="cls-45" d="M366.09,63.74a.38.38,0,0,0,.21-.17.64.64,0,0,0-.17-.63c-.19-.18-.44-.29-.62-.48a10.11,10.11,0,0,0-.85-1.08,1.13,1.13,0,0,0-.2-.13c-.37-.23-.82-.19-1.19-.41s-.23-.47-.47-.61a.12.12,0,0,0-.1,0A11.32,11.32,0,0,0,361.18,62c-.14.21-.33.49-.46.7l-1.24,2c.73.06.73.06.79.43s.08.47.15.46a2.88,2.88,0,0,0,.69-.51,5.33,5.33,0,0,1,2.69-1.43C364.56,63.6,365.32,64,366.09,63.74Z" transform="translate(0 0)"/><path class="cls-46" d="M364.06,65.11a8.26,8.26,0,0,0-2.17.77c-.32.25-.37.93-.19,1.06.34.25,2.39-1,2.76-1.53C364.58,65.23,364.61,65,364.06,65.11Z" transform="translate(0 0)"/><path class="cls-47" d="M359.87,156.72c-.62.26-.26,1.23.12,1.37s1.87.39,1.84-.28A2,2,0,0,0,359.87,156.72Z" transform="translate(0 0)"/><path class="cls-48" d="M472.35,76.21c-.12,0-.1.08-.07.19l.78.06A2,2,0,0,0,472.35,76.21Z" transform="translate(0 0)"/><path class="cls-49" d="M396.8,84.46c.74-1,1.07-1.62,1-1.92a.24.24,0,0,0-.14,0,8.22,8.22,0,0,0-2.32,2.09c-1,1.24-1.71,2.71-2.7,4-.53.67-1.27,1.14-1.76,1.84-.2.27,0,.35,0,.39s.13.07,3.14.31a22.33,22.33,0,0,1,4.32.66,2.91,2.91,0,0,0,.51.12c.49,0,1-.46,1.47,0a1.67,1.67,0,0,1,.28,1c0,.32.17.35.26.34.48,0,1.08-1,1.14-1.77a7,7,0,0,0-1.83-4.26c-.5-.54-.5-.54-2.27-.16-.54.12-.66,0-.78-.44-.23-.85-.44-1-.77-1.17-.17-.09-.17-.15-.09-.31A4.52,4.52,0,0,1,396.8,84.46Z" transform="translate(0 0)"/><path class="cls-50" d="M467.06,68.79c.09.62-.38,1.19-.13,1.81.18.08.58,0,1.41-.6.31-.23.58-.43.78-.32.86.47-.13,1.4.16,2.07a2.66,2.66,0,0,0,2.18,1.78c1.39.37,1.57.41,1.82.59,0,.22-.08.45,0,.66.37.67,1,1.12,1.36,1.82s-.7.3-1.34,0c-.28-.13-.28-.13-1.06-.19.32.91,1.34,1.35,1.54,2.33.11.52-.38.8-1.08,1.14-.19.09-.48.23-.37.44s.36.47,2.05.43c.71,0,2.2-.07,2.24.42s-.3.44-.81.43a1,1,0,0,0-.84.31c-.37.32-.42.84-.74,1.19s-.93.72-1.33,1.15c0,0,0,.1,0,.14.22.05.22.05,3.44-.35,1.63-.21,3.28-.08,4.91-.32h.06l2.79-.94a.19.19,0,0,0,0-.1c-.58-.57-1.32-.06-1.95-.29-.3-.84.48-1.61.16-2.45-.57-1.51-1.16-1.48-1.64-1.45-1.08,0-1.82-1.46-1.82-1.48a.21.21,0,0,1,0-.07c.07,0,.07,0,.91.17.39.13.91.32.88.12v0a2.42,2.42,0,0,0-.45-.45c-1.32-1-3-1.52-4.17-2.71a10.7,10.7,0,0,0-1.69-1.74,5.85,5.85,0,0,0-2.89-1h0c.71-.63,1.64-3.77-.27-3.84a7.23,7.23,0,0,0-1,.07c-1.21.16-1.43.19-1.44-.13,0-.63,1.07-1.82.18-1.87,0,0-2.38,0-2.73.88a.54.54,0,0,0,0,.28C466.42,67.45,466.94,68.05,467.06,68.79Z" transform="translate(0 0)"/><path class="cls-51" d="M311.07,99.62c.3-.7.47-1.46.75-2.18.17-.43.37-.84.53-1.27,0,0,0-.12,0-.17s.13-.4-.06-.36l-.1,0c-.64.52-1.36,3.83-1.23,4A.24.24,0,0,0,311.07,99.62Z" transform="translate(0 0)"/><path class="cls-52" d="M451.62,53.06a.29.29,0,0,0,0-.13,2.14,2.14,0,0,0-1-.86l-.25-.09a16.7,16.7,0,0,1-2.09-.3c-.47-.19-.82-.66-1.4-.63s-1.27.43-1.93.58-1.31.12-1.93.33c-.4.13-.11.63-.43.81s-.68-.17-1,0l-.17.1c-.13.56.38,1.21-.24,1.71a8.9,8.9,0,0,1-1.86-1.71c-.54-1-2.82-1.65-3.46-1.15.18.52.81.41,1.09.79-.18.75-1.07.63-1.43,1.16a2.63,2.63,0,0,0,1.33,0c.71-.13,2.95.65,1.7,1.68.54.65,1.25.1,1.85.27s.63.41.64,1c.14.13.27.18,1.53.05a7.7,7.7,0,0,1,1.36-.09c.6,0,1.16.3,1.76.34h.25a10.34,10.34,0,0,0,2.17-.42c1.51-.36,3.8-2,3.69-2.52-.07-.31-.35-.52-.44-.83C451.43,53.05,451.43,53.05,451.62,53.06Z" transform="translate(0 0)"/><path class="cls-53" d="M361.91,154c.66.86,4.78,1.17,4.85.69,0-.26-5.24-6.35-5.3-6.39a6.32,6.32,0,0,0-5.23-.9,7.75,7.75,0,0,0-2.9,1.75,3.67,3.67,0,0,0,2.59-.59c1.52-.88,2.55-.39,2.64-.12-.08.16-.29.37-.78.1a.1.1,0,0,0,0,0c.06.73,1.29,1,2.1,1.25,1.49.38,1.59.69,1.9,1.64a3,3,0,0,0,.57,1.15,1.54,1.54,0,0,1,.38.63C362.72,153.79,362.15,153.76,361.91,154Z" transform="translate(0 0)"/><path class="cls-54" d="M368.48,159.09c.42.24.09,1,.69,1.09,1.05.11.94-1.32,1.84-1.41a2,2,0,0,1,.51,0,40.57,40.57,0,0,0,4.41.36c.13,0,.22-.05.23-.18,0-.46-.36-.86-.24-1.34.38-1.51-7.3-2.17-7.78-2.09-.12,0-.14,0-.19.09s0,.12.11.23a2.13,2.13,0,0,1,.7,2.31c-.14.13-.75,0-1.6-.11-1.55-.25-1.7-.2-1.79-.17s0,.07.06.08C366.37,158.57,367.52,158.55,368.48,159.09Z" transform="translate(0 0)"/><path class="cls-55" d="M384,87.74c-.66.25.84,1,1.15,1.13,2,.92,2.68-.08,2.68-.09C388,88.24,384.67,87.62,384,87.74Z" transform="translate(0 0)"/><path class="cls-56" d="M508,211.26c-2.18,2.81-2.23,2.83-3.66,3.33-1.16.42-1.53.95-3.29,3.5A7.55,7.55,0,0,1,499,220.3a37.81,37.81,0,0,0-6.3,7c1,0,1,0,4.59-3.46,3-2.83,5.56-6,8.39-9,0,.09,0,.09-.26.5.11-.08.11-.08.38-.42a27.65,27.65,0,0,0,3-4.59l-.08,0C508.56,210.57,508.56,210.57,508,211.26Z" transform="translate(0 0)"/><path class="cls-57" d="M434.49,190.69c-.15-.81.93-1.91-.09-2.43-.73-.37-1.45.17-2.17,0-2.34-.51-3.88-2.54-6.12-3.24-3.35-1-6.8-1.62-10.19-2.47-2-.72-2.15-3-3.36-4.3-2.07-1.35-3.61-3.54-5.78-4.77-2.82-1.61-6.3-1.06-9.11-2.76-2.21-1.35-3.7-3.63-6.08-4.78a4.66,4.66,0,0,0-1.22-.37c-11.5-1.73-20.59-3.1-21.61,6-3.42-2.43-12.19,1.41-11.38-4.26a9.75,9.75,0,0,0-1-6c-2.66-1.35-5.37.05-8.06-.13.89-2.94.89-2.94.24-4.3a15.78,15.78,0,0,0,1.59-5.19c-.51-.45-5-4.06-5.94,6.05-1.54-.09-2.54,2.07-4.3,1.06-4.15-2.38-5.56-5.39-6-7-.59-2,1.06-3.5,1-5.35,0-1.19-1.62-1.76-1.2-3.12.54-1.75,3.78-5,4.54-5.63,1.35-1,6.61.14,6.65.16l.47-.39a10.71,10.71,0,0,0-1.45-1c0-.17.08-.4.12-.57,1-.61,9.4-1.34,9.44-1.32,3.58,1.91,1.4,6.94,4.83,8.93,4.05-4.28-2.45-8.07-1.74-12.38s5.2-5.49,7.69-8.33h-.06l-.37-.41.07-.54.52-.15c0-.19,0-.45.06-.64L364,121l.82-8.17c.07,1.21.07,4.88.06,4.89.39-.25.39-.25.73-5.62a6.68,6.68,0,0,1,.95,1.69c.73-1.26.49-2.91,1.62-4,0,0,4.84-2.64,5.19-2.62.45-4.21.45-4.21,2.81-6.42.4,0,.4,0,7.26-4l-.23.49a3.68,3.68,0,0,0,1.23.24v.6c-4,2.82-4,2.82-4,3.64,2.69.05,11-4.76,9.49-8.49-1.14.76-1.19,2.16-1.87,3.19l-2.2-.63a2,2,0,0,0,1.05-.77,0,0,0,0,0,0,0,0,0,0,0,1,0,0,.51.51,0,0,0-.23,0,3.12,3.12,0,0,1-1.88-.18.87.87,0,0,1-.57-1c0-.17,0-.19,0-.2l0,0a2,2,0,0,0-.08,1.54c-1-.48-1.21-1-1.61-2.26-1-.35-1-.43-1.45-.94,1.45-.4,2.5-.68,2.81-2.14-.74-.73-.74-.73-11.09,5.74,7.12-7.41,7.12-7.41,14.44-9.62,1.66,1.13,9.14-2.57,10.28-4.65-.37-.9-.37-.9.17-2.23l-.33-.52-1.8-.38a4.14,4.14,0,0,0-.52,0,7.24,7.24,0,0,0-3.43,1.42c-.06-.15-.15-.35-.22-.49.6-.86.88-1,3.1-1.82-4.3.36-8.49.72-13.09,1.19,4.23-.45,7.91-.78,13.12-1.2a.86.86,0,0,0,.34-.25c.1-.26-1.62-1.74-3.8-1.17-.49.12-.49.12-.74,0-.15-.42.19-.89-.12-1.29s-1.22-.41-1.63-1c-.17-.23,0-.44.27-.89.48-.66.48-.66-.56-2.53-2.64-4.71-2.64-4.71-3.93-2.25-.2.39.31.79,0,1.17s-1.06,0-1.43.52c-.82,1.12-.82,1.12-1.05,1.19-1.43.44-2.43-.72-3.67-1a5.32,5.32,0,0,1,1-3.56c-.73-.24-1.5.11-2.23-.15-.17-.07-.28-.18-.51-.57-.07-.13-.25-.44-2.05-1a1.49,1.49,0,0,0-.8-.1c-1.64.45-3.41.08-5,.75.29,1.53-1.59,2.9-.32,4.5-.24.74-1.21,1-1.27,1.87s1,1.61,1,2.6c0,0,.07,4-2.2,4.5-.49.11-1.62.47-1.38,1.3a2.84,2.84,0,0,1-.63.55c-.6,2.28.91,5.13-1.7,6.94-.81-1.25-2.26-1.61-3.39-2.41a3.79,3.79,0,0,0,0-3.28c.18-.14.47-.39.65-.52,0-.1,0-.29,0-.39a3.66,3.66,0,0,0-.66,0c-1.07-1-2.37-.1-3.52-.41s-1.77-1.51-2.89-1.9a3.76,3.76,0,0,0-.66-.17c-1-.17-1.75.58-2.64.84-.31-.26-.31-.26-.71-2.6-.13-.82-.13-.82-2.06-1-.44-2.49,5.64-7,8.24-8.93-.3-.79-1.17-.44-1.67-.83,5.05-.9,5.05-.9,7.92-4-1.95.34-2.36.41-3.94-.49,1.87-.68,4.3.5,5.72-1.69a1.18,1.18,0,0,0-.55-.2s.94-1.14,1.92-.52c3.28-1.18,3.28-1.18,4.14-1.94a2.6,2.6,0,0,0,.53-.62c.36-.59-.23-1.23.09-1.83s1-.49,1.37-.9a5,5,0,0,0,.4-.92s-2.78-2.84-3.71,1.15c-1.7,1-2.92,5-5,3.11.18-1.23,2.66-2,1.5-3.23-1.31.49-1.84,1.82-2.81,2.68-.24-.67,1.1-2.41,1.12-2.43a5.63,5.63,0,0,0-1.25-.07c2-3.28,2-3.28,2-3.68l-.31-.22c1.16-1.79,1.16-1.79,6.58-5a2.37,2.37,0,0,0-1,.07c-4.34,1-10.21,9.15-10.25,9.23s.1.21.15.3c.46,0,.91-.1,1.38-.13,0,.09,0,.2.07.29a4.59,4.59,0,0,0-1.56,1v.23h0l.27.07c-.92,1.58-2.94,2.13-3.7,3.88-.7-.74-.7-.74.62-2.15-.76-.2-.76-.2-3.23,1.75-.14.11-1,.63-4,.49-.2-.29-.16-.67-.37-1-2.47.64-3.2,2.07-4.67,4.92-.27-.72.36-1.31.28-2-1.33.22-2.42,1.31-3.87,1.09.61-.6,1.59-.82,1.82-1.8l-.26-.14c-.32.18-.38.21-1.32.11a3.63,3.63,0,0,0-.41-.47c-.67.15-1.05.72-1.58,1.08a5.72,5.72,0,0,1,.37-.58,6.15,6.15,0,0,0-.95.83,6.27,6.27,0,0,1,1.24-1.79c-1.61,1.48-1.61,1.48-4.54,4h0c.92-.89,1.93-1.69,2.87-2.57a49.41,49.41,0,0,0-4.73,4.2,5.65,5.65,0,0,1,.34-.51c-1.62,1.83-3.78,4.26-5.41,6.08-7,9.13-7.15,9.31-10.25,14.46l0,0c0-.07.1-.17.15-.24-2.07,5.23-2.07,5.23-2.33,6.66-.13.41-.31,1-.45,1.38.1.15.22.36.32.52a36.08,36.08,0,0,0-1.37,5.64,4.49,4.49,0,0,0,.28,2.41,1.8,1.8,0,0,0-.52-.1.33.33,0,0,1-.22-.07s-.06-.06-.13-.31-.16-.56-.27-.58h0a5.43,5.43,0,0,0,0,2.24c.25.82.83.71.84.71a.71.71,0,0,0,.39-.42,1.85,1.85,0,0,0,.1-.51c0-.14,0-.27,0-.41v0a6.42,6.42,0,0,1,.53,2.48c-.29-.16-.67-.37-1-.51-3.5,4.36-4.72,26.21-2.39,30.29.3.05.3.05,5.37,10.43-.36,0-.84,0-1.2,0,.61,1.28,5.08,7.06,5.12,7.11.41-.6.83-1.21-1.22-4.14-.94-1.32-2-2.82-3.79-10.08,2.25,1.63,2.48,2.71,2.78,4.06a9.49,9.49,0,0,0,.88,2.74c.92,1.46,2,2.77,3,4.19,1.27,1.84,3.42,2.87,4.47,4.89.86,1.63.45,3.81,2.2,5a4.22,4.22,0,0,0,.89.41,17.74,17.74,0,0,0,1.64.68c1.81.46,3.66.75,5.47,1.19s3.83-.62,5.65.42c4.17,2.37,4.17,2.37,5.63,2.53l.73.09c6.55.91,9.26,9,16.43,8.77,3.19-5.33,5.16,1.06,5.86,4.05.22.94.22.94-1.57,4.88,0,.07-1.76,7.16-1,8.49.12.22.28.51.42.72,2.35,3.48,12,13,12.08,13.1,2.36,2,5.55,2.5,8,4.28,1.89,1.36,3.31,4,4,7.53,0,.15,3.73,16.75,10.17,25.81,8.16,11.49,16.06,10.22,16.14,10.2-7.61-3.92-7.61-3.92-6.89-7.14-1.06-1.13-1.06-1.13-3.06-6.62.31-.1.31-.1,1.75-.06,0-.15,0-.15-1.75-2.55,1.34-1.19,1.34-1.19,1.24-2.13l.33-.21c2.37.72,3.15-1.23,2.54-2.12l-.69-1c5.37-.15,7.66-13.14,7.67-13.27a7.13,7.13,0,0,1,3.64-3c1.9-.79,1.93-3,3.28-4.26a1.81,1.81,0,0,1,1.6-.5c.79.1.85.11.95-.63.22-1.63.07-3.27.15-4.9,0-.92-.49-1.85.11-2.75s1-1.41.47-2.09a1.53,1.53,0,0,1-.23-.46c4.5-1.64,6.09-6.51,6.1-6.55a.61.61,0,0,0,0-.19C435,191.62,434.59,191.23,434.49,190.69ZM321.79,89.13c1.59-.52,3.27-1,5-1.5Q324.2,88.35,321.79,89.13Zm51,92.7,6.27-.75Zm45.54,28.46c-.08-.79-.35-3.37-.76-7.95.25,2.67.5,5.33.78,8.12A1.11,1.11,0,0,0,418.3,210.29Zm-2.16-24.87,0,.44Z" transform="translate(0 0)"/><path class="cls-58" d="M378.64,159.68c-.62.41.18,1.21.93,1.34a5.48,5.48,0,0,0,2.32-.33c.05-.09-.08-.3-1.36-.69S378.92,159.61,378.64,159.68Z" transform="translate(0 0)"/></g></g></g></g></svg>