<svg id="Layer_3" enable-background="new 0 0 64 64" height="512" viewBox="0 0 64 64" width="512" xmlns="http://www.w3.org/2000/svg"><g><path d="m6 62h34c2.209 0 4-1.791 4-4v-2h-34v2c0 2.209-1.791 4-4 4-2.209 0-4-1.791-4-4v-56l7 3 10-3 10 3 7-3v60" fill="#c7e2fc"/><path d="m6 62h34c2.209 0 4-1.791 4-4v-2h-34v2c0 2.209-1.791 4-4 4" fill="#a1cdfb"/><path d="m54 27v15l-6-5-6 5v-15" fill="#59ac98"/><circle cx="48" cy="16" fill="#f5b953" r="14"/><circle cx="48" cy="16" fill="#fff" r="10"/><g><path d="m5 47h28v2h-28z" fill="#8892a0"/></g><g><path d="m5 51h18v2h-18z" fill="#8892a0"/></g><g><path d="m5 39h28v2h-28z" fill="#8892a0"/></g><g><path d="m5 43h18v2h-18z" fill="#8892a0"/></g><g><path d="m5 31h28v2h-28z" fill="#8892a0"/></g><g><path d="m5 35h18v2h-18z" fill="#8892a0"/></g><g><path d="m5 23h28v2h-28z" fill="#8892a0"/></g><g><path d="m5 27h18v2h-18z" fill="#8892a0"/></g><g><path d="m48 27v-2c4.962 0 9-4.037 9-9h2c0 6.065-4.935 11-11 11z" fill="#f9d18b"/></g><g><path d="m39 16h-2c0-6.065 4.935-11 11-11v2c-4.962 0-9 4.037-9 9z" fill="#f9d18b"/></g></g></svg>