<svg id="Layer_3" data-name="Layer 3" xmlns="http://www.w3.org/2000/svg" viewBox="0 0 570 570"><defs><style>.cls-1{fill:#39d886;opacity:0.18;}.cls-2{fill:#c7e2fc;}.cls-3{fill:#a1cdfb;}.cls-4{fill:#59ac98;}.cls-5{fill:#f5b953;}.cls-6{fill:#fff;}.cls-7{fill:#8892a0;}.cls-8{fill:#f9d18b;}</style></defs><title>certificate-icon</title><circle class="cls-1" cx="285" cy="285" r="285"/><path class="cls-2" d="M207,569H479a32,32,0,0,0,32-32V521H239v16a32,32,0,0,1-64,0V89l56,24,80-24,80,24,56-24V569Z" transform="translate(-118 -44)"/><path class="cls-3" d="M207,569H479a32,32,0,0,0,32-32V521H239v16a32,32,0,0,1-32,32Z" transform="translate(-118 -44)"/><path class="cls-4" d="M591,289V409l-48-40-48,40V289" transform="translate(-118 -44)"/><circle class="cls-5" cx="425" cy="157" r="112"/><circle class="cls-6" cx="425" cy="157" r="80"/><path class="cls-7" d="M199,449H423v16H199Z" transform="translate(-118 -44)"/><path class="cls-7" d="M199,481H343v16H199Z" transform="translate(-118 -44)"/><path class="cls-7" d="M199,385H423v16H199Z" transform="translate(-118 -44)"/><path class="cls-7" d="M199,417H343v16H199Z" transform="translate(-118 -44)"/><path class="cls-7" d="M199,321H423v16H199Z" transform="translate(-118 -44)"/><path class="cls-7" d="M199,353H343v16H199Z" transform="translate(-118 -44)"/><path class="cls-7" d="M199,257H423v16H199Z" transform="translate(-118 -44)"/><path class="cls-7" d="M199,289H343v16H199Z" transform="translate(-118 -44)"/><path class="cls-8" d="M543,289V273a72.08,72.08,0,0,0,72-72h16A88.1,88.1,0,0,1,543,289Z" transform="translate(-118 -44)"/><path class="cls-8" d="M471,201H455a88.1,88.1,0,0,1,88-88v16A72.08,72.08,0,0,0,471,201Z" transform="translate(-118 -44)"/></svg>