<?xml version="1.0" encoding="iso-8859-1"?>
<!-- Generator: Adobe Illustrator 19.0.0, SVG Export Plug-In . SVG Version: 6.00 Build 0)  -->
<svg version="1.1" id="Capa_1" xmlns="http://www.w3.org/2000/svg" xmlns:xlink="http://www.w3.org/1999/xlink" x="0px" y="0px"
	 viewBox="0 0 496.485 496.485" style="enable-background:new 0 0 496.485 496.485;" xml:space="preserve">
<circle style="fill:#E1E6E9;" cx="248.242" cy="248.242" r="248.242"/>
<path style="fill:#FDBF5E;" d="M171.442,380.897c-12.412,13.964-30.255,22.497-49.648,22.497c-20.17,0-37.236-8.533-49.648-22.497
	c-26.376,17.067-43.442,45.77-43.442,78.352v8.533h185.406v-8.533C214.109,426.667,197.042,397.964,171.442,380.897z"/>
<path style="fill:#193651;" d="M214.109,475.539H28.703c-3.879,0-6.982-3.103-6.982-6.982v-8.533
	c0-34.133,17.067-65.939,46.545-83.782c3.103-1.552,6.982-1.552,9.309,1.552c11.636,12.412,27.927,20.17,44.994,20.17
	s33.358-6.982,44.994-20.17c2.327-2.327,6.206-3.103,9.309-1.552c28.703,18.618,46.545,49.648,46.545,83.782v8.533
	C221.091,471.661,217.988,475.539,214.109,475.539z M35.685,460.8h171.442v-1.552c0-27.152-13.188-52.752-34.909-69.042
	c-13.964,13.188-31.806,20.17-51.2,20.17c-18.618,0-37.236-6.982-50.424-20.17c-21.721,16.291-34.909,41.891-34.909,69.042
	C35.685,459.249,35.685,460.8,35.685,460.8z"/>
<circle style="fill:#FFFFFF;" cx="121.018" cy="329.697" r="42.667"/>
<path style="fill:#193651;" d="M121.018,379.345c-27.152,0-49.648-22.497-49.648-49.648s22.497-49.648,49.648-49.648
	s49.648,22.497,49.648,49.648S148.945,379.345,121.018,379.345z M121.018,294.012c-19.394,0-35.685,16.291-35.685,35.685
	c0,19.394,16.291,35.685,35.685,35.685s35.685-16.291,35.685-35.685C156.703,309.527,141.188,294.012,121.018,294.012z"/>
<path style="fill:#2EA2DB;" d="M418.909,380.897c-12.412,13.964-30.255,22.497-49.648,22.497c-20.17,0-37.236-8.533-49.648-22.497
	c-25.6,16.291-42.667,44.994-42.667,78.352v8.533h185.406v-8.533C462.352,426.667,445.285,397.964,418.909,380.897z"/>
<path style="fill:#193651;" d="M462.352,475.539H276.17c-3.879,0-6.982-3.103-6.982-6.982v-8.533
	c0-34.133,17.067-65.939,46.545-83.782c3.103-1.552,6.982-1.552,9.309,1.552c11.636,12.412,27.927,20.17,44.994,20.17
	s33.358-6.982,44.994-20.17c2.327-2.327,6.206-3.103,9.309-1.552c28.703,18.618,46.545,49.648,46.545,83.782v8.533
	C469.333,471.661,466.23,475.539,462.352,475.539z M283.152,460.8h171.442v-1.552c0-27.152-13.188-52.752-34.909-69.042
	c-13.964,13.188-31.806,20.17-50.424,20.17c-18.618,0-37.236-6.982-51.2-20.17c-21.721,16.291-34.909,41.891-34.909,69.042V460.8z"
	/>
<circle style="fill:#FFFFFF;" cx="369.261" cy="329.697" r="42.667"/>
<path style="fill:#193651;" d="M369.261,379.345c-27.152,0-49.648-22.497-49.648-49.648s22.497-49.648,49.648-49.648
	c27.151,0,49.648,22.497,49.648,49.648S396.412,379.345,369.261,379.345z M369.261,294.012c-19.394,0-35.685,16.291-35.685,35.685
	c0,19.394,16.291,35.685,35.685,35.685c19.394,0,35.685-16.291,35.685-35.685C404.945,309.527,388.655,294.012,369.261,294.012z"/>
<path style="fill:#2EA2DB;" d="M38.788,258.327l24.048-64.388c-9.309-15.515-14.739-34.133-14.739-54.303l0,0
	c0-58.182,47.321-106.279,106.279-106.279l0,0c58.182,0,106.279,47.321,106.279,106.279l0,0
	c0,58.182-47.321,106.279-106.279,106.279l0,0c-17.842,0-34.909-4.655-50.424-12.412L38.788,258.327z"/>
<path style="fill:#193651;" d="M33.358,262.982c-2.327-2.327-2.327-4.655-1.552-7.758l23.273-61.285
	c-9.309-17.067-13.964-35.685-13.964-55.079C41.115,76.8,91.539,25.6,154.376,25.6c62.061,0,113.261,50.424,113.261,113.261
	c0,62.061-50.424,113.261-113.261,113.261c-17.842,0-34.909-3.879-50.424-11.636l-62.061,24.048
	C38.788,265.309,35.685,265.309,33.358,262.982z M154.376,40.339c-55.079,0-99.297,44.994-99.297,99.297
	c0,17.842,4.655,35.685,13.964,50.424c0.776,1.552,1.552,3.879,0.776,6.206L51.2,245.915l50.424-19.394
	c1.552-0.776,3.879-0.776,6.206,0c13.964,7.758,30.255,11.636,46.545,11.636c54.303,0,99.297-44.218,99.297-99.297
	C252.897,85.333,208.679,40.339,154.376,40.339z"/>
<path style="fill:#FFFFFF;" d="M149.721,215.661c-12.412,0-24.824-3.103-35.685-9.309l-9.309-4.655l-24.048,9.309l8.533-23.273
	l-4.655-9.309c-6.982-11.636-10.861-24.824-10.861-38.788c0-41.891,34.133-76.024,76.024-76.024s76.024,34.133,76.024,76.024
	S190.836,215.661,149.721,215.661z"/>
<path style="fill:#FDBF5E;" d="M451.491,258.327l-24.049-64.388c9.309-15.515,14.739-34.133,14.739-54.303l0,0
	c0-58.182-47.321-106.279-106.279-106.279l0,0c-58.182,0-106.279,47.321-106.279,106.279l0,0
	c0,58.182,47.321,106.279,106.279,106.279l0,0c17.842,0,34.909-4.655,50.424-12.412L451.491,258.327z"/>
<path style="fill:#193651;" d="M449.164,264.533l-62.061-24.048c-15.515,7.758-33.358,11.636-50.424,11.636
	c-62.061,0-113.261-50.424-113.261-113.261C223.418,76.8,273.842,25.6,336.679,25.6s112.485,51.976,112.485,114.036
	c0,19.394-4.655,38.012-13.964,55.079L458.473,256c0.776,2.327,0,5.43-1.552,7.758C454.594,265.309,451.491,265.309,449.164,264.533
	z M386.327,225.745c0.776,0,1.552,0,2.327,0.776l50.424,19.394l-18.618-49.648c-0.776-2.327-0.776-3.879,0.776-6.206
	c9.309-15.515,13.964-32.582,13.964-50.424c0-54.303-44.218-99.297-99.297-99.297c-54.303,0-99.297,44.218-99.297,99.297
	c0,54.303,44.218,99.297,99.297,99.297c16.291,0,32.582-3.879,46.545-11.636C384,226.521,385.552,225.745,386.327,225.745z"/>
<path style="fill:#FFFFFF;" d="M335.903,215.661c-41.891,0-76.024-34.133-76.024-76.024s34.133-76.024,76.024-76.024
	s76.024,34.133,76.024,76.024c0,13.188-3.879,27.152-10.861,38.788l-5.43,9.309l8.533,23.273l-23.273-9.309l-8.533,4.655
	C360.727,212.558,349.091,215.661,335.903,215.661z"/>
<rect x="291.685" y="132.655" style="fill:#193651;" width="13.964" height="13.964"/>
<g>
	<rect x="328.921" y="132.655" style="fill:#193651;" width="13.964" height="13.964"/>
	<rect x="366.933" y="132.655" style="fill:#193651;" width="13.964" height="13.964"/>
	<rect x="109.382" y="132.655" style="fill:#193651;" width="13.964" height="13.964"/>
	<rect x="147.394" y="132.655" style="fill:#193651;" width="13.964" height="13.964"/>
	<rect x="185.406" y="132.655" style="fill:#193651;" width="13.964" height="13.964"/>
</g>
<g>
</g>
<g>
</g>
<g>
</g>
<g>
</g>
<g>
</g>
<g>
</g>
<g>
</g>
<g>
</g>
<g>
</g>
<g>
</g>
<g>
</g>
<g>
</g>
<g>
</g>
<g>
</g>
<g>
</g>
</svg>
