<svg id="Layer_1" data-name="Layer 1" xmlns="http://www.w3.org/2000/svg" xmlns:xlink="http://www.w3.org/1999/xlink" viewBox="0 0 458 478"><defs><style>.cls-1{fill:url(#linear-gradient);}.cls-2{fill:url(#linear-gradient-2);}.cls-3{fill:url(#linear-gradient-3);}.cls-4{fill:url(#linear-gradient-4);}.cls-5{fill:url(#linear-gradient-5);}</style><linearGradient id="linear-gradient" x1="239" y1="475.28" x2="239" y2="-1.92" gradientTransform="matrix(1, 0, 0, -1, 0, 479.99)" gradientUnits="userSpaceOnUse"><stop offset="0" stop-color="#00efd1"/><stop offset="0.03" stop-color="#00e7d4"/><stop offset="0.11" stop-color="#00d1dc"/><stop offset="0.21" stop-color="#00c0e2"/><stop offset="0.34" stop-color="#00b5e7"/><stop offset="0.51" stop-color="#00aee9"/><stop offset="1" stop-color="#00acea"/></linearGradient><linearGradient id="linear-gradient-2" x1="113.36" y1="475.28" x2="113.36" y2="-1.92" gradientTransform="matrix(1, 0, 0, -1, 0, 479.99)" gradientUnits="userSpaceOnUse"><stop offset="0" stop-color="#00efd1"/><stop offset="0.19" stop-color="#00e0d7"/><stop offset="0.72" stop-color="#00bae5"/><stop offset="1" stop-color="#00acea"/></linearGradient><linearGradient id="linear-gradient-3" x1="113.5" y1="475.28" x2="113.5" y2="-1.92" gradientTransform="matrix(1, 0, 0, -1, 0, 479.99)" gradientUnits="userSpaceOnUse"><stop offset="0" stop-color="#00efd1"/><stop offset="1" stop-color="#00acea"/></linearGradient><linearGradient id="linear-gradient-4" x1="364.65" y1="475.28" x2="364.65" y2="-1.92" gradientTransform="matrix(1, 0, 0, -1, 0, 479.99)" gradientUnits="userSpaceOnUse"><stop offset="0" stop-color="#00efd1"/><stop offset="0.39" stop-color="#00cedd"/><stop offset="0.77" stop-color="#00b5e7"/><stop offset="1" stop-color="#00acea"/></linearGradient><linearGradient id="linear-gradient-5" x1="364.5" y1="475.28" x2="364.5" y2="-1.92" xlink:href="#linear-gradient-3"/></defs><title>dialogue2</title><path class="cls-1" d="M326.68,157c15.44,0,28.32-12.31,28.32-27.75V27.75C355,12.31,342.12,0,326.68,0H151.32C135.88,0,123,12.31,123,27.75v101.5c0,15.44,12.88,27.75,28.32,27.75h53.25l27.65,44.32a7.92,7.92,0,0,0,13.57,0L273.43,157Zm-64.46-12.12L239,182.06l-23.21-37.21A8.12,8.12,0,0,0,209,141H151.32c-6.62,0-12.32-5.13-12.32-11.75V27.75C139,21.14,144.7,16,151.32,16H326.68C333.3,16,339,21.14,339,27.75v101.5c0,6.62-5.7,11.75-12.32,11.75H269A8.12,8.12,0,0,0,262.22,144.88Z" transform="translate(-10)"/><path class="cls-2" d="M113.35,309.88c34.86,0,63.22-27.44,63.22-61.17s-28.36-61.16-63.22-61.16S50.14,215,50.14,248.71,78.5,309.88,113.35,309.88Zm0-106.33c26,0,47.22,20.26,47.22,45.16s-21.18,45.17-47.22,45.17-47.21-20.26-47.21-45.17S87.32,203.55,113.35,203.55Z" transform="translate(-10)"/><path class="cls-3" d="M113.5,322.53C56.56,322.53,10,367.27,10,422.27v48A7.87,7.87,0,0,0,18.08,478H208.63c4.42,0,8.37-3.34,8.37-7.76v-48C217,367.27,170.45,322.53,113.5,322.53ZM201,462H26V422.27c0-46.17,39.38-83.74,87.5-83.74S201,376.1,201,422.27Z" transform="translate(-10)"/><path class="cls-4" d="M301.44,248.71c0,33.73,28.36,61.17,63.21,61.17s63.21-27.44,63.21-61.17-28.35-61.16-63.21-61.16S301.44,215,301.44,248.71Zm63.21-45.16c26,0,47.21,20.26,47.21,45.16s-21.18,45.17-47.21,45.17-47.21-20.26-47.21-45.17S338.62,203.55,364.65,203.55Z" transform="translate(-10)"/><path class="cls-5" d="M364.5,322.53c-56.95,0-103.5,44.74-103.5,99.74v48c0,4.42,3.95,7.76,8.37,7.76H459.93a7.86,7.86,0,0,0,8.07-7.76v-48C468,367.27,421.45,322.53,364.5,322.53ZM452,462H277V422.27c0-46.17,39.37-83.74,87.5-83.74S452,376.1,452,422.27Z" transform="translate(-10)"/></svg>