<?xml version="1.0" encoding="utf-8"?>
<!-- Generator: Adobe Illustrator 24.0.0, SVG Export Plug-In . SVG Version: 6.00 Build 0)  -->
<svg version="1.1" id="Layer_1" xmlns="http://www.w3.org/2000/svg" xmlns:xlink="http://www.w3.org/1999/xlink" x="0px" y="0px"
	 viewBox="0 0 477 477" style="enable-background:new 0 0 477 477;" xml:space="preserve">
<style type="text/css">
	.st0{fill:url(#SVGID_1_);}
	.st1{fill:url(#SVGID_2_);}
</style>
<linearGradient id="SVGID_1_" gradientUnits="userSpaceOnUse" x1="234.2829" y1="458.5682" x2="234.2829" y2="11.4332" gradientTransform="matrix(0.9982 0 0 -0.9982 -0.2547 475.3961)">
	<stop  offset="0" style="stop-color:#00EFD1"/>
	<stop  offset="0.2419" style="stop-color:#00D4DB"/>
	<stop  offset="0.5123" style="stop-color:#00BEE3"/>
	<stop  offset="0.7702" style="stop-color:#00B1E8"/>
	<stop  offset="1" style="stop-color:#00ACEA"/>
</linearGradient>
<path class="st0" d="M391.7,283c-2.2-2.2-5.8-2.3-8.2-0.2c-69.1,61.6-174.3,58.6-239.7-6.9c-65.6-65.6-68.7-171.1-7.2-240.2
	c2.1-2.4,2-6-0.3-8.2l-15.9-15.7c-1.2-1.1-2.7-1.8-4.4-1.7c-1.6,0-3.2,0.8-4.3,2C37.2,94.5,40.1,221,118.5,300
	c29.9,29.8,64.7,49,103.6,56.8l3,0.7v82.6h-51.9c-3.3,0-6,2.7-6,6v25c0,3.3,2.7,6,6,6h154.7c3.3,0,6-2.7,6-6v-25c0-3.3-2.7-6-6-6
	H273v-79l4.7-0.2c48.1-2.4,93.9-21.2,129.8-53.4c1.2-1.1,1.9-2.7,2-4.3c0-1.6-0.6-3.2-1.8-4.4L391.7,283z M277.1,348.9l-10.4,0.5
	c-3.2,0.2-5.7,2.8-5.7,6v90.7c0,3.3,2.7,6,6,6h54.9v13H179.2v-13h51.9c3.3,0,6-2.7,6-6v-93.4c0-2.8-2-5.2-4.7-5.8l-7.7-1.7l-0.1,0
	c-36.5-7.4-69.3-25.4-97.5-53.6c-35.8-35.7-56.3-84-57.2-134.5c-1.1-48.3,15.6-95.4,46.9-132.2l7.4,7.3
	c-61.9,73.9-57.4,183.6,11.4,252.3c68.4,68.5,177.8,73.3,251.9,11l7.4,7.3C361.6,330.5,320.3,346.7,277.1,348.9z"/>
<linearGradient id="SVGID_2_" gradientUnits="userSpaceOnUse" x1="265.0356" y1="458.5682" x2="265.0356" y2="11.4332" gradientTransform="matrix(0.9982 0 0 -0.9982 -0.2547 475.3961)">
	<stop  offset="0" style="stop-color:#00EFD1"/>
	<stop  offset="0.1077" style="stop-color:#00DDD8"/>
	<stop  offset="0.2798" style="stop-color:#00C7E0"/>
	<stop  offset="0.4692" style="stop-color:#00B8E6"/>
	<stop  offset="0.6874" style="stop-color:#00AFE9"/>
	<stop  offset="1" style="stop-color:#00ACEA"/>
</linearGradient>
<path class="st1" d="M264.3,0c-86,0-156,70-156,156s70,156,156,156s156-70,156-156S350.3,0,264.3,0z M346.3,220.5
	c6-19.1,9.2-38.9,9.6-58.9h52.4c-1.2,30.6-12.1,59.9-31.3,83.8C367.8,235.8,357.5,227.4,346.3,220.5L346.3,220.5z M151.7,245.5
	c-19.1-23.9-30.1-53.3-31.3-83.9h52.4c0.3,20,3.6,39.9,9.6,59C171.1,227.5,160.8,235.9,151.7,245.5z M182.4,91
	c-6,19-9.2,38.7-9.6,58.6h-52.4c1.3-30.5,12.3-59.7,31.3-83.6C160.8,75.6,171.1,84,182.4,91z M270,114.2
	c22.8-0.8,45.2-6.7,65.5-17.1c5.1,17,7.9,34.7,8.4,52.5H270V114.2z M270,102.3V13.8c27.9,14.9,49.1,40.1,61.4,72.1
	C312.4,95.9,291.4,101.5,270,102.3L270,102.3z M258,102.2c-21.4-0.9-42.3-6.6-61.3-16.5c12.3-31.9,33.3-57,61.3-71.9V102.2z
	 M258,114.2v35.4h-73.3c0.4-17.8,3.1-35.5,8.2-52.6C213.1,107.4,235.3,113.3,258,114.2z M184.7,161.6H258v36.3
	c-22.7,0.8-44.9,6.5-65.1,16.8C187.8,197.4,185.1,179.5,184.7,161.6z M258,209.8v88.4c-27.9-14.9-49-40-61.3-71.9
	C215.7,216.4,236.6,210.8,258,209.8z M270,209.8c21.4,0.7,42.4,6.3,61.4,16.4c-12.3,32-33.4,57.2-61.4,72.1V209.8z M270,197.8v-36.2
	h73.9c-0.4,17.9-3.2,35.7-8.4,52.9C315.1,204.2,292.8,198.5,270,197.8z M355.8,149.6c-0.4-19.9-3.6-39.6-9.6-58.5
	c11.3-7,21.6-15.4,30.7-25.1c19,23.9,29.9,53.1,31.3,83.6H355.8z M369.1,57.3c-8,8.6-17.1,16.1-27,22.5
	c-10.5-26.4-26.7-48.6-47.7-64.6C323,21.3,349,36,369.1,57.3L369.1,57.3z M234.2,15.2c-20.9,16-37.1,38.1-47.6,64.5
	c-9.9-6.3-18.9-13.9-27-22.4C179.6,36,205.6,21.3,234.2,15.2z M159.6,254.8c8-8.5,17.1-16,27-22.4c10.5,26.4,26.7,48.4,47.6,64.5
	C205.6,290.8,179.6,276.1,159.6,254.8z M294.5,296.9c21-16,37.2-38.2,47.7-64.6c9.9,6.4,18.9,13.9,27,22.5
	C349.1,276.1,323,290.8,294.5,296.9z"/>
</svg>
