<svg id="Layer_1" data-name="Layer 1" xmlns="http://www.w3.org/2000/svg" viewBox="0 0 512 511.99"><defs><style>.cls-1{fill:#09a8a0;opacity:0.42;}.cls-2{fill:#2ea2db;}.cls-3{fill:#20d0c2;}.cls-4{fill:#15bdb1;}.cls-5{fill:#0fb2a2;}.cls-6{fill:#fbb429;}.cls-7{fill:#fdbf5e;}</style></defs><title>geography-icon</title><path class="cls-1" d="M256,512c141,0,256-115,256-256S397,0,256,0,0,115,0,256,115,512,256,512Z"/><path class="cls-2" d="M262.44,414.86h9.61l5.35,60.22H257.08Z"/><path class="cls-2" d="M166.64,97.28l-8.35-8.35-.27.21A183.94,183.94,0,0,0,83,237.48c0,101.73,82.47,184.2,184.2,184.2a183.93,183.93,0,0,0,148.34-75l.21-.27-8.36-8.36-.27.38q-1.65,2.28-3.37,4.5l-2,2.59-6-6-3.69,3.69,6.3,6.3-1.8,2A172.53,172.53,0,1,1,153.12,108.07l2-1.79,6,6,3.69-3.68-5.68-5.68,2.59-2q2.22-1.73,4.5-3.37l.37-.27Z"/><path class="cls-3" d="M269.25,405.67c92.72,0,168.34-75.62,168.34-168.35S362,69,269.25,69,100.91,144.6,100.91,237.32,176.53,405.67,269.25,405.67Z"/><path class="cls-4" d="M404.32,223A161.84,161.84,0,0,1,148.65,354.79a168.36,168.36,0,1,0,152-282.89A161.9,161.9,0,0,1,404.32,223Z"/><path class="cls-5" d="M435.64,263c-2.58,3.08-1.76,4.14-1.16,6.59q-.93,4.85-2.14,9.58a31.71,31.71,0,0,0-3.75,2.21c-.76,2.38-.15,4.27-1.45,7.21-1.38,3.56-1.6,1.66-3.6,4.54-1.45,2.25-1.29,3.18-3,5.26A21.29,21.29,0,0,1,417,302.1c-6.66,6.13-21,6.31-22.18,5.45-3.37-2.88-1.07-3.61-1.91-7.66-.82-3.55-2.7-6.52-4.27-9.27l-.17-.28a20.55,20.55,0,0,1-1.83-3.86c-2.75-8.69-1.76-15.3-6.57-24.11-6-11.39,3.36-17.33,3-23.75-.15-1.72-.75-2.76-.91-4.11-1.15-7.1-1.83-13.47-6.57-19-5.2-6.06-4.51-3.91-2.83-13.89,2.14-11.44-2.75-8.51-9.63-8.81-3.37-10.41-9.95-5.34-16.51-2.27-4.13,1.89-5.66-.55-10.33.12-10.39,1.4-2.21,5.88-16.13-5.14-5.8-4.59-1.91-2.27-5.34-8-1.15-2.08-4.67-4.84-6.27-6.92-5.27-6.61,1-13.28.08-20.87-1.61-14.08-3.9-1.84,4-18.86,4.13-9,10.4-9.12,12-13.16,1.37-3.61.45-6.18,3.06-9.48,2.29-2.7,5.57-2.15,6.87-6.37,1.84-5.2-1.68-5.87-5.5-6-1.61-5.45-1.61-4.1-.39-9.12.67-2.71.12-4.07.63-6.69A167.29,167.29,0,0,1,350,89.56c-1.19,3.49-1.27,6.43-9,7.6a7.68,7.68,0,0,0-2,.3c-2.22.8-.91.13-2.22,1.41,1,2.33-.38,2,3.6,2.51,7.26,1,8.18-3.49,13.45-4.59,1-.21,3.87-.43,7.17-.62a168.64,168.64,0,0,1,74.65,166.88ZM122.79,154.27h0a170.59,170.59,0,0,1,10-15.51l0,.75c.54,13.77,13.07,14.57,16.28,8.14,2.14-4.28,1.62-6.61,8.57-5.51.69,3.67-.38,6.37-1.3,9.18-.61,1.65-2.3,4.65-1.45,6.93,5,2,5.12-1.79,11.7,2.13.45,6.56-3,13.9,2.06,17.7,3.89,2.87,4.13.3,7.57-.31,3.82-.67,3.13,1.71,6.65,2.26,2-2.44,1.15-.92,2.45-3.92,2.29-5.19,2.9-2.75,8.33-5.93.53-.3,1-.61,1.53-1,.61,1.29,1.3,2.51,1.91,3.74,4-4.72,4.43-.13,9,1.16a17.85,17.85,0,0,0,4.46.75c3.33.05,3.68-1.57,8.23,0a13.69,13.69,0,0,0,1.84.62c.08,0,.3.12.3.25s.31.24.38.31a17.32,17.32,0,0,1,1.45,2.63l9.33,8.93c6,2.39,6-2.08,12.92,4.59,2.91,2.76,1.6,2.7,3.22,6.25.23.55.68,1.1,1,1.78.61,1.65,1.3,3.24,2,4.83,3.13,4.1,7.41,1.54,11.77,5.76,2.52,2.45.62,1.71,6.19,2.69,8.64,1.4,5.28.61,11.86,5.57,2.52,1.83,3.13.79,5.5,2.38,3.29,4.59,2.45,9.56-.3,13.6-8.49,12.36-5.58,10.34-6,20.13-.3,5.63-1.91,17.26-7.19,18.67-19.18,5.39-8,9.13-13.07,18.61-1.45,2.7-2.53,3.37-3.44,5.52-3.82,8.92-1.15,11.93-12.46,9.92a24,24,0,0,0,1.46,2.32c3.35,5.2,3.89,9.12-3,10.4-5.74,1.11-3.29,0-3.82,6.37-2.22.92-3.21,0-4.67,1.47,2,3.67.16.61,3.52,2.7-.62,2-1.08,4-1.61,5.93-1.29,4.77-1.68.37-2.13,5.94,2,.91,3.36.73,5.11,3.12-.22,1.84-2.06,6.86-2.6,9.74,2.83,4.22,5.13,8.75,11.17,9.18-.08,3.55.76,3.19-2.29,3.91-2.6.62-8.11-1.83-10.41-3.06a27.7,27.7,0,0,1-10.31-9,40.62,40.62,0,0,0-2.53-3.31c-2.9-3.73-1.75-5.45-2.6-8-.46-1.47-2.83-3.06-1.83-7.84.23-1.34,2.37-7.77-.23-6.66s2,.6-1.61,2.32a52.71,52.71,0,0,1-2-8.63c-.92-4.84-2.06-5-2.6-8-1.14-6.79,1.76-7.53-1.45-18.86-2.11-7.49-1.26-25.23-3.49-34.33a14.35,14.35,0,0,0-1.33-3.62c-2.06-3.42-7.11-5-11.16-7.77a.71.71,0,0,1-.45-.25c-5.59-3.92-10.86-19.28-15.3-25-2.06-2.76-3.36-1.54-4.28-5.88-1-4,.54-3.3,1.84-6.62-6.8-12.48,8.79-12.3,5.58-27.3-.68-2.75-2.67-6.61-4.36-7.83-3.21,1.41-1.68,2.2-3.37,4.89-2.59-1.46-5.19-2.94-7.72-4.4-7.87-7.59-3.67-2.08-5.88-7-4.74-10.4-9.25-4.58-14.91-9.72-2.52-2.15-3-5.52-7.19-4.9-6.34.85-2.83,1.83-9.4-1.23-1.83-.87-3.69-1.78-5.51-2.74ZM150,118.47h0A168.33,168.33,0,0,1,211,79.35a18.4,18.4,0,0,0-.48,3.22c-3.37,1-7.26,2.21-9.63,4.66l-7,6.73c-.23.19-.38.37-.53.49.84,6.31,0,6.43-3.83,8.89-3.21,2.07-4.27,2-7.26,4.65-9.55,8.57-5,4.58-4.44,19.34-2-.61-3.89-1.28-5.72-2-1.46-9.81.53-6.55-7.34-8.82-8.49-2.45-7.34,1.71-10.86,2.45a6.33,6.33,0,0,1-3.79-.53Zm72.87-43h0q4-1.12,8-2.07c-3.65,1.2-4.9,2.75-8,3.45C222.94,76.25,222.92,75.8,222.91,75.44Z"/><path class="cls-6" d="M229.45,475.07H305a5.12,5.12,0,0,1,5.1,5.1v5.1H224.35v-5.1A5.11,5.11,0,0,1,229.45,475.07Z"/><path class="cls-7" d="M183.2,485.27H351.28a13.4,13.4,0,0,1,13.36,13.36V512H169.84V498.63a13.4,13.4,0,0,1,13.36-13.36Z"/></svg>