<?xml version="1.0" encoding="iso-8859-1"?>
<!-- Generator: Adobe Illustrator 19.0.0, SVG Export Plug-In . SVG Version: 6.00 Build 0)  -->
<svg version="1.1" id="Capa_1" xmlns="http://www.w3.org/2000/svg" xmlns:xlink="http://www.w3.org/1999/xlink" x="0px" y="0px"
	 viewBox="0 0 512.001 512.001" style="enable-background:new 0 0 512.001 512.001;" xml:space="preserve">
<rect x="238.187" y="348.745" style="fill:#8B8992;" width="30.016" height="88.407"/>
<rect x="253.345" y="348.745" style="fill:#78777F;" width="14.858" height="88.407"/>
<path style="fill:#00A6FF;" d="M229.949,376.132c-57.192,0-110.962-22.272-151.403-62.713l-10.612-10.613l45.888-45.889
	l21.224,21.224l-24.236,24.237c72.254,61.424,181.107,58.027,249.318-10.183c34.772-34.772,53.923-81.005,53.923-130.179
	c0-44.138-15.428-85.905-43.734-119.143l-24.242,24.241l-21.224-21.225L370.741,0l10.612,10.612
	c40.441,40.441,62.714,94.211,62.714,151.403c0,57.193-22.273,110.962-62.714,151.403
	C340.911,353.859,287.141,376.132,229.949,376.132z"/>
<rect x="159.545" y="422.143" style="fill:#C8C6CD;" width="187.289" height="89.858"/>
<path style="fill:#00E8F2;" d="M389.675,162.014c0,42.663-16.619,82.774-46.785,112.94c-31.136,31.136-72.038,46.705-112.94,46.705
	s-81.803-15.568-112.94-46.705c-62.283-62.273-62.283-163.607,0-225.88c30.166-30.166,70.277-46.785,112.94-46.785
	s82.774,16.619,112.94,46.785C373.056,79.241,389.675,119.352,389.675,162.014z"/>
<path style="fill:#00CACA;" d="M389.675,162.014c0,42.663-16.619,82.774-46.785,112.94c-31.136,31.136-72.038,46.705-112.94,46.705
	s-81.803-15.568-112.94-46.705l225.88-225.88C373.056,79.241,389.675,119.352,389.675,162.014z"/>
<rect x="253.345" y="422.143" style="fill:#ACABB1;" width="93.489" height="89.858"/>
<rect x="132.631" y="481.985" style="fill:#8B8992;" width="241.118" height="30.016"/>
<rect x="253.345" y="481.985" style="fill:#78777F;" width="120.404" height="30.016"/>
<g>
</g>
<g>
</g>
<g>
</g>
<g>
</g>
<g>
</g>
<g>
</g>
<g>
</g>
<g>
</g>
<g>
</g>
<g>
</g>
<g>
</g>
<g>
</g>
<g>
</g>
<g>
</g>
<g>
</g>
</svg>
