<svg id="Objects" xmlns="http://www.w3.org/2000/svg" viewBox="0 0 472.86 239.02"><defs><style>.cls-1{fill:#04305d;}.cls-2,.cls-3{fill:none;stroke:#04305d;stroke-miterlimit:10;}.cls-2{stroke-width:3px;}.cls-3{stroke-width:2px;}.cls-4{fill:#063963;}</style></defs><title>language</title><path class="cls-1" d="M218.71,64.64c3.09,0,5.59-3,5.59-6.79s-.83-6.78-5.59-6.78-5.59,3-5.59,6.78S215.63,64.64,218.71,64.64Z" transform="translate(0 -0.04)"/><path class="cls-1" d="M229.25,74.72c-.1-6.52-1-8.38-7.48-9.56a4.59,4.59,0,0,1-6.12,0c-6.45,1.16-7.36,3-7.47,9.35v1.17s1.55,3.14,10.55,3.14,10.55-3.14,10.55-3.14v-.5a3.53,3.53,0,0,1,0-.46Z" transform="translate(0 -0.04)"/><path class="cls-1" d="M243.3,64.64c3.09,0,5.59-3,5.59-6.79s-.82-6.78-5.59-6.78-5.58,3-5.58,6.78S240.22,64.64,243.3,64.64Z" transform="translate(0 -0.04)"/><path class="cls-1" d="M253.84,74.72c-.1-6.52-1-8.38-7.48-9.56a4.59,4.59,0,0,1-6.12,0c-6.45,1.16-7.35,3-7.47,9.35v1.17s1.55,3.14,10.55,3.14,10.55-3.14,10.55-3.14v-1Z" transform="translate(0 -0.04)"/><path class="cls-1" d="M268.33,64.64c3.08,0,5.58-3,5.58-6.79s-.82-6.78-5.58-6.78-5.59,3-5.59,6.78S265.24,64.64,268.33,64.64Z" transform="translate(0 -0.04)"/><path class="cls-1" d="M278.87,74.72c-.11-6.52-1-8.38-7.48-9.56a4.59,4.59,0,0,1-6.12,0c-6.45,1.16-7.36,3-7.48,9.35v1.17s1.55,3.14,10.55,3.14,10.55-3.14,10.55-3.14v-.5a3.53,3.53,0,0,1,0-.46Z" transform="translate(0 -0.04)"/><polygon class="cls-1" points="174.71 11.21 160.23 24.66 154.27 16.55 150.07 19.64 159.49 32.45 178.25 15.03 174.71 11.21"/><polygon class="cls-1" points="314.78 190.46 300.3 202.93 294.35 195.41 290.14 198.28 299.56 210.16 318.33 194.01 314.78 190.46"/><path class="cls-2" d="M146.69,59.51a10.34,10.34,0,0,1-5.16-3.7c-1.25-2,.26-2.51-.25-8-.47-5.07-7.45-10.53-15.94-11.08a21.59,21.59,0,0,0-12,2.78c-10.56,5.78-14.74,18-6.59,29.77,7.35,10.62.46,15.42.46,15.42s.27,2.24,4.79,5.24,10.06,1,10.06,1,1.83-6.5,7.81-5.9c4.29.63,10.31-.21,11.83-1.69s-.25-3.1.88-6.94c-3.88-.38-6-2.24-6.23-4.85,4.32.42,6.1-1,7.33-2.46,0-.89-.12-2.77-.2-4,3.81-1.1,5.27-4.87,3.19-5.48" transform="translate(0 -0.04)"/><path class="cls-3" d="M170,42a16,16,0,0,0-16,15.81v7.13a16.53,16.53,0,0,0,.6,4.42l-7,7.52,9.27-2.68A16.26,16.26,0,0,0,170,80.68a16,16,0,0,0,16-15.81V57.74A16,16,0,0,0,170,42Z" transform="translate(0 -0.04)"/><path class="cls-1" d="M170.87,64.31l-2.2-2.18h0a15.13,15.13,0,0,0,3.22-5.66h2.54V54.73h-6.07V53h-1.73v1.73h-6.07v1.73h9.68a13.61,13.61,0,0,1-2.75,4.65,13.8,13.8,0,0,1-2-2.91h-1.73a15.21,15.21,0,0,0,2.58,4L162,66.48l1.23,1.23,4.33-4.34,2.7,2.7.66-1.76Zm4.88-4.41H174l-3.9,10.41h1.73l1-2.6h4.11l1,2.6h1.73ZM173.48,66l1.41-3.75,1.4,3.75Z" transform="translate(0 -0.04)"/><rect class="cls-3" x="222.83" y="189.84" width="56.84" height="24.78" rx="11.1"/><path class="cls-1" d="M264.84,211.44" transform="translate(0 -0.04)"/><polygon class="cls-1" points="248.54 213.37 246.97 223.2 242.94 214.6 248.54 213.37"/><path class="cls-1" d="M301.3,60.77,299.45,59h0a12.81,12.81,0,0,0,2.71-4.77h2.14V52.74h-5.1V51.28h-1.46v1.46h-5.11V54.2h8.16a11.25,11.25,0,0,1-2.32,3.91,10.81,10.81,0,0,1-1.68-2.44h-1.47A13.28,13.28,0,0,0,297.5,59l-3.71,3.67,1,1L298.44,60l2.28,2.27.55-1.48Z" transform="translate(0 -0.04)"/><rect class="cls-1" x="296.68" y="57.2" width="17.87" height="1.49" transform="translate(168.84 337.29) rotate(-74.65)"/><path class="cls-1" d="M313.7,53h-2l-4.41,10h2l1.1-2h4.66l1.11,2h2Zm-2.57,6,1.59-5.29,1.6,5.29Z" transform="translate(0 -0.04)"/><path class="cls-1" d="M152.05,232.85l-2.2-2.17h0a15.13,15.13,0,0,0,3.22-5.66h2.54v-1.74h-6.07v-1.73h-1.73v1.73h-6.07V225h9.68a13.8,13.8,0,0,1-2.74,4.64,13.49,13.49,0,0,1-2-2.9H145a15.21,15.21,0,0,0,2.58,3.95L143.17,235l1.23,1.23,4.34-4.34,2.69,2.7.66-1.77Z" transform="translate(0 -0.04)"/><rect class="cls-1" x="144.25" y="227.77" width="21.1" height="1.76" transform="translate(-106.36 318.26) rotate(-74.85)"/><path class="cls-1" d="M166.77,224h-2.33l-5.24,13h2.33l1.31-5h5.53l1.31,5H172Zm-3.06,6,1.89-5,1.9,5.05Z" transform="translate(0 -0.04)"/><path class="cls-2" d="M401.65,202c0,9.72-8,17-17.68,17h-8a18.26,18.26,0,0,1-4.94-.48l-8.41,7.89,3-10.32a16.82,16.82,0,0,1-7.32-13.91c0-9.72,7.95-17.18,17.67-17.18h8C393.69,185,401.65,192.26,401.65,202Z" transform="translate(0 -0.04)"/><path class="cls-1" d="M368.37,202.89a1.75,1.75,0,1,1,1.75,1.75A1.75,1.75,0,0,1,368.37,202.89Z" transform="translate(0 -0.04)"/><path class="cls-1" d="M378.24,202.89a1.75,1.75,0,1,1,3.49-.26,1.13,1.13,0,0,1,0,.26,1.75,1.75,0,1,1-3.49.26A1.13,1.13,0,0,1,378.24,202.89Z" transform="translate(0 -0.04)"/><path class="cls-1" d="M388.11,202.89a1.75,1.75,0,1,1,3.49-.26,1.13,1.13,0,0,1,0,.26,1.75,1.75,0,1,1-3.49.26A1.13,1.13,0,0,1,388.11,202.89Z" transform="translate(0 -0.04)"/><rect class="cls-1" x="58.87" y="209.86" width="6" height="12.7" transform="translate(-1.36 0.36) rotate(-0.36)"/><polygon class="cls-1" points="61.41 211.9 61.66 216.4 61.45 220.56 88.2 232.87 88.1 216.24 87.99 198.92 61.41 211.9"/><path class="cls-1" d="M92.44,222.47a1,1,0,0,1-.35,0,1.37,1.37,0,0,1-1-1.67v0a19,19,0,0,0,.46-4.39,13.61,13.61,0,0,0-.89-4.93,1.38,1.38,0,1,1,2.6-1,16.29,16.29,0,0,1,1.06,5.86,21.31,21.31,0,0,1-.55,5.1A1.38,1.38,0,0,1,92.44,222.47Z" transform="translate(0 -0.04)"/><path class="cls-1" d="M96.24,227.78a1.41,1.41,0,0,1-.94-.36,1.39,1.39,0,0,1-.1-1.95s1.93-2.39,1.89-8.78S95,207.4,95,207.37a1.41,1.41,0,0,1,.27-1.94,1.39,1.39,0,0,1,1.93.25c.11.14,2.62,3.45,2.67,11S97.53,227,97.26,227.33A1.4,1.4,0,0,1,96.24,227.78Z" transform="translate(0 -0.04)"/><path class="cls-1" d="M15.63,111.9a.83.83,0,0,1-.84-.82h0V92.23c0-8.23,7.07-14.93,15.75-14.93h66.2a.84.84,0,0,1,.83.84.83.83,0,0,1-.83.83H30.54c-7.76,0-14.08,6-14.08,13.26v18.84A.83.83,0,0,1,15.63,111.9Z" transform="translate(0 -0.04)"/><path class="cls-1" d="M97.68,73H96a.84.84,0,1,1-.18-1.67.54.54,0,0,1,.18,0h1.67A.84.84,0,1,1,97.85,73h-.17Z" transform="translate(0 -0.04)"/><path class="cls-1" d="M23.07,105.83a.84.84,0,0,1-.84-.83v-3.29a.84.84,0,0,1,1.68,0V105a.85.85,0,0,1-.83.85Zm0-7.66a.84.84,0,0,1-.84-.83V94.05a.84.84,0,1,1,1.68,0h0v3.29A.84.84,0,0,1,23.07,98.17Zm0-7.66a.84.84,0,0,1-.84-.83V86.39a.84.84,0,1,1,1.68,0h0v3.29A.84.84,0,0,1,23.07,90.51Zm.65-7.59a1,1,0,0,1-.25,0,.82.82,0,0,1-.54-1h0a13.47,13.47,0,0,1,1.46-3.15.84.84,0,0,1,1.14-.29h0a.84.84,0,0,1,.27,1.16h0a13,13,0,0,0-1.29,2.78A.82.82,0,0,1,23.72,82.92Zm4.21-6.28a.84.84,0,0,1-.82-.86.81.81,0,0,1,.28-.61,15.71,15.71,0,0,1,2.85-2A.84.84,0,0,1,31,74.65a13.89,13.89,0,0,0-2.55,1.75A.87.87,0,0,1,27.93,76.64Zm6.81-3.33a.84.84,0,0,1-.17-1.66,16.54,16.54,0,0,1,3.29-.33H38A.84.84,0,0,1,38.26,73h-.4a15.11,15.11,0,0,0-3,.3ZM91.63,73H88.35a.84.84,0,1,1-.18-1.67h3.46A.84.84,0,1,1,91.81,73,.54.54,0,0,1,91.63,73ZM84,73H80.71a.84.84,0,0,1-.74-.93.83.83,0,0,1,.74-.74H84a.84.84,0,0,1,.74.93A.83.83,0,0,1,84,73Zm-7.66,0H73a.84.84,0,0,1-.74-.93.83.83,0,0,1,.74-.74h3.29a.84.84,0,0,1,.74.93.83.83,0,0,1-.74.74Zm-7.66,0H65.36a.84.84,0,1,1-.18-1.67.54.54,0,0,1,.18,0h3.29a.84.84,0,0,1,.74.93.83.83,0,0,1-.74.74ZM61,73H57.7a.84.84,0,1,1-.18-1.67.54.54,0,0,1,.18,0H61A.84.84,0,1,1,61.18,73Zm-7.66,0H50a.84.84,0,1,1-.18-1.67.54.54,0,0,1,.18,0h3.28A.84.84,0,1,1,53.46,73h-.12Zm-7.66,0h-3.3a.84.84,0,1,1-.18-1.67.54.54,0,0,1,.18,0h3.28A.84.84,0,1,1,45.84,73h-.16Z" transform="translate(0 -0.04)"/><path class="cls-1" d="M23.07,111.9a.84.84,0,0,1-.84-.83v-1.68a.84.84,0,1,1,1.68,0v1.68A.84.84,0,0,1,23.07,111.9Z" transform="translate(0 -0.04)"/><path class="cls-1" d="M99.71,78.14a3,3,0,1,1-3-3A3,3,0,0,1,99.71,78.14Z" transform="translate(0 -0.04)"/><path class="cls-1" d="M439,184.18a3,3,0,1,1-3-3A3,3,0,0,1,439,184.18Z" transform="translate(0 -0.04)"/><path class="cls-1" d="M173.76,104.65H141.39a.84.84,0,1,1,0-1.68h32.37a.84.84,0,0,1,0,1.68Z" transform="translate(0 -0.04)"/><path class="cls-1" d="M176.73,103.81a3,3,0,1,1-3-3A3,3,0,0,1,176.73,103.81Z" transform="translate(0 -0.04)"/><path class="cls-1" d="M144.36,103.81a3,3,0,1,1-3-3A3,3,0,0,1,144.36,103.81Z" transform="translate(0 -0.04)"/><path class="cls-1" d="M200.17,87.07a3,3,0,1,1-3-3A3,3,0,0,1,200.17,87.07Z" transform="translate(0 -0.04)"/><path class="cls-1" d="M292.82,87.07a3,3,0,1,1-3-3A3,3,0,0,1,292.82,87.07Z" transform="translate(0 -0.04)"/><path class="cls-1" d="M286.86,88.18h-3.34a1.12,1.12,0,0,1-.21-2.23.74.74,0,0,1,.21,0h3.34a1.12,1.12,0,1,1,.21,2.23Zm-7.81,0H275.7a1.12,1.12,0,0,1,0-2.23h3.35a1.12,1.12,0,1,1,.21,2.23Zm-7.81,0h-3.35a1.12,1.12,0,0,1-.21-2.23.74.74,0,0,1,.21,0h3.35a1.12,1.12,0,0,1,0,2.23Zm-7.82,0h-3.34a1.12,1.12,0,0,1-.21-2.23.74.74,0,0,1,.21,0h3.34a1.12,1.12,0,1,1,.21,2.23Zm-7.81,0h-3.35a1.12,1.12,0,0,1,0-2.23h3.35a1.12,1.12,0,1,1,.21,2.23Zm-7.81,0h-3.35a1.12,1.12,0,1,1-.21-2.23.74.74,0,0,1,.21,0h3.35a1.12,1.12,0,0,1,0,2.23Zm-7.82,0h-3.34a1.12,1.12,0,1,1-.21-2.23.74.74,0,0,1,.21,0H240a1.12,1.12,0,0,1,.21,2.23H240Zm-7.81,0h-3.35a1.12,1.12,0,0,1,0-2.23h3.35a1.12,1.12,0,0,1,.21,2.23Zm-7.81,0H221a1.12,1.12,0,1,1-.21-2.23.74.74,0,0,1,.21,0h3.35a1.12,1.12,0,0,1,0,2.23Zm-7.82,0h-3.35a1.12,1.12,0,0,1,0-2.23h3.35a1.12,1.12,0,0,1,.21,2.23Zm-7.81,0h-3.35a1.12,1.12,0,0,1,0-2.23h3.35a1.12,1.12,0,0,1,.21,2.23Zm-7.81,0h-3.35a1.12,1.12,0,1,1-.21-2.23.74.74,0,0,1,.21,0h3.35a1.12,1.12,0,0,1,0,2.23Z" transform="translate(0 -0.04)"/><path class="cls-1" d="M268.26,228.83a3,3,0,1,1-3-3A3,3,0,0,1,268.26,228.83Z" transform="translate(0 -0.04)"/><path class="cls-1" d="M126.5,213.2a3,3,0,1,1-3-3A3,3,0,0,1,126.5,213.2Z" transform="translate(0 -0.04)"/><path class="cls-1" d="M266.77,230.22h-72a8.67,8.67,0,0,1-8.65-8.65,7,7,0,0,0-7-7H123.9a.84.84,0,1,1-.18-1.67.54.54,0,0,1,.18,0h55.25a8.67,8.67,0,0,1,8.65,8.65,7,7,0,0,0,7,7h72a.84.84,0,1,1,.18,1.67h-.21Z" transform="translate(0 -0.04)"/><path class="cls-1" d="M436.44,183.9a.85.85,0,0,1-.84-.84V129.3a25.8,25.8,0,0,0-25.77-25.77H354.77a27.47,27.47,0,0,1-27.44-27.44V61.39a.84.84,0,0,1,.93-.74.83.83,0,0,1,.74.74v14.7a25.8,25.8,0,0,0,25.77,25.77h55.06a27.47,27.47,0,0,1,27.44,27.44v53.76A.84.84,0,0,1,436.44,183.9Z" transform="translate(0 -0.04)"/><path class="cls-1" d="M446.85,194.22a3,3,0,1,1-3-3A3,3,0,0,1,446.85,194.22Z" transform="translate(0 -0.04)"/><path class="cls-1" d="M444.25,194a.84.84,0,0,1-.84-.83V139.34a.84.84,0,1,1,1.68,0v53.77a.85.85,0,0,1-.81.87Z" transform="translate(0 -0.04)"/><path class="cls-1" d="M6,159.62a3,3,0,1,1-3-3A3,3,0,0,1,6,159.62Z" transform="translate(0 -0.04)"/><path class="cls-1" d="M3.35,159.34a.85.85,0,0,1-.84-.84V104.74a.84.84,0,0,1,1.68,0h0V158.5A.85.85,0,0,1,3.35,159.34Z" transform="translate(0 -0.04)"/><path class="cls-1" d="M11.53,135.06a3,3,0,1,1-3-3A3,3,0,0,1,11.53,135.06Z" transform="translate(0 -0.04)"/><path class="cls-1" d="M8.93,134.78a.84.84,0,0,1-.84-.83V80.18a.84.84,0,0,1,1.68,0V134A.84.84,0,0,1,8.93,134.78Z" transform="translate(0 -0.04)"/><path class="cls-1" d="M226.9,43.84a14.25,14.25,0,0,1-1.48-.05.84.84,0,0,1,0-1.68h.15a12.52,12.52,0,0,0,1.37,0c.46,0,1.23,0,1.84-.08a.82.82,0,0,1,.91.72v0a.84.84,0,0,1-.75.91A13.52,13.52,0,0,1,226.9,43.84ZM221.09,43h-.23a21,21,0,0,1-3.26-1.22.83.83,0,0,1,.71-1.51h0a20,20,0,0,0,3,1.12.84.84,0,0,1-.22,1.64Zm12.1-.15a.84.84,0,0,1-.25-1.64,20.4,20.4,0,0,0,3-1.2.85.85,0,0,1,1.12.38.82.82,0,0,1-.37,1.11h0a21.9,21.9,0,0,1-3.22,1.3.84.84,0,0,1-.27,0Zm-19.06-3.32a.82.82,0,0,1-.5-.17,21.15,21.15,0,0,1-2.6-2.31.82.82,0,0,1,0-1.17h0a.85.85,0,0,1,1.18,0,21.2,21.2,0,0,0,2.4,2.14.83.83,0,0,1,.17,1.16h0A.82.82,0,0,1,214.13,39.56Zm25.92-.33a.84.84,0,0,1-.53-1.49,20.31,20.31,0,0,0,2.35-2.19.83.83,0,0,1,1.17-.07h0a.84.84,0,0,1,.06,1.18,21.18,21.18,0,0,1-2.54,2.38.82.82,0,0,1-.52.18Zm-31.14-5.41a.86.86,0,0,1-.72-.4,20.91,20.91,0,0,1-1.58-3.09.83.83,0,1,1,1.54-.64,19.2,19.2,0,0,0,1.47,2.85.84.84,0,0,1-.27,1.15.76.76,0,0,1-.44.13Zm36.22-.46a.79.79,0,0,1-.42-.12.82.82,0,0,1-.31-1.12v0a19.2,19.2,0,0,0,1.39-2.89.84.84,0,0,1,1.62.44.44.44,0,0,1-.06.16,20,20,0,0,1-1.51,3.13.83.83,0,0,1-.72.42Zm-39-6.78a.85.85,0,0,1-.83-.69,22.31,22.31,0,0,1-.36-3.46.84.84,0,0,1,.82-.85.82.82,0,0,1,.86.78v0a20.31,20.31,0,0,0,.33,3.2.84.84,0,0,1-.65,1h-.17ZM247.77,26h-.14a.83.83,0,0,1-.7-.94s0,0,0-.06a21.59,21.59,0,0,0,.25-3.21.84.84,0,0,1,.93-.74.83.83,0,0,1,.74.74,22.44,22.44,0,0,1-.27,3.47.83.83,0,0,1-.84.74Zm-41.64-7.23H206a.83.83,0,0,1-.67-1v0a21.66,21.66,0,0,1,.91-3.36.84.84,0,1,1,1.63.4.49.49,0,0,1-.06.17,19.7,19.7,0,0,0-.83,3.1.85.85,0,0,1-.87.69Zm41.44-.49a.84.84,0,0,1-.82-.67,19.47,19.47,0,0,0-.92-3.08.84.84,0,1,1,1.57-.6,22.9,22.9,0,0,1,1,3.34.86.86,0,0,1-.65,1ZM209,11.57a.83.83,0,0,1-.83-.85.82.82,0,0,1,.12-.43,21.69,21.69,0,0,1,2.06-2.8.84.84,0,0,1,1.18-.08.83.83,0,0,1,.09,1.17h0a20,20,0,0,0-1.9,2.59.84.84,0,0,1-.73.39Zm35.63-.42a.86.86,0,0,1-.7-.38,18.78,18.78,0,0,0-2-2.54.83.83,0,0,1,1.22-1.14h0a22.69,22.69,0,0,1,2.13,2.75A.83.83,0,0,1,245,11a.8.8,0,0,1-.44.17ZM214.19,5.84a.84.84,0,0,1-.51-1.51,23.06,23.06,0,0,1,2.93-1.87.85.85,0,0,1,1.14.35.84.84,0,0,1-.35,1.13,19.74,19.74,0,0,0-2.71,1.73.87.87,0,0,1-.52.17Zm25-.3a.84.84,0,0,1-.49-.16A20.7,20.7,0,0,0,236,3.72a.84.84,0,0,1-.44-1.1.83.83,0,0,1,1.1-.44l.09,0a24.56,24.56,0,0,1,3,1.8.84.84,0,0,1-.49,1.52ZM221.12,2.38a.84.84,0,0,1-.23-1.64A21,21,0,0,1,224.3.06a.84.84,0,1,1,.36,1.64l-.16,0a21.16,21.16,0,0,0-3.15.63A.91.91,0,0,1,221.12,2.38Zm11-.13h-.21a21.1,21.1,0,0,0-3.16-.55A.84.84,0,0,1,228,.79a.83.83,0,0,1,.9-.75h0a20.85,20.85,0,0,1,3.43.59.82.82,0,0,1-.18,1.62Z" transform="translate(0 -0.04)"/><path class="cls-1" d="M249.22,43.84a14.34,14.34,0,0,1-1.47-.05.84.84,0,1,1-.05-1.68h.15a12.52,12.52,0,0,0,1.37,0c.47,0,1.23,0,1.85-.08a.83.83,0,0,1,.91.74v0a.85.85,0,0,1-.76.91A13.44,13.44,0,0,1,249.22,43.84ZM243.41,43h-.23a22,22,0,0,1-3.26-1.22.83.83,0,1,1,.71-1.51,20,20,0,0,0,3,1.12.84.84,0,0,1-.23,1.64Zm12.1-.15a.84.84,0,0,1-.25-1.64,20.4,20.4,0,0,0,3-1.2.84.84,0,0,1,.75,1.5,22,22,0,0,1-3.23,1.3.84.84,0,0,1-.27,0Zm-19-3.32a.87.87,0,0,1-.51-.17,21.81,21.81,0,0,1-2.59-2.31.82.82,0,0,1,0-1.17h0a.85.85,0,0,1,1.18,0,21.2,21.2,0,0,0,2.4,2.14.83.83,0,0,1-.5,1.5Zm25.91-.33a.83.83,0,0,1-.65-.31.84.84,0,0,1,.13-1.18,21.06,21.06,0,0,0,2.34-2.19.84.84,0,0,1,1.36,1l-.12.13a21.18,21.18,0,0,1-2.54,2.38.82.82,0,0,1-.52.18Zm-31.14-5.41a.83.83,0,0,1-.71-.4,21,21,0,0,1-1.59-3.09.83.83,0,1,1,1.54-.64h0a21.93,21.93,0,0,0,1.47,2.85.84.84,0,0,1-.27,1.15.76.76,0,0,1-.44.13Zm36.22-.46a.79.79,0,0,1-.42-.12.82.82,0,0,1-.3-1.13h0a20.8,20.8,0,0,0,1.4-2.89.84.84,0,0,1,1.62.44.44.44,0,0,1-.06.16,21.46,21.46,0,0,1-1.51,3.13.84.84,0,0,1-.73.42Zm-39-6.78a.84.84,0,0,1-.82-.69,22.31,22.31,0,0,1-.36-3.46.84.84,0,0,1,.93-.74.83.83,0,0,1,.74.74,21.57,21.57,0,0,0,.33,3.2.83.83,0,0,1-.61,1h-.06ZM270.09,26H270a.83.83,0,0,1-.71-.93s0-.05,0-.07a20.33,20.33,0,0,0,.25-3.21.84.84,0,0,1,1.68,0,22.44,22.44,0,0,1-.27,3.47.85.85,0,0,1-.85.74Zm-41.63-7.23h-.16a.85.85,0,0,1-.67-1h0a23.17,23.17,0,0,1,.91-3.36.84.84,0,0,1,1.58.57,20.88,20.88,0,0,0-.84,3.1.84.84,0,0,1-.84.69Zm41.43-.49a.84.84,0,0,1-.82-.67,20.54,20.54,0,0,0-.91-3.08.84.84,0,1,1,1.5-.76,1,1,0,0,1,.06.16,21.4,21.4,0,0,1,1,3.34.83.83,0,0,1-.62,1h-.21Zm-38.62-6.75a.76.76,0,0,1-.44-.13.84.84,0,0,1-.27-1.15,21.69,21.69,0,0,1,2.06-2.8.84.84,0,0,1,1.27,1.1h0A21,21,0,0,0,232,11.17a.83.83,0,0,1-.73.4Zm35.64-.42a.83.83,0,0,1-.7-.38,20.5,20.5,0,0,0-2-2.54.84.84,0,0,1,1.24-1.13,22.69,22.69,0,0,1,2.13,2.75.85.85,0,0,1-.24,1.16.8.8,0,0,1-.45.14Zm-30.4-5.31a.85.85,0,0,1-.67-.34A.83.83,0,0,1,236,4.34h0a20.79,20.79,0,0,1,2.93-1.87.84.84,0,0,1,.78,1.48A19.74,19.74,0,0,0,237,5.67a.87.87,0,0,1-.52.17Zm25-.3a.84.84,0,0,1-.49-.16,20.7,20.7,0,0,0-2.75-1.66A.85.85,0,0,1,258,2.57.84.84,0,0,1,259,2.22,21.66,21.66,0,0,1,262,4a.84.84,0,0,1-.49,1.52ZM243.45,2.38a.84.84,0,0,1-.81-.61.82.82,0,0,1,.58-1,21,21,0,0,1,3.41-.68A.84.84,0,1,1,247,1.73l-.17,0a21.16,21.16,0,0,0-3.15.63.81.81,0,0,1-.22,0Zm11-.13h-.21a21.23,21.23,0,0,0-3.17-.55A.83.83,0,0,1,251.23,0a20.91,20.91,0,0,1,3.42.59.84.84,0,0,1-.2,1.65Z" transform="translate(0 -0.04)"/><path class="cls-1" d="M64.84,234.3h-.62c-.47,0-.84-.7-.84-1.17s.38-1.15.84-1.15h0l.62.32c.88,0,1.78.15,2.7.12a.91.91,0,0,1,.86.89.87.87,0,0,1-.81.91C66.66,234.25,65.74,234.3,64.84,234.3Zm-5.08-.17H59.7c-1.13-.08-2.27-.18-3.37-.31a.84.84,0,0,1,.2-1.66c1.07.12,2.18.23,3.29.3a.84.84,0,0,1-.06,1.67ZM72,234a.83.83,0,0,1-.83-.77.85.85,0,0,1,.77-.9c.9-.07,1.82-.16,2.76-.26a.84.84,0,1,1,.24,1.66h-.07c-1,.1-1.88.19-2.8.26Zm-20-.87h-.16c-1.13-.22-2.25-.48-3.31-.76a.84.84,0,1,1,.32-1.65l.11,0c1,.28,2.11.52,3.2.74a.84.84,0,0,1,.64,1,.83.83,0,0,1-.8.66ZM44.53,231a.79.79,0,0,1-.3,0c-1.08-.41-2.13-.85-3.14-1.33a.84.84,0,0,1-.5-1.08.85.85,0,0,1,1.08-.5l.14.07c1,.45,2,.88,3,1.27a.84.84,0,0,1,.5,1.06v0A.83.83,0,0,1,44.53,231Zm-7-3.44a.76.76,0,0,1-.44-.13c-1-.62-1.91-1.29-2.81-2a.84.84,0,0,1,0-1.19.85.85,0,0,1,1-.13A30.5,30.5,0,0,0,38,226a.84.84,0,0,1-.45,1.55Zm-6.06-4.89a.85.85,0,0,1-.6-.26c-.79-.82-1.56-1.69-2.26-2.58a.84.84,0,0,1,0-1.19.85.85,0,0,1,1.19,0,.91.91,0,0,1,.17.23c.67.85,1.39,1.68,2.14,2.46a.82.82,0,0,1,0,1.17h0a.87.87,0,0,1-.59.24Zm-4.7-6.22a.83.83,0,0,1-.72-.42,30.85,30.85,0,0,1-1.55-3,.84.84,0,1,1,1.47-.81.75.75,0,0,1,.06.13,28.39,28.39,0,0,0,1.48,2.91.84.84,0,0,1-.31,1.14.79.79,0,0,1-.42.12Zm-3-7.19a.84.84,0,0,1-.81-.61,21.44,21.44,0,0,1-.71-3.44.84.84,0,0,1,.76-.91.82.82,0,0,1,.91.72v0a19.79,19.79,0,0,0,.65,3.15.82.82,0,0,1-.58,1,.72.72,0,0,1-.24.1Z" transform="translate(0 -0.04)"/><path class="cls-1" d="M266.24,237.48h-3.35a.84.84,0,0,1,0-1.68h3.35a.84.84,0,1,1,0,1.68Zm-7.82,0h-3.35a.84.84,0,1,1,0-1.68h3.35a.84.84,0,1,1,0,1.68Zm-7.81,0h-3.35a.84.84,0,1,1,0-1.68h3.35a.84.84,0,0,1,0,1.68Zm-7.81,0h-3.35a.84.84,0,0,1,0-1.68h3.35a.84.84,0,0,1,0,1.68Zm-7.82,0h-3.35a.84.84,0,1,1,0-1.68H235a.84.84,0,0,1,0,1.68h0Zm-7.81,0h-3.35a.84.84,0,1,1,0-1.68h3.35a.84.84,0,0,1,0,1.68Zm-7.82,0H216a.84.84,0,1,1,0-1.68h3.34a.84.84,0,0,1,0,1.68Zm-7.81,0h-3.35a.84.84,0,1,1,0-1.68h3.35a.84.84,0,0,1,0,1.68Zm-7.81,0h-3.35a.84.84,0,1,1,0-1.68h3.35a.84.84,0,0,1,0,1.68Zm-7.82,0h-.68a.84.84,0,1,1,0-1.68h.68a.84.84,0,0,1,0,1.68Z" transform="translate(0 -0.04)"/><path class="cls-1" d="M395.65,233a1.12,1.12,0,1,1-.21-2.23h.21a26.31,26.31,0,0,0,3.2-.2,1.12,1.12,0,0,1,.27,2.22A28.73,28.73,0,0,1,395.65,233Zm-4.47,0h-3.35a1.12,1.12,0,0,1,0-2.23h3.35a1.12,1.12,0,0,1,.21,2.23A.74.74,0,0,1,391.18,233Zm-7.81,0H380a1.12,1.12,0,0,1-.21-2.23h3.56a1.12,1.12,0,0,1,.21,2.23.74.74,0,0,1-.21,0Zm-7.81,0h-3.35a1.12,1.12,0,1,1-.21-2.23h3.56a1.12,1.12,0,0,1,0,2.23Zm-7.82,0h-3.35a1.12,1.12,0,0,1,0-2.23h3.35A1.12,1.12,0,0,1,368,233,.74.74,0,0,1,367.74,233Zm35.61-1.12a1.12,1.12,0,0,1-.32-2.19,27,27,0,0,0,3-1.11,1.11,1.11,0,1,1,1.21,1.86,1.09,1.09,0,0,1-.31.14,26.67,26.67,0,0,1-3.27,1.21,1.06,1.06,0,0,1-.31,0Zm7-3.3a1.12,1.12,0,0,1-1.12-1.12,1.14,1.14,0,0,1,.5-.93,26.79,26.79,0,0,0,2.56-1.93,1.12,1.12,0,1,1,1.59,1.58.69.69,0,0,1-.13.11,27,27,0,0,1-2.78,2.1,1.13,1.13,0,0,1-.57.15Zm5.8-5.19a1.09,1.09,0,0,1-.71-.26,1.11,1.11,0,0,1-.15-1.56h0a25.19,25.19,0,0,0,1.9-2.58,1.12,1.12,0,0,1,1.88,1.2A27.1,27.1,0,0,1,417,223a1.09,1.09,0,0,1-.81.36Zm4.08-6.63a1.12,1.12,0,0,1-1.09-1.15,1,1,0,0,1,.09-.41,25,25,0,0,0,1.08-3,1.11,1.11,0,0,1,2.14.62A25.67,25.67,0,0,1,421.3,216a1.1,1.1,0,0,1-1,.72Zm2-7.52h-.13a1.12,1.12,0,0,1-1-1.23h0a27.83,27.83,0,0,0,.16-2.89,1.12,1.12,0,0,1,1.12-1.12h0a1.13,1.13,0,0,1,1.11,1.12,29.88,29.88,0,0,1-.17,3.14,1.13,1.13,0,0,1-1.05,1Z" transform="translate(0 -0.04)"/><path class="cls-1" d="M351.6,200H327.05a1,1,0,0,1,0-2H351.6a1,1,0,0,1,0,2Z" transform="translate(0 -0.04)"/><path class="cls-1" d="M351.6,210H327.05a1,1,0,0,1,0-2H351.6a1,1,0,0,1,0,2Z" transform="translate(0 -0.04)"/><path class="cls-1" d="M351.6,215H337.09c-.61,0-1.11-.88-1.11-1.5s.5-1.5,1.11-1.5H351.6c.62,0,1.12.88,1.12,1.5S352.22,215,351.6,215Z" transform="translate(0 -0.04)"/><path class="cls-1" d="M351.6,205H337.09c-.61,0-1.11-.88-1.11-1.5s.5-1.5,1.11-1.5H351.6c.62,0,1.12.88,1.12,1.5S352.22,205,351.6,205Z" transform="translate(0 -0.04)"/><rect class="cls-1" x="429.77" y="215.42" width="18.91" height="4.29" transform="translate(-47.31 158.04) rotate(-19.38)"/><rect class="cls-1" x="428.34" y="211.37" width="18.91" height="4.29" transform="translate(-46.04 157.34) rotate(-19.38)"/><rect class="cls-1" x="426.92" y="207.32" width="18.91" height="4.29" transform="translate(-44.78 156.64) rotate(-19.38)"/><path class="cls-4" d="M453.83,231a.41.41,0,0,1-.38-.27l-9.79-27.84a.38.38,0,0,1,.22-.5h0a.39.39,0,0,1,.51.23v0l9.79,27.83a.39.39,0,0,1-.23.51h0Z" transform="translate(0 -0.04)"/><rect class="cls-1" x="449.58" y="208.27" width="12.87" height="6.24" transform="translate(68.23 531.13) rotate(-64.38)"/><rect class="cls-1" x="455.19" y="210.97" width="12.87" height="6.24" transform="translate(68.97 537.72) rotate(-64.38)"/><rect class="cls-1" x="460.83" y="213.67" width="12.87" height="6.24" transform="translate(69.74 544.34) rotate(-64.38)"/><path class="cls-4" d="M443.93,229.76a.49.49,0,0,1-.17,0,.39.39,0,0,1-.19-.53h0l12.76-26.6a.41.41,0,0,1,.54-.2.39.39,0,0,1,.19.53h0L444.3,229.53A.39.39,0,0,1,443.93,229.76Z" transform="translate(0 -0.04)"/><path class="cls-1" d="M41.43,133.76h4.13v19.39H56.22v3.39H41.43Z" transform="translate(0 -0.04)"/><path class="cls-1" d="M75.64,151.2H64.51l-2.31,5.34H58l10.31-22.78h3.36L82,156.54H77.91ZM74.27,148l-4.2-9.76L65.88,148Z" transform="translate(0 -0.04)"/><path class="cls-1" d="M105.05,133.76v22.78H102l-12.29-16v16H85.85V133.76h3.07l12.26,15.94V133.76Z" transform="translate(0 -0.04)"/><path class="cls-1" d="M130.36,144.22v10.95a15.33,15.33,0,0,1-3.77,1.21,22.65,22.65,0,0,1-4.52.45,12.62,12.62,0,0,1-6.11-1.41,9.47,9.47,0,0,1-4-4,13.43,13.43,0,0,1-1.37-6.27,13.29,13.29,0,0,1,1.37-6.21,9.64,9.64,0,0,1,3.92-4,12.14,12.14,0,0,1,6-1.41,14.05,14.05,0,0,1,4.5.71,9.85,9.85,0,0,1,3.5,2l-1.41,3a11.2,11.2,0,0,0-3.13-1.79,9.87,9.87,0,0,0-3.36-.55,6.62,6.62,0,0,0-5.33,2.12q-1.82,2.1-1.81,6.17c0,2.8.62,4.9,1.86,6.32a6.93,6.93,0,0,0,5.53,2.13,16.15,16.15,0,0,0,4.42-.61V147.2h-4.93v-3Z" transform="translate(0 -0.04)"/><path class="cls-1" d="M138.63,154.42c-1.61-1.61-2.41-4-2.41-7.09V133.76h4.06v13.79a6.45,6.45,0,0,0,1.38,4.47,5.24,5.24,0,0,0,4.09,1.52A5.17,5.17,0,0,0,149.8,152a6.4,6.4,0,0,0,1.39-4.45V133.76h4.07v13.57q0,4.63-2.43,7.07c-1.63,1.62-4,2.43-7.08,2.43S140.24,156,138.63,154.42Z" transform="translate(0 -0.04)"/><path class="cls-1" d="M176.35,151.2H165.21l-2.3,5.34h-4.16l10.3-22.78h3.36l10.34,22.78h-4.13ZM175,148l-4.19-9.76L166.59,148Z" transform="translate(0 -0.04)"/><path class="cls-1" d="M204.86,144.22v10.95a15.56,15.56,0,0,1-3.78,1.21,22.47,22.47,0,0,1-4.51.45,12.59,12.59,0,0,1-6.11-1.41,9.47,9.47,0,0,1-4-4,13.31,13.31,0,0,1-1.38-6.27,13.17,13.17,0,0,1,1.38-6.21,9.58,9.58,0,0,1,3.92-4,12.12,12.12,0,0,1,6-1.41,13.94,13.94,0,0,1,4.49.71,9.81,9.81,0,0,1,3.51,2l-1.41,3a11.25,11.25,0,0,0-3.14-1.79,9.79,9.79,0,0,0-3.36-.55,6.61,6.61,0,0,0-5.32,2.12q-1.82,2.1-1.81,6.17c0,2.8.62,4.9,1.85,6.32a7,7,0,0,0,5.54,2.13,16.25,16.25,0,0,0,4.42-.61V147.2h-4.93v-3Z" transform="translate(0 -0.04)"/><path class="cls-1" d="M210.84,133.76h15.23V137h-11.2v6.3H225.4v3.26H214.87v6.69h11.2v3.26H210.84Z" transform="translate(0 -0.04)"/><path class="cls-1" d="M238.81,158.88a19.43,19.43,0,0,0,2.3.22,2.56,2.56,0,0,0,2.15-.76,4.85,4.85,0,0,0,.57-2.76V133.76H248v21.82c0,2.44-.46,4.2-1.38,5.3s-2.48,1.65-4.7,1.65a18.71,18.71,0,0,1-3.07-.26Z" transform="translate(0 -0.04)"/><path class="cls-1" d="M258.6,155.41a9.61,9.61,0,0,1-3.78-4.07,15.3,15.3,0,0,1,0-12.41,9.34,9.34,0,0,1,3.76-4.05,12.53,12.53,0,0,1,11.55,0,9.24,9.24,0,0,1,3.74,4.05,15.4,15.4,0,0,1,0,12.41,9.48,9.48,0,0,1-3.75,4.07,12.35,12.35,0,0,1-11.5,0Zm10.67-4a9.66,9.66,0,0,0,1.76-6.24,9.53,9.53,0,0,0-1.76-6.19,6.72,6.72,0,0,0-9.85,0c-1.18,1.43-1.76,3.5-1.76,6.21a9.66,9.66,0,0,0,1.76,6.24,6.65,6.65,0,0,0,9.85,0Z" transform="translate(0 -0.04)"/><path class="cls-1" d="M283,154.42c-1.61-1.61-2.42-4-2.42-7.09V133.76h4.07v13.79A6.45,6.45,0,0,0,286,152a5.26,5.26,0,0,0,4.1,1.52,5.14,5.14,0,0,0,4-1.54,6.4,6.4,0,0,0,1.4-4.45V133.76h4.06v13.57q0,4.63-2.43,7.07t-7.07,2.43Q285.43,156.83,283,154.42Z" transform="translate(0 -0.04)"/><path class="cls-1" d="M324.5,156.54h-4.35L317.24,149a2.58,2.58,0,0,0-1.18-1.47,4.5,4.5,0,0,0-2.08-.42h-4.13v9.47h-4.1V133.76h9.76a8.94,8.94,0,0,1,5.89,1.7,6,6,0,0,1,2,4.86,6.21,6.21,0,0,1-1.2,3.86,6.49,6.49,0,0,1-3.41,2.25,4,4,0,0,1,2.91,2.82Zm-9.56-12.67a5.67,5.67,0,0,0,3.45-.86,3.11,3.11,0,0,0,1.12-2.63,3,3,0,0,0-1.1-2.57,5.7,5.7,0,0,0-3.47-.85h-5.16v6.91Z" transform="translate(0 -0.04)"/><path class="cls-1" d="M348.76,133.76v22.78h-3.07l-12.29-16v16h-3.84V133.76h3.07l12.26,15.94V133.76Z" transform="translate(0 -0.04)"/><path class="cls-1" d="M355.06,133.76H370.3V137H359.1v6.3h10.52v3.26H359.1v6.69h11.2v3.26H355.06Z" transform="translate(0 -0.04)"/><path class="cls-1" d="M385,147.52v9h-4.13v-9l-9.25-13.76h4.7l6.6,10.3,6.62-10.3h4.7Z" transform="translate(0 -0.04)"/><path class="cls-1" d="M46.72,57.3H44V55.71h7.32V57.3H48.66v6.81H46.72Z" transform="translate(0 -0.04)"/><path class="cls-1" d="M58.61,62.31h-3.9L54,64.11H52l3.74-8.4h1.92l3.75,8.4h-2ZM58,60.84l-1.34-3.22-1.33,3.22Z" transform="translate(0 -0.04)"/><path class="cls-1" d="M63.37,55.71h1.95v6.82h4.21v1.58H63.37Z" transform="translate(0 -0.04)"/><path class="cls-1" d="M74.78,60.81,73.66,62v2.12H71.73v-8.4h1.93v3.93l3.72-3.93h2.15l-3.47,3.75,3.68,4.65H77.47Z" transform="translate(0 -0.04)"/><path class="cls-1" d="M208.47,99.78a4.63,4.63,0,0,1,8-2.85l-1.25,1.15a2.7,2.7,0,0,0-2.11-1,2.69,2.69,0,1,0,0,5.37,2.69,2.69,0,0,0,2.11-1l1.25,1.16a4.62,4.62,0,0,1-8-2.85Z" transform="translate(0 -0.04)"/><path class="cls-1" d="M218.19,99.78a4.6,4.6,0,1,1,4.6,4.35A4.35,4.35,0,0,1,218.19,99.78Zm7.22,0a2.63,2.63,0,1,0-2.62,2.69A2.55,2.55,0,0,0,225.41,99.78Z" transform="translate(0 -0.04)"/><path class="cls-1" d="M237.65,95.59V104h-1.59l-4.19-5.1V104H230V95.59h1.61l4.17,5.09V95.59Z" transform="translate(0 -0.04)"/><path class="cls-1" d="M248.78,95.59,245.14,104h-1.92l-3.62-8.39h2.1l2.55,6,2.6-6Z" transform="translate(0 -0.04)"/><path class="cls-1" d="M257.08,102.42V104h-6.5V95.59h6.35v1.55h-4.42V99h3.9v1.51h-3.9v1.94Z" transform="translate(0 -0.04)"/><path class="cls-1" d="M265.09,104l-1.62-2.34h-1.79V104h-1.94V95.59h3.63c2.24,0,3.65,1.16,3.65,3a2.73,2.73,0,0,1-1.73,2.65l1.88,2.7Zm-1.83-6.81h-1.58v2.93h1.58c1.19,0,1.79-.56,1.79-1.47S264.45,97.17,263.26,97.17Z" transform="translate(0 -0.04)"/><path class="cls-1" d="M269,103.15l.66-1.46a4.91,4.91,0,0,0,2.77.88c1.15,0,1.62-.39,1.62-.9,0-1.57-4.88-.5-4.88-3.61,0-1.43,1.15-2.62,3.54-2.62a5.55,5.55,0,0,1,2.91.75l-.6,1.47A4.77,4.77,0,0,0,272.7,97c-1.16,0-1.6.43-1.6,1,0,1.55,4.88.48,4.88,3.56,0,1.41-1.16,2.61-3.56,2.61A6,6,0,0,1,269,103.15Z" transform="translate(0 -0.04)"/><path class="cls-1" d="M284,102.18h-3.9l-.74,1.8h-2l3.74-8.39H283l3.75,8.39h-2Zm-.61-1.47L282,97.49l-1.34,3.22Z" transform="translate(0 -0.04)"/><path class="cls-1" d="M290,97.17h-2.69V95.59h7.32v1.58H292V104H290Z" transform="translate(0 -0.04)"/><path class="cls-1" d="M296.82,95.59h1.94V104h-1.94Z" transform="translate(0 -0.04)"/><path class="cls-1" d="M301.33,99.78a4.6,4.6,0,1,1,4.59,4.35A4.34,4.34,0,0,1,301.33,99.78Zm7.22,0a2.63,2.63,0,1,0-2.63,2.69A2.56,2.56,0,0,0,308.55,99.78Z" transform="translate(0 -0.04)"/><path class="cls-1" d="M320.79,95.59V104h-1.6L315,98.88V104h-1.92V95.59h1.61l4.17,5.09V95.59Z" transform="translate(0 -0.04)"/><path class="cls-1" d="M348.39,78.67l-3.63,8.4h-1.92l-3.62-8.4h2.1l2.55,6,2.59-6Z" transform="translate(0 -0.04)"/><path class="cls-1" d="M349.57,82.87a4.6,4.6,0,1,1,4.6,4.34A4.35,4.35,0,0,1,349.57,82.87Zm7.22,0a2.63,2.63,0,1,0-2.62,2.69A2.55,2.55,0,0,0,356.79,82.87Z" transform="translate(0 -0.04)"/><path class="cls-1" d="M360.8,82.87a4.63,4.63,0,0,1,8-2.85l-1.25,1.15a2.68,2.68,0,0,0-2.11-1,2.69,2.69,0,1,0,0,5.37,2.67,2.67,0,0,0,2.11-1l1.25,1.15a4.62,4.62,0,0,1-8-2.84Z" transform="translate(0 -0.04)"/><path class="cls-1" d="M376.59,85.27H372.7l-.75,1.8h-2l3.74-8.4h1.92l3.76,8.4h-2ZM376,83.8l-1.33-3.22-1.33,3.22Z" transform="translate(0 -0.04)"/><path class="cls-1" d="M389.06,84.78c0,1.45-1.15,2.29-3.36,2.29h-4.34v-8.4h4.1c2.1,0,3.18.88,3.18,2.19a2,2,0,0,1-1.11,1.84A2.08,2.08,0,0,1,389.06,84.78Zm-5.77-4.64v2h1.93c.95,0,1.47-.34,1.47-1s-.52-1-1.47-1Zm3.82,4.44c0-.71-.54-1-1.55-1h-2.27v2.08h2.27C386.57,85.61,387.11,85.29,387.11,84.58Z" transform="translate(0 -0.04)"/><path class="cls-1" d="M391.57,83.38V78.67h1.95V83.3c0,1.6.69,2.26,1.87,2.26s1.87-.66,1.87-2.26V78.67h1.92v4.71a3.81,3.81,0,1,1-7.61,0Z" transform="translate(0 -0.04)"/><path class="cls-1" d="M402.21,78.67h1.94v6.82h4.21v1.58h-6.15Z" transform="translate(0 -0.04)"/><path class="cls-1" d="M416.16,85.27h-3.9l-.74,1.8h-2l3.74-8.4h1.92l3.75,8.4h-2Zm-.61-1.47-1.34-3.22-1.33,3.22Z" transform="translate(0 -0.04)"/><path class="cls-1" d="M426.27,87.07l-1.62-2.34h-1.78v2.34h-1.95v-8.4h3.64c2.24,0,3.64,1.17,3.64,3a2.73,2.73,0,0,1-1.72,2.65l1.88,2.7Zm-1.82-6.81h-1.58v2.92h1.58c1.19,0,1.79-.55,1.79-1.46S425.64,80.26,424.45,80.26Z" transform="translate(0 -0.04)"/><path class="cls-1" d="M434.76,84.1v3h-1.94v-3l-3.26-5.4h2.07l2.24,3.73,2.24-3.73H438Z" transform="translate(0 -0.04)"/><path class="cls-1" d="M277.59,231.58l.66-1.47A4.91,4.91,0,0,0,281,231c1.15,0,1.62-.39,1.62-.9,0-1.57-4.88-.49-4.88-3.61,0-1.43,1.15-2.62,3.53-2.62a5.66,5.66,0,0,1,2.92.75l-.6,1.47a4.78,4.78,0,0,0-2.33-.66c-1.15,0-1.59.43-1.59,1,0,1.55,4.88.48,4.88,3.56,0,1.41-1.16,2.61-3.56,2.61A6,6,0,0,1,277.59,231.58Z" transform="translate(0 -0.04)"/><path class="cls-1" d="M294.29,227.05c0,1.87-1.41,3-3.65,3H289v2.31H287V224h3.63C292.88,224,294.29,225.17,294.29,227.05Zm-2,0c0-.92-.6-1.46-1.79-1.46H289v2.91h1.58C291.72,228.5,292.32,228,292.32,227.05Z" transform="translate(0 -0.04)"/><path class="cls-1" d="M303.28,230.84v1.56h-6.5V224h6.34v1.56h-4.41v1.82h3.89v1.51h-3.89v1.94Z" transform="translate(0 -0.04)"/><path class="cls-1" d="M311.46,230.6h-3.9l-.74,1.8h-2l3.74-8.39h1.92l3.75,8.39h-2Zm-.61-1.47-1.33-3.22-1.33,3.22Z" transform="translate(0 -0.04)"/><path class="cls-1" d="M319.29,229.1l-1.13,1.18v2.12h-1.93V224h1.93v3.92l3.72-3.92H324l-3.48,3.74,3.68,4.65H322Z" transform="translate(0 -0.04)"/><path class="cls-1" d="M326.21,224h1.94v8.39h-1.94Z" transform="translate(0 -0.04)"/><path class="cls-1" d="M339,224v8.39h-1.59l-4.19-5.09v5.09h-1.92V224h1.61L337,229.1V224Z" transform="translate(0 -0.04)"/><path class="cls-1" d="M347.72,228.07h1.78v3.41a5.84,5.84,0,0,1-3.4,1.07,4.35,4.35,0,1,1,0-8.69,4.48,4.48,0,0,1,3.51,1.45l-1.24,1.16a2.83,2.83,0,0,0-2.17-.95,2.69,2.69,0,1,0,0,5.37,3,3,0,0,0,1.51-.36Z" transform="translate(0 -0.04)"/><path class="cls-1" d="M6,195l.66-1.46a5,5,0,0,0,2.77.88c1.15,0,1.62-.39,1.62-.91,0-1.57-4.88-.49-4.88-3.6,0-1.43,1.15-2.62,3.54-2.62a5.65,5.65,0,0,1,2.91.74l-.6,1.48a4.78,4.78,0,0,0-2.33-.66c-1.15,0-1.59.43-1.59,1,0,1.55,4.88.48,4.88,3.56,0,1.4-1.16,2.6-3.56,2.6A6,6,0,0,1,6,195Z" transform="translate(0 -0.04)"/><path class="cls-1" d="M22.72,190.48c0,1.87-1.4,3-3.65,3H17.38v2.32H15.44v-8.4h3.63C21.32,187.43,22.72,188.6,22.72,190.48Zm-2,0c0-.92-.6-1.46-1.78-1.46H17.38v2.91H19C20.15,191.93,20.75,191.39,20.75,190.48Z" transform="translate(0 -0.04)"/><path class="cls-1" d="M31.71,194.27v1.56h-6.5v-8.4h6.34V189H27.14v1.83H31v1.51h-3.9v1.94Z" transform="translate(0 -0.04)"/><path class="cls-1" d="M40.86,194.27v1.56h-6.5v-8.4h6.35V189H36.29v1.83h3.9v1.51h-3.9v1.94Z" transform="translate(0 -0.04)"/><path class="cls-1" d="M43,191.63a4.62,4.62,0,0,1,8-2.85l-1.25,1.15a2.68,2.68,0,0,0-2.11-1,2.69,2.69,0,1,0,0,5.37,2.67,2.67,0,0,0,2.11-1L51,194.47a4.61,4.61,0,0,1-8-2.84Z" transform="translate(0 -0.04)"/><path class="cls-1" d="M61.1,187.43v8.4h-2v-3.44H55.34v3.44H53.4v-8.4h1.94v3.31h3.81v-3.31Z" transform="translate(0 -0.04)"/><path class="cls-1" d="M239.38,197.29v8.4h-1.56v-3.6h-4.34v3.6h-1.56v-8.4h1.56v3.47h4.34v-3.47Z" transform="translate(0 -0.04)"/><path class="cls-1" d="M248,204.38v1.31h-6.3v-8.4h6.13v1.31h-4.57v2.18h4.06v1.28h-4.06v2.32Z" transform="translate(0 -0.04)"/><path class="cls-1" d="M249.85,197.29h1.56v7.08h4.39v1.32h-6Z" transform="translate(0 -0.04)"/><path class="cls-1" d="M257.12,197.29h1.56v7.08h4.39v1.32h-5.95Z" transform="translate(0 -0.04)"/><path class="cls-1" d="M263.64,201.49a4.52,4.52,0,1,1,4.52,4.32A4.3,4.3,0,0,1,263.64,201.49Zm7.47,0a3,3,0,1,0-2.95,2.95A2.86,2.86,0,0,0,271.11,201.49Z" transform="translate(0 -0.04)"/></svg>